<svg width="136" height="200" viewBox="0 0 136 200" fill="none" xmlns="http://www.w3.org/2000/svg">
<path fill-rule="evenodd" clip-rule="evenodd" d="M94.9316 102.773C93.4945 97.3912 96.1783 91.4366 101.015 89.2777C104.666 87.6481 109.316 88.5933 112.293 91.5703L113.676 92.9532L115.887 91.0125C124.47 83.4761 136.691 94.1147 131.755 104.826C131.101 106.247 129.376 108.747 127.922 110.383C124.679 114.032 114.692 122.581 113.671 122.581C112.469 122.581 100.55 111.918 97.997 108.557C96.7071 106.861 95.328 104.257 94.9316 102.773Z" fill="#FF2C55"/>
<path d="M55.8217 1.19405C28.0431 6.80064 6.96999 28.0081 0.953426 56.4129C-0.319742 62.4217 -0.317162 76.5402 0.957298 82.6717C4.75227 100.927 14.6387 116.364 29.1239 126.653C34.7841 130.674 44.2302 135.081 50.7026 136.723C57.2647 138.387 67.7935 139.585 71.0384 139.036L73.5137 138.619L69.3268 134.702C64.136 129.846 58.6883 121.76 55.8546 114.706C53.6266 109.16 51.6251 99.4295 51.6251 94.1444C51.6251 89.5682 53.3419 80.6599 55.2484 75.3458C59.9769 62.1609 71.3767 49.8379 83.9999 44.2642C98.8912 37.6885 116.372 37.8906 130.97 44.8065C133.596 46.0513 135.851 46.9629 135.982 46.8331C136.383 46.4309 130.102 34.587 127.166 30.2103C123.739 25.104 113.874 15.2215 109.086 12.098C100.392 6.42811 90.7183 2.48077 81.6311 0.896416C74.1742 -0.403869 63.1076 -0.276682 55.8217 1.19405Z" fill="#303030"/>
<path d="M20.7075 164.048V191.648H17.3832V164.048H20.7075ZM19.9169 181.19L18.5333 181.137C18.5452 179.807 18.7429 178.579 19.1262 177.453C19.5096 176.315 20.0486 175.327 20.7434 174.488C21.4382 173.649 22.2648 173.003 23.2232 172.547C24.1935 172.08 25.2656 171.847 26.4396 171.847C27.398 171.847 28.2605 171.978 29.0272 172.242C29.7938 172.493 30.4467 172.901 30.9858 173.464C31.5368 174.027 31.9561 174.758 32.2436 175.656C32.5311 176.542 32.6749 177.627 32.6749 178.908V191.648H29.3326V178.872C29.3326 177.854 29.1829 177.04 28.8834 176.429C28.5839 175.806 28.1467 175.357 27.5717 175.081C26.9967 174.794 26.2899 174.65 25.4513 174.65C24.6247 174.65 23.87 174.823 23.1872 175.171C22.5164 175.518 21.9354 175.997 21.4442 176.608C20.9651 177.219 20.5877 177.92 20.3122 178.711C20.0486 179.489 19.9169 180.316 19.9169 181.19ZM49.1165 188.324V178.315C49.1165 177.549 48.9608 176.884 48.6493 176.321C48.3498 175.746 47.8946 175.303 47.2837 174.991C46.6727 174.68 45.918 174.524 45.0196 174.524C44.181 174.524 43.4443 174.668 42.8094 174.955C42.1864 175.243 41.6953 175.62 41.3359 176.087C40.9885 176.554 40.8148 177.058 40.8148 177.597H37.4906C37.4906 176.902 37.6702 176.213 38.0296 175.53C38.389 174.847 38.9041 174.23 39.575 173.679C40.2578 173.116 41.0724 172.673 42.0187 172.35C42.9771 172.014 44.0432 171.847 45.2172 171.847C46.6308 171.847 47.8766 172.086 48.9548 172.565C50.0449 173.045 50.8954 173.769 51.5064 174.74C52.1293 175.698 52.4408 176.902 52.4408 178.351V187.408C52.4408 188.055 52.4947 188.743 52.6025 189.474C52.7223 190.205 52.896 190.834 53.1236 191.361V191.648H49.6556C49.4879 191.265 49.3561 190.756 49.2602 190.121C49.1644 189.474 49.1165 188.875 49.1165 188.324ZM49.6915 179.861L49.7274 182.197H46.3672C45.4209 182.197 44.5763 182.275 43.8336 182.43C43.0909 182.574 42.468 182.796 41.9648 183.095C41.4617 183.395 41.0784 183.772 40.8148 184.227C40.5513 184.67 40.4195 185.192 40.4195 185.791C40.4195 186.401 40.5573 186.959 40.8328 187.462C41.1083 187.965 41.5216 188.366 42.0726 188.666C42.6357 188.953 43.3245 189.097 44.1391 189.097C45.1573 189.097 46.0558 188.881 46.8344 188.45C47.6131 188.019 48.23 187.492 48.6852 186.869C49.1524 186.246 49.404 185.641 49.4399 185.054L50.8595 186.653C50.7756 187.156 50.548 187.713 50.1767 188.324C49.8053 188.935 49.3082 189.522 48.6852 190.085C48.0743 190.636 47.3436 191.097 46.493 191.469C45.6545 191.828 44.7081 192.008 43.6539 192.008C42.3362 192.008 41.1802 191.75 40.1859 191.235C39.2036 190.72 38.4369 190.031 37.8859 189.169C37.3468 188.294 37.0773 187.318 37.0773 186.24C37.0773 185.198 37.2809 184.281 37.6882 183.491C38.0955 182.688 38.6825 182.023 39.4492 181.496C40.2158 180.957 41.1383 180.55 42.2164 180.274C43.2945 179.999 44.4985 179.861 45.8282 179.861H49.6915ZM61.2815 164.048V191.648H57.9393V164.048H61.2815ZM72.5301 188.648L77.8489 172.206H81.2451L74.2551 191.648H72.027L72.5301 188.648ZM68.0918 172.206L73.5723 188.737L73.9497 191.648H71.7215L64.6776 172.206H68.0918ZM92.2601 192.008C90.9064 192.008 89.6785 191.78 88.5764 191.325C87.4863 190.858 86.5459 190.205 85.7553 189.366C84.9766 188.528 84.3777 187.534 83.9584 186.384C83.5391 185.234 83.3295 183.976 83.3295 182.61V181.855C83.3295 180.274 83.5631 178.866 84.0303 177.633C84.4975 176.387 85.1324 175.333 85.935 174.47C86.7376 173.608 87.648 172.955 88.6663 172.511C89.6845 172.068 90.7387 171.847 91.8288 171.847C93.2184 171.847 94.4163 172.086 95.4226 172.565C96.4409 173.045 97.2734 173.715 97.9203 174.578C98.5672 175.428 99.0464 176.435 99.3578 177.597C99.6693 178.747 99.825 180.005 99.825 181.37V182.862H85.3061V180.148H96.5008V179.897C96.4528 179.034 96.2731 178.196 95.9617 177.381C95.6622 176.566 95.183 175.896 94.5242 175.369C93.8653 174.841 92.9668 174.578 91.8288 174.578C91.0741 174.578 90.3793 174.74 89.7444 175.063C89.1095 175.375 88.5644 175.842 88.1092 176.465C87.654 177.088 87.3006 177.848 87.0491 178.747C86.7975 179.645 86.6717 180.681 86.6717 181.855V182.61C86.6717 183.532 86.7975 184.401 87.0491 185.216C87.3126 186.018 87.69 186.725 88.1811 187.336C88.6842 187.947 89.2892 188.426 89.996 188.773C90.7147 189.121 91.5293 189.294 92.4398 189.294C93.6137 189.294 94.608 189.055 95.4226 188.576C96.2372 188.097 96.95 187.456 97.5609 186.653L99.5734 188.252C99.1542 188.887 98.6211 189.492 97.9742 190.067C97.3273 190.642 96.5307 191.109 95.5843 191.469C94.6499 191.828 93.5419 192.008 92.2601 192.008ZM115.027 186.491C115.027 186.012 114.919 185.569 114.703 185.162C114.5 184.742 114.074 184.365 113.428 184.03C112.793 183.682 111.834 183.383 110.553 183.131C109.474 182.904 108.498 182.634 107.624 182.323C106.761 182.011 106.024 181.634 105.413 181.19C104.814 180.747 104.353 180.226 104.03 179.627C103.706 179.028 103.545 178.327 103.545 177.525C103.545 176.758 103.712 176.033 104.048 175.351C104.395 174.668 104.88 174.063 105.503 173.536C106.138 173.009 106.899 172.595 107.785 172.296C108.672 171.996 109.66 171.847 110.75 171.847C112.307 171.847 113.637 172.122 114.739 172.673C115.841 173.224 116.686 173.961 117.273 174.883C117.86 175.794 118.153 176.806 118.153 177.92H114.829C114.829 177.381 114.667 176.86 114.344 176.357C114.033 175.842 113.571 175.416 112.96 175.081C112.361 174.746 111.625 174.578 110.75 174.578C109.828 174.578 109.079 174.722 108.504 175.009C107.941 175.285 107.528 175.638 107.264 176.069C107.013 176.501 106.887 176.956 106.887 177.435C106.887 177.794 106.947 178.118 107.067 178.405C107.198 178.681 107.426 178.938 107.749 179.178C108.073 179.406 108.528 179.621 109.115 179.825C109.702 180.028 110.451 180.232 111.361 180.436C112.954 180.795 114.266 181.226 115.296 181.73C116.327 182.233 117.093 182.85 117.596 183.58C118.099 184.311 118.351 185.198 118.351 186.24C118.351 187.09 118.171 187.869 117.812 188.576C117.465 189.283 116.955 189.893 116.285 190.409C115.626 190.912 114.835 191.307 113.913 191.595C113.002 191.87 111.978 192.008 110.84 192.008C109.127 192.008 107.677 191.702 106.492 191.091C105.306 190.48 104.407 189.69 103.796 188.719C103.185 187.749 102.88 186.725 102.88 185.647H106.222C106.27 186.557 106.533 187.282 107.013 187.821C107.492 188.348 108.079 188.725 108.774 188.953C109.468 189.169 110.157 189.277 110.84 189.277C111.75 189.277 112.511 189.157 113.122 188.917C113.745 188.678 114.218 188.348 114.542 187.929C114.865 187.51 115.027 187.03 115.027 186.491Z" fill="#080808"/>
</svg>
