<svg width="680" height="342" viewBox="0 0 680 342" fill="none" xmlns="http://www.w3.org/2000/svg">
<path d="M175.36 25.288C179.512 25.288 182.728 22.84 183.4 19.144H180.208C179.632 21.088 177.808 22.336 175.432 22.336C172.216 22.336 170.152 19.936 170.152 16.216C170.152 12.472 172.192 10.12 175.432 10.12C177.76 10.12 179.512 11.32 180.112 13.36H183.352C182.752 9.592 179.656 7.168 175.504 7.168C170.368 7.168 166.936 10.792 166.936 16.24C166.936 21.736 170.248 25.288 175.36 25.288ZM185.027 19.048C185.027 22.744 187.691 25.288 191.363 25.288C195.035 25.288 197.699 22.744 197.699 19.048C197.699 15.352 195.035 12.808 191.363 12.808C187.691 12.808 185.027 15.352 185.027 19.048ZM187.955 19.048C187.955 16.888 189.347 15.424 191.363 15.424C193.379 15.424 194.771 16.888 194.771 19.048C194.771 21.208 193.379 22.672 191.363 22.672C189.347 22.672 187.955 21.208 187.955 19.048ZM202.948 25V18.28C202.948 16.36 204.076 15.448 205.468 15.448C206.86 15.448 207.748 16.336 207.748 17.992V25H210.676V18.28C210.676 16.336 211.756 15.424 213.172 15.424C214.564 15.424 215.476 16.312 215.476 18.016V25H218.38V17.248C218.38 14.512 216.796 12.784 213.916 12.784C212.116 12.784 210.724 13.672 210.124 15.04C209.5 13.672 208.252 12.784 206.452 12.784C204.748 12.784 203.548 13.552 202.948 14.536L202.708 13.144H200.02V25H202.948ZM224.182 25V18.28C224.182 16.36 225.31 15.448 226.702 15.448C228.094 15.448 228.982 16.336 228.982 17.992V25H231.91V18.28C231.91 16.336 232.99 15.424 234.406 15.424C235.798 15.424 236.71 16.312 236.71 18.016V25H239.614V17.248C239.614 14.512 238.03 12.784 235.15 12.784C233.35 12.784 231.958 13.672 231.358 15.04C230.734 13.672 229.486 12.784 227.686 12.784C225.982 12.784 224.782 13.552 224.182 14.536L223.942 13.144H221.254V25H224.182ZM250.529 13.144V19.36C250.529 21.616 249.641 22.696 247.793 22.696C246.161 22.696 245.273 21.784 245.273 19.528V13.144H242.345V20.56C242.345 23.464 243.953 25.312 246.689 25.312C248.273 25.312 249.809 24.544 250.529 23.416L250.745 25H253.457V13.144H250.529ZM259.409 25V18.616C259.409 16.696 260.513 15.448 262.313 15.448C263.825 15.448 264.809 16.408 264.809 18.4V25H267.737V17.704C267.737 14.632 266.201 12.784 263.225 12.784C261.617 12.784 260.177 13.48 259.433 14.68L259.193 13.144H256.481V25H259.409ZM272.078 10.768C273.038 10.768 273.83 9.976 273.83 8.992C273.83 8.008 273.038 7.24 272.078 7.24C271.07 7.24 270.278 8.008 270.278 8.992C270.278 9.976 271.07 10.768 272.078 10.768ZM270.614 25H273.542V13.144H270.614V25ZM275.871 19.048C275.871 22.816 278.223 25.312 281.823 25.312C284.919 25.312 287.223 23.416 287.583 20.656H284.631C284.319 21.952 283.287 22.672 281.823 22.672C279.951 22.672 278.799 21.28 278.799 19.048C278.799 16.816 280.047 15.4 281.919 15.4C283.311 15.4 284.295 16.096 284.631 17.44H287.559C287.247 14.584 285.039 12.784 281.799 12.784C278.295 12.784 275.871 15.376 275.871 19.048ZM293.29 25.312C295.138 25.312 296.746 24.472 297.25 23.248L297.466 25H300.034V17.8C300.034 14.512 298.066 12.784 294.874 12.784C291.658 12.784 289.546 14.464 289.546 17.032H292.042C292.042 15.784 293.002 15.064 294.73 15.064C296.218 15.064 297.178 15.712 297.178 17.32V17.584L293.626 17.848C290.818 18.064 289.234 19.432 289.234 21.616C289.234 23.848 290.77 25.312 293.29 25.312ZM294.25 23.104C292.93 23.104 292.21 22.576 292.21 21.496C292.21 20.536 292.906 19.936 294.73 19.768L297.202 19.576V20.2C297.202 22.024 296.05 23.104 294.25 23.104ZM306.778 25V15.592H309.082V13.144H306.778V9.448H303.85V13.144H301.57V15.592H303.85V25H306.778ZM312.367 10.768C313.327 10.768 314.119 9.976 314.119 8.992C314.119 8.008 313.327 7.24 312.367 7.24C311.359 7.24 310.567 8.008 310.567 8.992C310.567 9.976 311.359 10.768 312.367 10.768ZM310.903 25H313.831V13.144H310.903V25ZM316.16 19.048C316.16 22.744 318.824 25.288 322.496 25.288C326.168 25.288 328.832 22.744 328.832 19.048C328.832 15.352 326.168 12.808 322.496 12.808C318.824 12.808 316.16 15.352 316.16 19.048ZM319.088 19.048C319.088 16.888 320.48 15.424 322.496 15.424C324.512 15.424 325.904 16.888 325.904 19.048C325.904 21.208 324.512 22.672 322.496 22.672C320.48 22.672 319.088 21.208 319.088 19.048ZM334.081 25V18.616C334.081 16.696 335.185 15.448 336.985 15.448C338.497 15.448 339.481 16.408 339.481 18.4V25H342.409V17.704C342.409 14.632 340.873 12.784 337.897 12.784C336.289 12.784 334.849 13.48 334.105 14.68L333.865 13.144H331.153V25H334.081ZM353.218 10.768C354.178 10.768 354.97 9.976 354.97 8.992C354.97 8.008 354.178 7.24 353.218 7.24C352.21 7.24 351.418 8.008 351.418 8.992C351.418 9.976 352.21 10.768 353.218 10.768ZM351.754 25H354.682V13.144H351.754V25ZM360.635 25V18.616C360.635 16.696 361.739 15.448 363.539 15.448C365.051 15.448 366.035 16.408 366.035 18.4V25H368.963V17.704C368.963 14.632 367.427 12.784 364.451 12.784C362.843 12.784 361.403 13.48 360.659 14.68L360.419 13.144H357.707V25H360.635ZM394.749 16.216C394.749 10.864 391.245 7.144 386.229 7.144C381.213 7.144 377.733 10.888 377.733 16.216C377.733 21.568 381.189 25.288 386.205 25.288C391.245 25.288 394.749 21.544 394.749 16.216ZM391.509 16.216C391.509 19.912 389.445 22.336 386.229 22.336C383.013 22.336 380.949 19.96 380.949 16.216C380.949 12.472 383.013 10.096 386.229 10.096C389.445 10.096 391.509 12.472 391.509 16.216ZM405.216 13.144V19.36C405.216 21.616 404.328 22.696 402.48 22.696C400.848 22.696 399.96 21.784 399.96 19.528V13.144H397.032V20.56C397.032 23.464 398.64 25.312 401.376 25.312C402.96 25.312 404.496 24.544 405.216 23.416L405.432 25H408.144V13.144H405.216ZM415.2 25V15.592H417.504V13.144H415.2V9.448H412.272V13.144H409.992V15.592H412.272V25H415.2ZM418.413 21.4C418.413 23.728 420.285 25.312 423.237 25.312C426.165 25.312 428.205 23.824 428.205 21.424C428.205 19.6 427.197 18.688 425.205 18.232L423.069 17.728C422.061 17.488 421.533 17.056 421.533 16.384C421.533 15.496 422.205 14.968 423.357 14.968C424.485 14.968 425.157 15.616 425.181 16.624H427.965C427.941 14.32 426.141 12.784 423.477 12.784C420.741 12.784 418.773 14.176 418.773 16.504C418.773 18.4 419.805 19.408 421.941 19.888L424.077 20.392C425.133 20.632 425.445 21.064 425.445 21.664C425.445 22.528 424.701 23.08 423.333 23.08C421.989 23.08 421.221 22.432 421.197 21.4H418.413ZM429.738 19.048C429.738 22.744 432.402 25.288 436.074 25.288C439.746 25.288 442.41 22.744 442.41 19.048C442.41 15.352 439.746 12.808 436.074 12.808C432.402 12.808 429.738 15.352 429.738 19.048ZM432.666 19.048C432.666 16.888 434.058 15.424 436.074 15.424C438.09 15.424 439.482 16.888 439.482 19.048C439.482 21.208 438.09 22.672 436.074 22.672C434.058 22.672 432.666 21.208 432.666 19.048ZM452.49 13.144V19.36C452.49 21.616 451.602 22.696 449.754 22.696C448.122 22.696 447.234 21.784 447.234 19.528V13.144H444.306V20.56C444.306 23.464 445.914 25.312 448.65 25.312C450.234 25.312 451.77 24.544 452.49 23.416L452.706 25H455.418V13.144H452.49ZM465.882 13.096C465.402 12.976 464.994 12.928 464.586 12.928C463.002 12.928 461.874 13.72 461.37 14.896L461.202 13.168H458.442V25H461.37V19.24C461.37 16.936 462.69 15.808 464.802 15.808H465.882V13.096ZM466.769 19.048C466.769 22.816 469.121 25.312 472.721 25.312C475.817 25.312 478.121 23.416 478.481 20.656H475.529C475.217 21.952 474.185 22.672 472.721 22.672C470.849 22.672 469.697 21.28 469.697 19.048C469.697 16.816 470.945 15.4 472.817 15.4C474.209 15.4 475.193 16.096 475.529 17.44H478.457C478.145 14.584 475.937 12.784 472.697 12.784C469.193 12.784 466.769 15.376 466.769 19.048ZM482.124 10.768C483.084 10.768 483.876 9.976 483.876 8.992C483.876 8.008 483.084 7.24 482.124 7.24C481.116 7.24 480.324 8.008 480.324 8.992C480.324 9.976 481.116 10.768 482.124 10.768ZM480.66 25H483.588V13.144H480.66V25ZM489.542 25V18.616C489.542 16.696 490.646 15.448 492.446 15.448C493.958 15.448 494.942 16.408 494.942 18.4V25H497.87V17.704C497.87 14.632 496.334 12.784 493.358 12.784C491.75 12.784 490.31 13.48 489.566 14.68L489.326 13.144H486.614V25H489.542ZM500.074 18.808C500.074 22.24 502.282 24.76 505.642 24.76C507.346 24.76 508.81 24.064 509.554 22.96V24.928C509.554 26.896 508.258 28.168 506.242 28.168C504.442 28.168 503.266 27.256 503.074 25.72H500.146C500.506 28.888 502.834 30.832 506.242 30.832C510.082 30.832 512.458 28.36 512.458 24.4V13.144H509.746L509.578 14.776C508.882 13.504 507.49 12.76 505.714 12.76C502.33 12.76 500.074 15.352 500.074 18.808ZM503.026 18.736C503.026 16.792 504.274 15.328 506.218 15.328C508.258 15.328 509.482 16.72 509.482 18.736C509.482 20.8 508.234 22.216 506.218 22.216C504.298 22.216 503.026 20.728 503.026 18.736Z" fill="#303030"/>
<rect x="60" y="82" width="200" height="50" rx="25" fill="#28C0E2"/>
<path d="M138.58 115.22C141.66 115.22 144.16 113.4 144.82 110.7H143.28C142.66 112.62 140.86 113.84 138.6 113.84C135.46 113.84 133.36 111.44 133.36 107.84C133.36 104.22 135.46 101.82 138.6 101.82C140.84 101.82 142.6 103.08 143.2 105.14H144.74C144.16 102.3 141.74 100.44 138.66 100.44C134.62 100.44 131.86 103.44 131.86 107.84C131.86 112.24 134.58 115.22 138.58 115.22ZM148.353 115V100.42H146.973V115H148.353ZM151.968 102.66C152.528 102.66 153.008 102.2 153.008 101.64C153.008 101.08 152.528 100.6 151.968 100.6C151.408 100.6 150.948 101.08 150.948 101.64C150.948 102.2 151.408 102.66 151.968 102.66ZM151.288 115H152.668V105.32H151.288V115ZM159.605 115.24C161.885 115.24 163.385 114.14 163.905 112.1H162.585C162.225 113.38 161.205 114.06 159.625 114.06C157.545 114.06 156.305 112.7 156.205 110.34H163.905V109.66C163.905 106.92 162.125 105.06 159.505 105.06C156.745 105.06 154.865 107.14 154.865 110.16C154.865 113.2 156.765 115.24 159.605 115.24ZM159.505 106.24C161.325 106.24 162.525 107.48 162.525 109.34H156.245C156.485 107.44 157.685 106.24 159.505 106.24ZM167.492 115V109.94C167.492 107.76 168.612 106.32 170.592 106.32C172.192 106.32 173.212 107.12 173.212 109.38V115H174.592V109.08C174.592 106.64 173.492 105.06 170.832 105.06C169.432 105.06 168.152 105.76 167.512 107L167.312 105.32H166.112V115H167.492ZM179.562 115V106.48H181.502V105.32H179.562V102.26H178.202V105.32H176.262V106.48H178.202V115H179.562Z" fill="#FDFDFD"/>
<circle cx="25" cy="107" r="25" fill="#28C0E2"/>
<path d="M32.5065 109.404C31.6999 108.596 30.7574 107.938 29.7222 107.457C31.182 106.275 32.1134 104.47 32.1134 102.446C32.1134 98.8754 29.1356 95.946 25.5649 96.0008C22.049 96.0555 19.2163 98.9205 19.2163 102.446C19.2163 104.47 20.1509 106.275 21.6075 107.457C20.5721 107.937 19.6295 108.596 18.8231 109.404C17.0636 111.167 16.0645 113.493 16.0001 115.975C15.9992 116.009 16.0053 116.043 16.0178 116.075C16.0304 116.107 16.0492 116.137 16.0733 116.161C16.0973 116.186 16.126 116.205 16.1577 116.219C16.1894 116.232 16.2235 116.239 16.2579 116.239H18.0626C18.2012 116.239 18.3172 116.129 18.3204 115.991C18.3816 114.122 19.1389 112.372 20.4699 111.044C21.151 110.359 21.9611 109.817 22.8534 109.447C23.7456 109.078 24.7023 108.889 25.668 108.891C27.6306 108.891 29.4772 109.655 30.8662 111.044C32.1939 112.372 32.9513 114.122 33.0157 115.991C33.0189 116.129 33.1349 116.239 33.2735 116.239H35.0782C35.1126 116.239 35.1467 116.232 35.1784 116.219C35.2101 116.205 35.2388 116.186 35.2628 116.161C35.2868 116.137 35.3057 116.107 35.3183 116.075C35.3308 116.043 35.3369 116.009 35.336 115.975C35.2716 113.493 34.2725 111.167 32.5065 109.404ZM25.668 106.571C24.5659 106.571 23.5282 106.142 22.7515 105.363C22.3618 104.976 22.0539 104.515 21.8463 104.006C21.6386 103.498 21.5355 102.953 21.543 102.404C21.5527 101.347 21.9749 100.326 22.7129 99.5682C23.4863 98.7755 24.5208 98.334 25.6262 98.3211C26.7186 98.3114 27.7789 98.7368 28.5588 99.5006C29.358 100.284 29.7963 101.331 29.7963 102.446C29.7963 103.548 29.3677 104.583 28.5878 105.363C28.2052 105.747 27.7501 106.052 27.2489 106.259C26.7478 106.467 26.2104 106.573 25.668 106.571Z" fill="#FDFDFD"/>
<rect x="480" y="82" width="200" height="50" rx="25" fill="#FF740F"/>
<path d="M556.2 109.74C558.94 109.74 560.7 107.78 560.7 105.18C560.7 102.48 558.96 100.68 556.2 100.68H550.74V115H552.18V109.74H556.2ZM556 101.98C557.98 101.98 559.2 103.18 559.2 105.16C559.2 107.12 558 108.44 555.92 108.44H552.18V101.98H556ZM567.785 105.2C567.445 105.12 567.185 105.1 566.885 105.1C565.525 105.1 564.505 105.78 564.125 106.82L564.025 105.32H562.725V115H564.105V109.48C564.105 107.64 565.245 106.44 567.025 106.44H567.785V105.2ZM568.569 110.16C568.569 113.1 570.649 115.24 573.489 115.24C576.329 115.24 578.409 113.1 578.409 110.16C578.409 107.2 576.329 105.06 573.489 105.06C570.649 105.06 568.569 107.2 568.569 110.16ZM569.969 110.14C569.969 107.9 571.409 106.3 573.489 106.3C575.549 106.3 577.009 107.9 577.009 110.14C577.009 112.42 575.549 114 573.489 114C571.409 114 569.969 112.42 569.969 110.14ZM581.316 102.66C581.856 102.66 582.336 102.2 582.336 101.64C582.336 101.08 581.856 100.6 581.316 100.6C580.736 100.6 580.276 101.08 580.276 101.64C580.276 102.2 580.736 102.66 581.316 102.66ZM578.036 119.24C578.536 119.38 578.816 119.42 579.336 119.42C581.036 119.42 581.996 118.3 581.996 116.46V105.32H580.616V116.38C580.616 117.56 580.196 118.12 579.236 118.12C578.936 118.12 578.696 118.08 578.296 117.98L578.036 119.24ZM588.934 115.24C591.214 115.24 592.714 114.14 593.234 112.1H591.914C591.554 113.38 590.534 114.06 588.954 114.06C586.874 114.06 585.634 112.7 585.534 110.34H593.234V109.66C593.234 106.92 591.454 105.06 588.834 105.06C586.074 105.06 584.194 107.14 584.194 110.16C584.194 113.2 586.094 115.24 588.934 115.24ZM588.834 106.24C590.654 106.24 591.854 107.48 591.854 109.34H585.574C585.814 107.44 587.014 106.24 588.834 106.24ZM594.76 110.18C594.76 113.22 596.62 115.24 599.36 115.24C601.56 115.24 603.28 113.94 603.74 111.96H602.34C601.96 113.2 600.8 114 599.36 114C597.4 114 596.12 112.46 596.12 110.16C596.12 107.78 597.5 106.28 599.46 106.28C600.8 106.28 601.96 107.02 602.32 108.36H603.7C603.32 106.36 601.68 105.06 599.44 105.06C596.62 105.06 594.76 107.14 594.76 110.18ZM608.051 115V106.48H609.991V105.32H608.051V102.26H606.691V105.32H604.751V106.48H606.691V115H608.051Z" fill="#FDFDFD"/>
<circle cx="445" cy="107" r="25" fill="#FF740F"/>
<g clip-path="url(#clip0_1142_7641)">
<path d="M459.812 98.5V96.375C459.812 95.8114 459.589 95.2709 459.19 94.8724C458.792 94.4739 458.251 94.25 457.688 94.25H434.312C433.749 94.25 433.208 94.4739 432.81 94.8724C432.411 95.2709 432.188 95.8114 432.188 96.375V98.5C432.188 99.0636 432.411 99.6041 432.81 100.003C433.208 100.401 433.749 100.625 434.312 100.625V113.375H433.25C432.968 113.375 432.698 113.487 432.499 113.686C432.299 113.885 432.188 114.156 432.188 114.438C432.188 114.719 432.299 114.99 432.499 115.189C432.698 115.388 432.968 115.5 433.25 115.5H444.938V117.811C444.229 118.062 443.631 118.555 443.251 119.203C442.87 119.852 442.731 120.614 442.858 121.355C442.986 122.096 443.371 122.769 443.945 123.253C444.52 123.738 445.248 124.004 446 124.004C446.752 124.004 447.48 123.738 448.055 123.253C448.629 122.769 449.014 122.096 449.142 121.355C449.269 120.614 449.13 119.852 448.749 119.203C448.369 118.555 447.771 118.062 447.062 117.811V115.5H458.75C459.032 115.5 459.302 115.388 459.501 115.189C459.701 114.99 459.812 114.719 459.812 114.438C459.812 114.156 459.701 113.885 459.501 113.686C459.302 113.487 459.032 113.375 458.75 113.375H457.688V100.625C458.251 100.625 458.792 100.401 459.19 100.003C459.589 99.6041 459.812 99.0636 459.812 98.5ZM446 121.875C445.79 121.875 445.584 121.813 445.41 121.696C445.235 121.579 445.099 121.413 445.018 121.219C444.938 121.025 444.917 120.811 444.958 120.605C444.999 120.399 445.1 120.21 445.249 120.061C445.397 119.913 445.587 119.811 445.793 119.77C445.999 119.729 446.212 119.75 446.407 119.831C446.601 119.911 446.767 120.047 446.883 120.222C447 120.397 447.062 120.602 447.062 120.812C447.062 121.094 446.951 121.365 446.751 121.564C446.552 121.763 446.282 121.875 446 121.875ZM434.312 96.375H457.688V98.5H434.312V96.375ZM455.562 113.375H436.438V100.625H455.562V113.375Z" fill="#FDFDFD"/>
</g>
<rect x="480" y="292" width="200" height="50" rx="25" fill="#DADADA"/>
<path d="M556.24 312H560.64V325H562.08V312H566.5V310.68H556.24V312ZM570.758 325.24C573.038 325.24 574.538 324.14 575.058 322.1H573.738C573.378 323.38 572.358 324.06 570.778 324.06C568.698 324.06 567.458 322.7 567.358 320.34H575.058V319.66C575.058 316.92 573.278 315.06 570.658 315.06C567.898 315.06 566.018 317.14 566.018 320.16C566.018 323.2 567.918 325.24 570.758 325.24ZM570.658 316.24C572.478 316.24 573.678 317.48 573.678 319.34H567.398C567.638 317.44 568.838 316.24 570.658 316.24ZM579.947 325.24C581.587 325.24 582.907 324.52 583.507 323.3L583.687 325H584.847V318.74C584.847 316.18 583.207 315.06 580.967 315.06C578.587 315.06 576.987 316.32 576.987 318.28H578.247C578.247 316.98 579.247 316.22 580.927 316.22C582.347 316.22 583.487 316.82 583.487 318.72V319.04L580.287 319.3C578.027 319.48 576.667 320.6 576.667 322.38C576.667 324.08 577.887 325.24 579.947 325.24ZM580.267 324.12C578.947 324.12 578.067 323.52 578.067 322.34C578.067 321.26 578.807 320.46 580.627 320.3L583.487 320.08V320.6C583.487 322.7 582.307 324.12 580.267 324.12ZM588.996 325V319C588.996 317.52 589.976 316.32 591.596 316.32C593.056 316.32 593.996 317.28 593.996 318.92V325H595.356V319.02C595.356 317.52 596.316 316.3 597.936 316.3C599.416 316.3 600.336 317.28 600.336 318.94V325H601.676V318.66C601.676 316.42 600.296 315.06 598.196 315.06C596.636 315.06 595.456 315.86 595.016 317.12C594.556 315.86 593.416 315.06 591.896 315.06C590.536 315.06 589.456 315.68 588.976 316.7L588.816 315.32H587.616V325H588.996Z" fill="#303030"/>
<circle cx="445" cy="317" r="25" fill="#DADADA"/>
<path d="M455.561 323.555C454.755 322.748 453.812 322.089 452.777 321.609C454.237 320.426 455.168 318.621 455.168 316.597C455.168 313.027 452.19 310.097 448.62 310.152C445.104 310.207 442.271 313.072 442.271 316.597C442.271 318.621 443.206 320.426 444.662 321.609C443.627 322.089 442.684 322.748 441.878 323.555C440.118 325.318 439.119 327.645 439.055 330.126C439.054 330.161 439.06 330.195 439.073 330.227C439.085 330.259 439.104 330.288 439.128 330.313C439.152 330.337 439.181 330.357 439.212 330.37C439.244 330.384 439.278 330.39 439.313 330.39H441.117C441.256 330.39 441.372 330.281 441.375 330.142C441.436 328.273 442.194 326.523 443.525 325.195C444.206 324.511 445.016 323.968 445.908 323.598C446.8 323.229 447.757 323.04 448.723 323.043C450.685 323.043 452.532 323.807 453.921 325.195C455.249 326.523 456.006 328.273 456.07 330.142C456.074 330.281 456.19 330.39 456.328 330.39H458.133C458.167 330.39 458.201 330.384 458.233 330.37C458.265 330.357 458.293 330.337 458.318 330.313C458.342 330.288 458.36 330.259 458.373 330.227C458.386 330.195 458.392 330.161 458.391 330.126C458.326 327.645 457.327 325.318 455.561 323.555ZM448.723 320.722C447.621 320.722 446.583 320.294 445.806 319.514C445.416 319.127 445.109 318.666 444.901 318.158C444.693 317.649 444.59 317.105 444.598 316.556C444.607 315.499 445.03 314.477 445.768 313.72C446.541 312.927 447.575 312.485 448.681 312.472C449.773 312.463 450.834 312.888 451.613 313.652C452.413 314.435 452.851 315.482 452.851 316.597C452.851 317.7 452.422 318.734 451.642 319.514C451.26 319.898 450.805 320.203 450.304 320.411C449.802 320.618 449.265 320.724 448.723 320.722ZM440.65 317.448C440.621 317.168 440.605 316.884 440.605 316.597C440.605 316.085 440.653 315.586 440.743 315.099C440.766 314.983 440.705 314.864 440.598 314.815C440.16 314.619 439.757 314.348 439.409 314.006C438.999 313.609 438.676 313.13 438.462 312.601C438.247 312.071 438.145 311.503 438.162 310.932C438.191 309.898 438.607 308.915 439.332 308.173C440.128 307.358 441.198 306.913 442.335 306.926C443.363 306.936 444.356 307.332 445.107 308.035C445.362 308.273 445.581 308.538 445.764 308.821C445.829 308.921 445.954 308.963 446.064 308.924C446.631 308.728 447.231 308.589 447.846 308.525C448.027 308.505 448.13 308.312 448.049 308.151C447.002 306.079 444.862 304.648 442.387 304.609C438.813 304.554 435.835 307.484 435.835 311.051C435.835 313.075 436.767 314.88 438.227 316.062C437.202 316.536 436.258 317.19 435.439 318.009C433.673 319.772 432.674 322.099 432.609 324.583C432.609 324.618 432.615 324.652 432.627 324.684C432.64 324.716 432.659 324.745 432.683 324.77C432.707 324.794 432.735 324.814 432.767 324.827C432.799 324.841 432.833 324.847 432.867 324.847H434.675C434.814 324.847 434.93 324.738 434.933 324.599C434.994 322.73 435.752 320.98 437.083 319.653C438.03 318.705 439.19 318.048 440.457 317.729C440.582 317.696 440.666 317.577 440.65 317.448Z" fill="#303030"/>
<rect x="60" y="292" width="200" height="50" rx="25" fill="#DADADA"/>
<path d="M94.2 319.74C96.94 319.74 98.7 317.78 98.7 315.18C98.7 312.48 96.96 310.68 94.2 310.68H88.74V325H90.18V319.74H94.2ZM94 311.98C95.98 311.98 97.2 313.18 97.2 315.16C97.2 317.12 96 318.44 93.92 318.44H90.18V311.98H94ZM105.785 315.2C105.445 315.12 105.185 315.1 104.885 315.1C103.525 315.1 102.505 315.78 102.125 316.82L102.025 315.32H100.725V325H102.105V319.48C102.105 317.64 103.245 316.44 105.025 316.44H105.785V315.2ZM106.569 320.16C106.569 323.1 108.649 325.24 111.489 325.24C114.329 325.24 116.409 323.1 116.409 320.16C116.409 317.2 114.329 315.06 111.489 315.06C108.649 315.06 106.569 317.2 106.569 320.16ZM107.969 320.14C107.969 317.9 109.409 316.3 111.489 316.3C113.549 316.3 115.009 317.9 115.009 320.14C115.009 322.42 113.549 324 111.489 324C109.409 324 107.969 322.42 107.969 320.14ZM119.316 312.66C119.856 312.66 120.336 312.2 120.336 311.64C120.336 311.08 119.856 310.6 119.316 310.6C118.736 310.6 118.276 311.08 118.276 311.64C118.276 312.2 118.736 312.66 119.316 312.66ZM116.036 329.24C116.536 329.38 116.816 329.42 117.336 329.42C119.036 329.42 119.996 328.3 119.996 326.46V315.32H118.616V326.38C118.616 327.56 118.196 328.12 117.236 328.12C116.936 328.12 116.696 328.08 116.296 327.98L116.036 329.24ZM126.934 325.24C129.214 325.24 130.714 324.14 131.234 322.1H129.914C129.554 323.38 128.534 324.06 126.954 324.06C124.874 324.06 123.634 322.7 123.534 320.34H131.234V319.66C131.234 316.92 129.454 315.06 126.834 315.06C124.074 315.06 122.194 317.14 122.194 320.16C122.194 323.2 124.094 325.24 126.934 325.24ZM126.834 316.24C128.654 316.24 129.854 317.48 129.854 319.34H123.574C123.814 317.44 125.014 316.24 126.834 316.24ZM132.76 320.18C132.76 323.22 134.62 325.24 137.36 325.24C139.56 325.24 141.28 323.94 141.74 321.96H140.34C139.96 323.2 138.8 324 137.36 324C135.4 324 134.12 322.46 134.12 320.16C134.12 317.78 135.5 316.28 137.46 316.28C138.8 316.28 139.96 317.02 140.32 318.36H141.7C141.32 316.36 139.68 315.06 137.44 315.06C134.62 315.06 132.76 317.14 132.76 320.18ZM146.051 325V316.48H147.991V315.32H146.051V312.26H144.691V315.32H142.751V316.48H144.691V325H146.051ZM156.715 325V319C156.715 317.52 157.695 316.32 159.315 316.32C160.775 316.32 161.715 317.28 161.715 318.92V325H163.075V319.02C163.075 317.52 164.035 316.3 165.655 316.3C167.135 316.3 168.055 317.28 168.055 318.94V325H169.395V318.66C169.395 316.42 168.015 315.06 165.915 315.06C164.355 315.06 163.175 315.86 162.735 317.12C162.275 315.86 161.135 315.06 159.615 315.06C158.255 315.06 157.175 315.68 156.695 316.7L156.535 315.32H155.335V325H156.715ZM174.95 325.24C176.59 325.24 177.91 324.52 178.51 323.3L178.69 325H179.85V318.74C179.85 316.18 178.21 315.06 175.97 315.06C173.59 315.06 171.99 316.32 171.99 318.28H173.25C173.25 316.98 174.25 316.22 175.93 316.22C177.35 316.22 178.49 316.82 178.49 318.72V319.04L175.29 319.3C173.03 319.48 171.67 320.6 171.67 322.38C171.67 324.08 172.89 325.24 174.95 325.24ZM175.27 324.12C173.95 324.12 173.07 323.52 173.07 322.34C173.07 321.26 173.81 320.46 175.63 320.3L178.49 320.08V320.6C178.49 322.7 177.31 324.12 175.27 324.12ZM184 325V319.94C184 317.76 185.12 316.32 187.1 316.32C188.7 316.32 189.72 317.12 189.72 319.38V325H191.1V319.08C191.1 316.64 190 315.06 187.34 315.06C185.94 315.06 184.66 315.76 184.02 317L183.82 315.32H182.62V325H184ZM196.63 325.24C198.27 325.24 199.59 324.52 200.19 323.3L200.37 325H201.53V318.74C201.53 316.18 199.89 315.06 197.65 315.06C195.27 315.06 193.67 316.32 193.67 318.28H194.93C194.93 316.98 195.93 316.22 197.61 316.22C199.03 316.22 200.17 316.82 200.17 318.72V319.04L196.97 319.3C194.71 319.48 193.35 320.6 193.35 322.38C193.35 324.08 194.57 325.24 196.63 325.24ZM196.95 324.12C195.63 324.12 194.75 323.52 194.75 322.34C194.75 321.26 195.49 320.46 197.31 320.3L200.17 320.08V320.6C200.17 322.7 198.99 324.12 196.95 324.12ZM203.639 319.88C203.639 322.52 205.319 324.7 208.079 324.7C209.739 324.7 211.079 323.9 211.739 322.54V324.84C211.739 326.86 210.419 328.2 208.439 328.2C206.699 328.2 205.499 327.28 205.199 325.72H203.819C204.199 328.06 205.939 329.46 208.419 329.46C211.259 329.46 213.099 327.58 213.099 324.7V315.32H211.899L211.759 317.26C211.139 315.84 209.859 315.06 208.179 315.06C205.339 315.06 203.639 317.24 203.639 319.88ZM205.019 319.86C205.019 317.9 206.219 316.28 208.299 316.28C210.419 316.28 211.619 317.8 211.619 319.86C211.619 321.94 210.379 323.46 208.279 323.46C206.239 323.46 205.019 321.84 205.019 319.86ZM220.039 325.24C222.319 325.24 223.819 324.14 224.339 322.1H223.019C222.659 323.38 221.639 324.06 220.059 324.06C217.979 324.06 216.739 322.7 216.639 320.34H224.339V319.66C224.339 316.92 222.559 315.06 219.939 315.06C217.179 315.06 215.299 317.14 215.299 320.16C215.299 323.2 217.199 325.24 220.039 325.24ZM219.939 316.24C221.759 316.24 222.959 317.48 222.959 319.34H216.679C216.919 317.44 218.119 316.24 219.939 316.24ZM231.605 315.2C231.265 315.12 231.005 315.1 230.705 315.1C229.345 315.1 228.325 315.78 227.945 316.82L227.845 315.32H226.545V325H227.925V319.48C227.925 317.64 229.065 316.44 230.845 316.44H231.605V315.2Z" fill="#303030"/>
<circle cx="25" cy="317" r="25" fill="#DADADA"/>
<path d="M13.625 304.75C13.3929 304.75 13.1704 304.842 13.0063 305.006C12.8422 305.17 12.75 305.393 12.75 305.625V310.875C12.75 311.107 12.6578 311.33 12.4937 311.494C12.3296 311.658 12.1071 311.75 11.875 311.75C11.6429 311.75 11.4204 311.658 11.2563 311.494C11.0922 311.33 11 311.107 11 310.875V305.625C11 304.929 11.2766 304.261 11.7688 303.769C12.2611 303.277 12.9288 303 13.625 303H18.875C19.1071 303 19.3296 303.092 19.4937 303.256C19.6578 303.42 19.75 303.643 19.75 303.875C19.75 304.107 19.6578 304.33 19.4937 304.494C19.3296 304.658 19.1071 304.75 18.875 304.75H13.625ZM30.25 303.875C30.25 303.643 30.3422 303.42 30.5063 303.256C30.6704 303.092 30.8929 303 31.125 303H36.375C37.0712 303 37.7389 303.277 38.2312 303.769C38.7234 304.261 39 304.929 39 305.625V310.875C39 311.107 38.9078 311.33 38.7437 311.494C38.5796 311.658 38.3571 311.75 38.125 311.75C37.8929 311.75 37.6704 311.658 37.5063 311.494C37.3422 311.33 37.25 311.107 37.25 310.875V305.625C37.25 305.393 37.1578 305.17 36.9937 305.006C36.8296 304.842 36.6071 304.75 36.375 304.75H31.125C30.8929 304.75 30.6704 304.658 30.5063 304.494C30.3422 304.33 30.25 304.107 30.25 303.875ZM11.875 322.25C12.1071 322.25 12.3296 322.342 12.4937 322.506C12.6578 322.67 12.75 322.893 12.75 323.125V328.375C12.75 328.607 12.8422 328.83 13.0063 328.994C13.1704 329.158 13.3929 329.25 13.625 329.25H18.875C19.1071 329.25 19.3296 329.342 19.4937 329.506C19.6578 329.67 19.75 329.893 19.75 330.125C19.75 330.357 19.6578 330.58 19.4937 330.744C19.3296 330.908 19.1071 331 18.875 331H13.625C12.9288 331 12.2611 330.723 11.7688 330.231C11.2766 329.739 11 329.071 11 328.375V323.125C11 322.893 11.0922 322.67 11.2563 322.506C11.4204 322.342 11.6429 322.25 11.875 322.25ZM38.125 322.25C38.3571 322.25 38.5796 322.342 38.7437 322.506C38.9078 322.67 39 322.893 39 323.125V328.375C39 329.071 38.7234 329.739 38.2312 330.231C37.7389 330.723 37.0712 331 36.375 331H31.125C30.8929 331 30.6704 330.908 30.5063 330.744C30.3422 330.58 30.25 330.357 30.25 330.125C30.25 329.893 30.3422 329.67 30.5063 329.506C30.6704 329.342 30.8929 329.25 31.125 329.25H36.375C36.6071 329.25 36.8296 329.158 36.9937 328.994C37.1578 328.83 37.25 328.607 37.25 328.375V323.125C37.25 322.893 37.3422 322.67 37.5063 322.506C37.6704 322.342 37.8929 322.25 38.125 322.25Z" fill="#303030"/>
<path d="M30.945 319.464C30.2606 318.779 29.4609 318.22 28.5825 317.812C29.8212 316.809 30.6114 315.277 30.6114 313.56C30.6114 310.531 28.0848 308.045 25.0551 308.091C22.0719 308.138 19.6684 310.569 19.6684 313.56C19.6684 315.277 20.4614 316.809 21.6973 317.812C20.8188 318.219 20.019 318.778 19.3348 319.464C17.8419 320.959 16.9942 322.934 16.9395 325.039C16.9388 325.068 16.9439 325.097 16.9546 325.125C16.9652 325.152 16.9812 325.176 17.0016 325.197C17.022 325.218 17.0464 325.235 17.0733 325.246C17.1002 325.258 17.1291 325.263 17.1583 325.263H18.6895C18.8071 325.263 18.9055 325.17 18.9083 325.053C18.9602 323.467 19.6028 321.982 20.7321 320.856C21.31 320.275 21.9973 319.814 22.7544 319.5C23.5115 319.187 24.3232 319.027 25.1426 319.029C26.8079 319.029 28.3747 319.677 29.5532 320.856C30.6798 321.982 31.3223 323.467 31.377 325.053C31.3798 325.17 31.4782 325.263 31.5958 325.263H33.127C33.1562 325.263 33.1851 325.258 33.212 325.246C33.2389 325.235 33.2633 325.218 33.2837 325.197C33.3041 325.176 33.32 325.152 33.3307 325.125C33.3414 325.097 33.3465 325.068 33.3458 325.039C33.2911 322.934 32.4434 320.959 30.945 319.464ZM25.1426 317.06C24.2075 317.06 23.327 316.697 22.668 316.035C22.3373 315.707 22.0761 315.315 21.8999 314.884C21.7237 314.453 21.6362 313.99 21.6426 313.525C21.6508 312.628 22.0091 311.761 22.6352 311.118C23.2915 310.446 24.1692 310.071 25.1071 310.06C26.0341 310.052 26.9337 310.413 27.5954 311.061C28.2735 311.725 28.6454 312.614 28.6454 313.56C28.6454 314.495 28.2817 315.373 27.62 316.035C27.2953 316.361 26.9092 316.62 26.484 316.796C26.0588 316.972 25.6029 317.062 25.1426 317.06Z" fill="#303030"/>
<path fill-rule="evenodd" clip-rule="evenodd" d="M160.707 262.707C160.316 263.098 159.683 263.098 159.293 262.707L152.929 256.343C152.538 255.953 152.538 255.319 152.929 254.929C153.319 254.538 153.952 254.538 154.343 254.929L159 259.586V164.414L154.343 169.071C153.952 169.462 153.319 169.462 152.929 169.071C152.538 168.681 152.538 168.047 152.929 167.657L159.293 161.293C159.683 160.902 160.316 160.902 160.707 161.293L167.071 167.657C167.461 168.047 167.461 168.681 167.071 169.071C166.68 169.462 166.047 169.462 165.657 169.071L161 164.414V259.586L165.657 254.929C166.047 254.538 166.68 254.538 167.071 254.929C167.461 255.319 167.461 255.953 167.071 256.343L160.707 262.707Z" fill="#303030"/>
<path fill-rule="evenodd" clip-rule="evenodd" d="M572.929 167.657L579.293 161.293C579.683 160.902 580.316 160.902 580.707 161.293L587.071 167.657C587.461 168.047 587.461 168.681 587.071 169.071C586.68 169.462 586.047 169.462 585.657 169.071L581 164.414V262H579V164.414L574.343 169.071C573.952 169.462 573.319 169.462 572.929 169.071C572.538 168.681 572.538 168.047 572.929 167.657Z" fill="#303030"/>
<path fill-rule="evenodd" clip-rule="evenodd" d="M289.293 317.707C288.902 317.316 288.902 316.683 289.293 316.293L295.657 309.929C296.047 309.538 296.681 309.538 297.071 309.929C297.462 310.319 297.462 310.952 297.071 311.343L292.414 316H387.586L382.929 311.343C382.538 310.952 382.538 310.319 382.929 309.929C383.319 309.538 383.953 309.538 384.343 309.929L390.707 316.293C391.098 316.683 391.098 317.316 390.707 317.707L384.343 324.071C383.953 324.461 383.319 324.461 382.929 324.071C382.538 323.68 382.538 323.047 382.929 322.657L387.586 318H292.414L297.071 322.657C297.462 323.047 297.462 323.68 297.071 324.071C296.681 324.461 296.047 324.461 295.657 324.071L289.293 317.707Z" fill="#303030"/>
<path fill-rule="evenodd" clip-rule="evenodd" d="M289.293 107.707C288.902 107.316 288.902 106.683 289.293 106.293L295.657 99.9286C296.047 99.5381 296.681 99.5381 297.071 99.9286C297.462 100.319 297.462 100.952 297.071 101.343L292.414 106L390 106V108L292.414 108L297.071 112.657C297.462 113.047 297.462 113.68 297.071 114.071C296.681 114.461 296.047 114.461 295.657 114.071L289.293 107.707Z" fill="#303030"/>
<defs>
<clipPath id="clip0_1142_7641">
<rect width="34" height="34" fill="white" transform="translate(429 90)"/>
</clipPath>
</defs>
</svg>
