<svg width="455" height="342" viewBox="0 0 455 342" fill="none" xmlns="http://www.w3.org/2000/svg">
<path d="M144.952 16.216C144.952 10.864 141.448 7.144 136.432 7.144C131.416 7.144 127.936 10.888 127.936 16.216C127.936 21.568 131.392 25.288 136.408 25.288C141.448 25.288 144.952 21.544 144.952 16.216ZM141.712 16.216C141.712 19.912 139.648 22.336 136.432 22.336C133.216 22.336 131.152 19.96 131.152 16.216C131.152 12.472 133.216 10.096 136.432 10.096C139.648 10.096 141.712 12.472 141.712 16.216ZM155.419 13.144V19.36C155.419 21.616 154.531 22.696 152.683 22.696C151.051 22.696 150.163 21.784 150.163 19.528V13.144H147.235V20.56C147.235 23.464 148.843 25.312 151.579 25.312C153.163 25.312 154.699 24.544 155.419 23.416L155.635 25H158.347V13.144H155.419ZM165.403 25V15.592H167.707V13.144H165.403V9.448H162.475V13.144H160.195V15.592H162.475V25H165.403ZM168.616 21.4C168.616 23.728 170.488 25.312 173.44 25.312C176.368 25.312 178.408 23.824 178.408 21.424C178.408 19.6 177.4 18.688 175.408 18.232L173.272 17.728C172.264 17.488 171.736 17.056 171.736 16.384C171.736 15.496 172.408 14.968 173.56 14.968C174.688 14.968 175.36 15.616 175.384 16.624H178.168C178.144 14.32 176.344 12.784 173.68 12.784C170.944 12.784 168.976 14.176 168.976 16.504C168.976 18.4 170.008 19.408 172.144 19.888L174.28 20.392C175.336 20.632 175.648 21.064 175.648 21.664C175.648 22.528 174.904 23.08 173.536 23.08C172.192 23.08 171.424 22.432 171.4 21.4H168.616ZM184.669 25V15.592H186.973V13.144H184.669V9.448H181.741V13.144H179.461V15.592H181.741V25H184.669ZM192.251 25.312C194.099 25.312 195.707 24.472 196.211 23.248L196.427 25H198.995V17.8C198.995 14.512 197.027 12.784 193.835 12.784C190.619 12.784 188.507 14.464 188.507 17.032H191.003C191.003 15.784 191.963 15.064 193.691 15.064C195.179 15.064 196.139 15.712 196.139 17.32V17.584L192.587 17.848C189.779 18.064 188.195 19.432 188.195 21.616C188.195 23.848 189.731 25.312 192.251 25.312ZM193.211 23.104C191.891 23.104 191.171 22.576 191.171 21.496C191.171 20.536 191.867 19.936 193.691 19.768L196.163 19.576V20.2C196.163 22.024 195.011 23.104 193.211 23.104ZM200.649 13.144V15.592H202.353V25H205.257V15.592H210.105V25H213.009V15.592H217.857V25H220.785V13.144H213.009V11.704C213.009 10.528 213.369 9.76 214.689 9.76H215.697V7.264C215.193 7.168 214.665 7.144 214.185 7.144C211.785 7.144 210.105 8.488 210.105 11.704V13.144H205.257V11.704C205.257 10.528 205.593 9.76 207.081 9.76H208.113V7.264C207.609 7.168 207.057 7.144 206.601 7.144C204.033 7.144 202.353 8.488 202.353 11.704V13.144H200.649ZM219.321 10.648C220.305 10.648 221.073 9.88 221.073 8.896C221.073 7.912 220.305 7.144 219.321 7.144C218.337 7.144 217.593 7.912 217.593 8.896C217.593 9.88 218.337 10.648 219.321 10.648ZM226.737 25V18.616C226.737 16.696 227.841 15.448 229.641 15.448C231.153 15.448 232.137 16.408 232.137 18.4V25H235.065V17.704C235.065 14.632 233.529 12.784 230.553 12.784C228.945 12.784 227.505 13.48 226.761 14.68L226.521 13.144H223.809V25H226.737ZM237.27 18.808C237.27 22.24 239.478 24.76 242.838 24.76C244.542 24.76 246.006 24.064 246.75 22.96V24.928C246.75 26.896 245.454 28.168 243.438 28.168C241.638 28.168 240.462 27.256 240.27 25.72H237.342C237.702 28.888 240.03 30.832 243.438 30.832C247.278 30.832 249.654 28.36 249.654 24.4V13.144H246.942L246.774 14.776C246.078 13.504 244.686 12.76 242.91 12.76C239.526 12.76 237.27 15.352 237.27 18.808ZM240.222 18.736C240.222 16.792 241.47 15.328 243.414 15.328C245.454 15.328 246.678 16.72 246.678 18.736C246.678 20.8 245.43 22.216 243.414 22.216C241.494 22.216 240.222 20.728 240.222 18.736ZM262.561 25V18.712C262.561 16.528 262.537 14.872 262.369 13.816L266.809 25H269.641L274.105 13.792C273.937 15.04 273.937 16.072 273.937 19.6V25H276.913V7.456H273.889L268.225 21.424L262.561 7.456H259.585V25H262.561ZM279.668 19.048C279.668 22.744 282.332 25.288 286.004 25.288C289.676 25.288 292.34 22.744 292.34 19.048C292.34 15.352 289.676 12.808 286.004 12.808C282.332 12.808 279.668 15.352 279.668 19.048ZM282.596 19.048C282.596 16.888 283.988 15.424 286.004 15.424C288.02 15.424 289.412 16.888 289.412 19.048C289.412 21.208 288.02 22.672 286.004 22.672C283.988 22.672 282.596 21.208 282.596 19.048ZM299.532 25.312C301.332 25.312 302.868 24.52 303.588 23.152L303.78 25H306.468V7.144H303.564V14.656C302.82 13.48 301.356 12.784 299.7 12.784C296.124 12.784 293.964 15.424 293.964 19.12C293.964 22.792 296.1 25.312 299.532 25.312ZM300.18 22.624C298.14 22.624 296.892 21.136 296.892 19.024C296.892 16.912 298.14 15.4 300.18 15.4C302.22 15.4 303.54 16.888 303.54 19.024C303.54 21.16 302.22 22.624 300.18 22.624ZM314.824 25.312C317.92 25.312 320.08 23.752 320.584 21.16H317.872C317.536 22.288 316.48 22.912 314.872 22.912C312.928 22.912 311.824 21.856 311.608 19.768L320.536 19.744V18.856C320.536 15.16 318.28 12.784 314.728 12.784C311.248 12.784 308.824 15.352 308.824 19.072C308.824 22.744 311.296 25.312 314.824 25.312ZM314.752 15.184C316.504 15.184 317.632 16.264 317.632 17.896H311.68C311.968 16.12 313.024 15.184 314.752 15.184ZM325.831 25V7.144H322.927V25H325.831Z" fill="#303030"/>
<line x1="228" y1="309" x2="228" y2="324" stroke="#303030" stroke-width="2"/>
<line x1="220" y1="316" x2="235" y2="316" stroke="#303030" stroke-width="2"/>
<path d="M127.707 142.707C128.098 142.317 128.098 141.683 127.707 141.293L121.343 134.929C120.953 134.538 120.319 134.538 119.929 134.929C119.538 135.319 119.538 135.953 119.929 136.343L125.586 142L119.929 147.657C119.538 148.047 119.538 148.681 119.929 149.071C120.319 149.462 120.953 149.462 121.343 149.071L127.707 142.707ZM99.2929 212.707C99.6834 213.098 100.317 213.098 100.707 212.707L107.071 206.343C107.462 205.953 107.462 205.319 107.071 204.929C106.681 204.538 106.047 204.538 105.657 204.929L100 210.586L94.3431 204.929C93.9526 204.538 93.3195 204.538 92.9289 204.929C92.5384 205.319 92.5384 205.953 92.9289 206.343L99.2929 212.707ZM127 141H106V143H127V141ZM99 148V212H101V148H99ZM106 141C102.134 141 99 144.134 99 148H101C101 145.239 103.239 143 106 143V141Z" fill="#303030"/>
<path d="M327.293 142.707C326.902 142.317 326.902 141.683 327.293 141.293L333.657 134.929C334.047 134.538 334.681 134.538 335.071 134.929C335.462 135.319 335.462 135.953 335.071 136.343L329.414 142L335.071 147.657C335.462 148.047 335.462 148.681 335.071 149.071C334.681 149.462 334.047 149.462 333.657 149.071L327.293 142.707ZM355.707 212.707C355.317 213.098 354.683 213.098 354.293 212.707L347.929 206.343C347.538 205.953 347.538 205.319 347.929 204.929C348.319 204.538 348.953 204.538 349.343 204.929L355 210.586L360.657 204.929C361.047 204.538 361.681 204.538 362.071 204.929C362.462 205.319 362.462 205.953 362.071 206.343L355.707 212.707ZM328 141H349V143H328V141ZM356 148V212H354V148H356ZM349 141C352.866 141 356 144.134 356 148H354C354 145.239 351.761 143 349 143V141Z" fill="#303030"/>
<rect y="292" width="200" height="50" rx="25" fill="#DADADA"/>
<path d="M50.58 325.22C53.66 325.22 56.16 323.4 56.82 320.7H55.28C54.66 322.62 52.86 323.84 50.6 323.84C47.46 323.84 45.36 321.44 45.36 317.84C45.36 314.22 47.46 311.82 50.6 311.82C52.84 311.82 54.6 313.08 55.2 315.14H56.74C56.16 312.3 53.74 310.44 50.66 310.44C46.62 310.44 43.86 313.44 43.86 317.84C43.86 322.24 46.58 325.22 50.58 325.22ZM60.3527 325V310.42H58.9727V325H60.3527ZM63.9677 312.66C64.5277 312.66 65.0077 312.2 65.0077 311.64C65.0077 311.08 64.5277 310.6 63.9677 310.6C63.4077 310.6 62.9477 311.08 62.9477 311.64C62.9477 312.2 63.4077 312.66 63.9677 312.66ZM63.2877 325H64.6677V315.32H63.2877V325ZM71.6055 325.24C73.8855 325.24 75.3855 324.14 75.9055 322.1H74.5855C74.2255 323.38 73.2055 324.06 71.6255 324.06C69.5455 324.06 68.3055 322.7 68.2055 320.34H75.9055V319.66C75.9055 316.92 74.1255 315.06 71.5055 315.06C68.7455 315.06 66.8655 317.14 66.8655 320.16C66.8655 323.2 68.7655 325.24 71.6055 325.24ZM71.5055 316.24C73.3255 316.24 74.5255 317.48 74.5255 319.34H68.2455C68.4855 317.44 69.6855 316.24 71.5055 316.24ZM79.4919 325V319.94C79.4919 317.76 80.6119 316.32 82.5919 316.32C84.1919 316.32 85.2119 317.12 85.2119 319.38V325H86.5919V319.08C86.5919 316.64 85.4919 315.06 82.8319 315.06C81.4319 315.06 80.1519 315.76 79.5119 317L79.3119 315.32H78.1119V325H79.4919ZM91.5623 325V316.48H93.5023V315.32H91.5623V312.26H90.2023V315.32H88.2623V316.48H90.2023V325H91.5623ZM97.5394 311.96C97.5394 310.98 96.9394 310.4 96.2594 310.4C95.5594 310.4 95.0794 310.9 95.0794 311.58C95.0794 312.26 95.5394 312.64 96.0594 312.64C96.2994 312.64 96.4794 312.6 96.5994 312.52C96.5994 313.08 96.0794 313.58 95.3794 313.72V314.46C96.6194 314.28 97.5394 313.22 97.5394 311.96ZM98.5028 322.28C98.5028 324.08 99.8628 325.24 102.043 325.24C104.243 325.24 105.723 324.1 105.723 322.36C105.723 320.96 104.963 320.18 103.283 319.76L101.623 319.34C100.563 319.08 100.043 318.56 100.043 317.82C100.043 316.78 100.803 316.2 102.163 316.2C103.463 316.2 104.243 316.86 104.283 317.98H105.623C105.563 316.18 104.243 315.06 102.203 315.06C100.123 315.06 98.7028 316.14 98.7028 317.84C98.7028 319.16 99.5228 320.04 101.203 320.46L102.863 320.88C104.003 321.16 104.403 321.62 104.403 322.42C104.403 323.46 103.523 324.1 102.023 324.1C100.663 324.1 99.8228 323.4 99.8228 322.28H98.5028ZM115.762 325V316.48H117.702V315.32H115.762V312.26H114.402V315.32H112.462V316.48H114.402V325H115.762ZM123.461 325.24C125.741 325.24 127.241 324.14 127.761 322.1H126.441C126.081 323.38 125.061 324.06 123.481 324.06C121.401 324.06 120.161 322.7 120.061 320.34H127.761V319.66C127.761 316.92 125.981 315.06 123.361 315.06C120.601 315.06 118.721 317.14 118.721 320.16C118.721 323.2 120.621 325.24 123.461 325.24ZM123.361 316.24C125.181 316.24 126.381 317.48 126.381 319.34H120.101C120.341 317.44 121.541 316.24 123.361 316.24ZM132.65 325.24C134.29 325.24 135.61 324.52 136.21 323.3L136.39 325H137.55V318.74C137.55 316.18 135.91 315.06 133.67 315.06C131.29 315.06 129.69 316.32 129.69 318.28H130.95C130.95 316.98 131.95 316.22 133.63 316.22C135.05 316.22 136.19 316.82 136.19 318.72V319.04L132.99 319.3C130.73 319.48 129.37 320.6 129.37 322.38C129.37 324.08 130.59 325.24 132.65 325.24ZM132.97 324.12C131.65 324.12 130.77 323.52 130.77 322.34C130.77 321.26 131.51 320.46 133.33 320.3L136.19 320.08V320.6C136.19 322.7 135.01 324.12 132.97 324.12ZM141.699 325V319C141.699 317.52 142.679 316.32 144.299 316.32C145.759 316.32 146.699 317.28 146.699 318.92V325H148.059V319.02C148.059 317.52 149.019 316.3 150.639 316.3C152.119 316.3 153.039 317.28 153.039 318.94V325H154.379V318.66C154.379 316.42 152.999 315.06 150.899 315.06C149.339 315.06 148.159 315.86 147.719 317.12C147.259 315.86 146.119 315.06 144.599 315.06C143.239 315.06 142.159 315.68 141.679 316.7L141.519 315.32H140.319V325H141.699Z" fill="#303030"/>
<circle cx="100" cy="257" r="25" fill="#DADADA"/>
<path d="M110.561 263.555C109.755 262.748 108.812 262.089 107.777 261.609C109.237 260.426 110.168 258.621 110.168 256.597C110.168 253.027 107.19 250.097 103.62 250.152C100.104 250.207 97.271 253.072 97.271 256.597C97.271 258.621 98.2055 260.426 99.6622 261.609C98.6268 262.089 97.6842 262.748 96.8778 263.555C95.1182 265.318 94.1192 267.645 94.0548 270.126C94.0539 270.161 94.0599 270.195 94.0725 270.227C94.0851 270.259 94.1039 270.288 94.128 270.313C94.152 270.337 94.1807 270.357 94.2124 270.37C94.2441 270.384 94.2782 270.39 94.3126 270.39H96.1173C96.2558 270.39 96.3719 270.281 96.3751 270.142C96.4363 268.273 97.1936 266.523 98.5246 265.195C99.2057 264.511 100.016 263.968 100.908 263.598C101.8 263.229 102.757 263.04 103.723 263.043C105.685 263.043 107.532 263.807 108.921 265.195C110.249 266.523 111.006 268.273 111.07 270.142C111.074 270.281 111.19 270.39 111.328 270.39H113.133C113.167 270.39 113.201 270.384 113.233 270.37C113.265 270.357 113.293 270.337 113.318 270.313C113.342 270.288 113.36 270.259 113.373 270.227C113.386 270.195 113.392 270.161 113.391 270.126C113.326 267.645 112.327 265.318 110.561 263.555ZM103.723 260.722C102.621 260.722 101.583 260.294 100.806 259.514C100.416 259.127 100.109 258.666 99.9009 258.158C99.6933 257.649 99.5902 257.105 99.5977 256.556C99.6074 255.499 100.03 254.477 100.768 253.72C101.541 252.927 102.575 252.485 103.681 252.472C104.773 252.463 105.834 252.888 106.613 253.652C107.413 254.435 107.851 255.482 107.851 256.597C107.851 257.7 107.422 258.734 106.642 259.514C106.26 259.898 105.805 260.203 105.304 260.411C104.802 260.618 104.265 260.724 103.723 260.722ZM95.65 257.448C95.621 257.168 95.6049 256.884 95.6049 256.597C95.6049 256.085 95.6532 255.586 95.7434 255.099C95.766 254.983 95.7048 254.864 95.5984 254.815C95.1601 254.619 94.7573 254.348 94.4093 254.006C93.9991 253.609 93.6764 253.13 93.4617 252.601C93.247 252.071 93.1449 251.503 93.1621 250.932C93.1911 249.898 93.6068 248.915 94.3319 248.173C95.1279 247.358 96.1978 246.913 97.3354 246.926C98.3635 246.936 99.356 247.332 100.107 248.035C100.362 248.273 100.581 248.538 100.764 248.821C100.829 248.921 100.954 248.963 101.064 248.924C101.631 248.728 102.231 248.589 102.846 248.525C103.027 248.505 103.13 248.312 103.049 248.151C102.002 246.079 99.862 244.648 97.387 244.609C93.8131 244.554 90.8353 247.484 90.8353 251.051C90.8353 253.075 91.7667 254.88 93.2265 256.062C92.2017 256.536 91.2575 257.19 90.4389 258.009C88.6729 259.772 87.6739 262.099 87.6095 264.583C87.6086 264.618 87.6146 264.652 87.6272 264.684C87.6398 264.716 87.6586 264.745 87.6826 264.77C87.7067 264.794 87.7354 264.814 87.7671 264.827C87.7988 264.841 87.8329 264.847 87.8673 264.847H89.6752C89.8138 264.847 89.9298 264.738 89.933 264.599C89.9942 262.73 90.7515 260.98 92.0825 259.653C93.03 258.705 94.1901 258.048 95.4566 257.729C95.5823 257.696 95.6661 257.577 95.65 257.448Z" fill="#303030"/>
<rect x="147" y="122" width="160" height="50" rx="25" fill="#28C0E2"/>
<path d="M204.24 153.192C207.008 153.192 209.152 151.56 209.6 149.096H207.472C207.088 150.392 205.872 151.224 204.288 151.224C202.144 151.224 200.768 149.624 200.768 147.144C200.768 144.648 202.128 143.08 204.288 143.08C205.84 143.08 207.008 143.88 207.408 145.24H209.568C209.168 142.728 207.104 141.112 204.336 141.112C200.912 141.112 198.624 143.528 198.624 147.16C198.624 150.824 200.832 153.192 204.24 153.192ZM213.485 141.304H211.437V153H218.381V151.112H213.485V141.304ZM222.094 141.304H220.046V153H222.094V141.304ZM231.951 153V151.112H226.735V148.008H231.407V146.2H226.735V143.192H231.951V141.304H224.687V153H231.951ZM236.187 153V144.712L241.691 153H243.707V141.304H241.691V149.592L236.203 141.304H234.171V153H236.187ZM245.272 143.192H248.696V153H250.744V143.192H254.168V141.304H245.272V143.192Z" fill="#FDFDFD"/>
<circle cx="227" cy="87" r="25" fill="#28C0E2"/>
<path d="M234.507 89.4038C233.7 88.5965 232.757 87.9376 231.722 87.4573C233.182 86.2746 234.113 84.4699 234.113 82.4461C234.113 78.8754 231.136 75.946 227.565 76.0008C224.049 76.0555 221.216 78.9205 221.216 82.4461C221.216 84.4699 222.151 86.2746 223.608 87.4573C222.572 87.9372 221.63 88.5962 220.823 89.4038C219.064 91.1666 218.065 93.4933 218 95.9748C217.999 96.0092 218.005 96.0434 218.018 96.0754C218.03 96.1074 218.049 96.1366 218.073 96.1613C218.097 96.1859 218.126 96.2055 218.158 96.2188C218.189 96.2322 218.223 96.239 218.258 96.239H220.063C220.201 96.239 220.317 96.1295 220.32 95.9909C220.382 94.1217 221.139 92.3718 222.47 91.0441C223.151 90.3594 223.961 89.8166 224.853 89.4471C225.746 89.0776 226.702 88.8887 227.668 88.8914C229.631 88.8914 231.477 89.6551 232.866 91.0441C234.194 92.3718 234.951 94.1217 235.016 95.9909C235.019 96.1295 235.135 96.239 235.274 96.239H237.078C237.113 96.239 237.147 96.2322 237.178 96.2188C237.21 96.2055 237.239 96.1859 237.263 96.1613C237.287 96.1366 237.306 96.1074 237.318 96.0754C237.331 96.0434 237.337 96.0092 237.336 95.9748C237.272 93.4933 236.273 91.1666 234.507 89.4038ZM227.668 86.5711C226.566 86.5711 225.528 86.1425 224.752 85.3626C224.362 84.9759 224.054 84.5146 223.846 84.0063C223.639 83.4981 223.536 82.9532 223.543 82.4042C223.553 81.3471 223.975 80.3256 224.713 79.5682C225.486 78.7755 226.521 78.334 227.626 78.3211C228.719 78.3114 229.779 78.7368 230.559 79.5006C231.358 80.2837 231.796 81.331 231.796 82.4461C231.796 83.5482 231.368 84.5827 230.588 85.3626C230.205 85.747 229.75 86.0518 229.249 86.2592C228.748 86.4666 228.21 86.5726 227.668 86.5711Z" fill="#FDFDFD"/>
<rect x="255" y="292" width="200" height="50" rx="25" fill="#DADADA"/>
<path d="M299.32 325V323.68H292.18V318.46H298.64V317.16H292.18V312H299.3V310.68H290.74V325H299.32ZM302.324 325L305.024 321.12L307.744 325H309.384L305.964 320.18L309.404 315.32H307.804L305.084 319.2L302.344 315.32H300.724L304.164 320.16L300.704 325H302.324ZM313.656 325V316.48H315.596V315.32H313.656V312.26H312.296V315.32H310.356V316.48H312.296V325H313.656ZM321.355 325.24C323.635 325.24 325.135 324.14 325.655 322.1H324.335C323.975 323.38 322.955 324.06 321.375 324.06C319.295 324.06 318.055 322.7 317.955 320.34H325.655V319.66C325.655 316.92 323.875 315.06 321.255 315.06C318.495 315.06 316.615 317.14 316.615 320.16C316.615 323.2 318.515 325.24 321.355 325.24ZM321.255 316.24C323.075 316.24 324.275 317.48 324.275 319.34H317.995C318.235 317.44 319.435 316.24 321.255 316.24ZM329.242 325V319.94C329.242 317.76 330.362 316.32 332.342 316.32C333.942 316.32 334.962 317.12 334.962 319.38V325H336.342V319.08C336.342 316.64 335.242 315.06 332.582 315.06C331.182 315.06 329.902 315.76 329.262 317L329.062 315.32H327.862V325H329.242ZM342.892 325.24C344.512 325.24 345.872 324.52 346.552 323.02L346.692 325H347.892V310.42H346.512V317.16C345.832 315.76 344.552 315.06 342.952 315.06C340.072 315.06 338.412 317.26 338.412 320.18C338.412 323.08 340.072 325.24 342.892 325.24ZM343.132 323.98C341.032 323.98 339.812 322.38 339.812 320.14C339.812 317.92 341.032 316.3 343.132 316.3C345.252 316.3 346.492 317.92 346.492 320.14C346.492 322.38 345.252 323.98 343.132 323.98ZM354.832 325.24C357.112 325.24 358.612 324.14 359.132 322.1H357.812C357.452 323.38 356.432 324.06 354.852 324.06C352.772 324.06 351.532 322.7 351.432 320.34H359.132V319.66C359.132 316.92 357.352 315.06 354.732 315.06C351.972 315.06 350.092 317.14 350.092 320.16C350.092 323.2 351.992 325.24 354.832 325.24ZM354.732 316.24C356.552 316.24 357.752 317.48 357.752 319.34H351.472C351.712 317.44 352.912 316.24 354.732 316.24ZM365.138 325.24C366.758 325.24 368.118 324.52 368.798 323.02L368.938 325H370.138V310.42H368.758V317.16C368.078 315.76 366.798 315.06 365.198 315.06C362.318 315.06 360.658 317.26 360.658 320.18C360.658 323.08 362.318 325.24 365.138 325.24ZM365.378 323.98C363.278 323.98 362.058 322.38 362.058 320.14C362.058 317.92 363.278 316.3 365.378 316.3C367.498 316.3 368.738 317.92 368.738 320.14C368.738 322.38 367.498 323.98 365.378 323.98ZM380.785 325V316.48H382.725V315.32H380.785V312.26H379.425V315.32H377.485V316.48H379.425V325H380.785ZM388.484 325.24C390.764 325.24 392.264 324.14 392.784 322.1H391.464C391.104 323.38 390.084 324.06 388.504 324.06C386.424 324.06 385.184 322.7 385.084 320.34H392.784V319.66C392.784 316.92 391.004 315.06 388.384 315.06C385.624 315.06 383.744 317.14 383.744 320.16C383.744 323.2 385.644 325.24 388.484 325.24ZM388.384 316.24C390.204 316.24 391.404 317.48 391.404 319.34H385.124C385.364 317.44 386.564 316.24 388.384 316.24ZM397.673 325.24C399.313 325.24 400.633 324.52 401.233 323.3L401.413 325H402.573V318.74C402.573 316.18 400.933 315.06 398.693 315.06C396.313 315.06 394.713 316.32 394.713 318.28H395.973C395.973 316.98 396.973 316.22 398.653 316.22C400.073 316.22 401.213 316.82 401.213 318.72V319.04L398.013 319.3C395.753 319.48 394.393 320.6 394.393 322.38C394.393 324.08 395.613 325.24 397.673 325.24ZM397.993 324.12C396.673 324.12 395.793 323.52 395.793 322.34C395.793 321.26 396.533 320.46 398.353 320.3L401.213 320.08V320.6C401.213 322.7 400.033 324.12 397.993 324.12ZM406.722 325V319C406.722 317.52 407.702 316.32 409.322 316.32C410.782 316.32 411.722 317.28 411.722 318.92V325H413.082V319.02C413.082 317.52 414.042 316.3 415.662 316.3C417.142 316.3 418.062 317.28 418.062 318.94V325H419.402V318.66C419.402 316.42 418.022 315.06 415.922 315.06C414.362 315.06 413.182 315.86 412.742 317.12C412.282 315.86 411.142 315.06 409.622 315.06C408.262 315.06 407.182 315.68 406.702 316.7L406.542 315.32H405.342V325H406.722Z" fill="#303030"/>
<circle cx="355" cy="257" r="25" fill="#DADADA"/>
<path d="M365.561 263.555C364.755 262.748 363.812 262.089 362.777 261.609C364.237 260.426 365.168 258.621 365.168 256.597C365.168 253.027 362.19 250.097 358.62 250.152C355.104 250.207 352.271 253.072 352.271 256.597C352.271 258.621 353.206 260.426 354.662 261.609C353.627 262.089 352.684 262.748 351.878 263.555C350.118 265.318 349.119 267.645 349.055 270.126C349.054 270.161 349.06 270.195 349.073 270.227C349.085 270.259 349.104 270.288 349.128 270.313C349.152 270.337 349.181 270.357 349.212 270.37C349.244 270.384 349.278 270.39 349.313 270.39H351.117C351.256 270.39 351.372 270.281 351.375 270.142C351.436 268.273 352.194 266.523 353.525 265.195C354.206 264.511 355.016 263.968 355.908 263.598C356.8 263.229 357.757 263.04 358.723 263.043C360.685 263.043 362.532 263.807 363.921 265.195C365.249 266.523 366.006 268.273 366.07 270.142C366.074 270.281 366.19 270.39 366.328 270.39H368.133C368.167 270.39 368.201 270.384 368.233 270.37C368.265 270.357 368.293 270.337 368.318 270.313C368.342 270.288 368.36 270.259 368.373 270.227C368.386 270.195 368.392 270.161 368.391 270.126C368.326 267.645 367.327 265.318 365.561 263.555ZM358.723 260.722C357.621 260.722 356.583 260.294 355.806 259.514C355.416 259.127 355.109 258.666 354.901 258.158C354.693 257.649 354.59 257.105 354.598 256.556C354.607 255.499 355.03 254.477 355.768 253.72C356.541 252.927 357.575 252.485 358.681 252.472C359.773 252.463 360.834 252.888 361.613 253.652C362.413 254.435 362.851 255.482 362.851 256.597C362.851 257.7 362.422 258.734 361.642 259.514C361.26 259.898 360.805 260.203 360.304 260.411C359.802 260.618 359.265 260.724 358.723 260.722ZM350.65 257.448C350.621 257.168 350.605 256.884 350.605 256.597C350.605 256.085 350.653 255.586 350.743 255.099C350.766 254.983 350.705 254.864 350.598 254.815C350.16 254.619 349.757 254.348 349.409 254.006C348.999 253.609 348.676 253.13 348.462 252.601C348.247 252.071 348.145 251.503 348.162 250.932C348.191 249.898 348.607 248.915 349.332 248.173C350.128 247.358 351.198 246.913 352.335 246.926C353.363 246.936 354.356 247.332 355.107 248.035C355.362 248.273 355.581 248.538 355.764 248.821C355.829 248.921 355.954 248.963 356.064 248.924C356.631 248.728 357.231 248.589 357.846 248.525C358.027 248.505 358.13 248.312 358.049 248.151C357.002 246.079 354.862 244.648 352.387 244.609C348.813 244.554 345.835 247.484 345.835 251.051C345.835 253.075 346.767 254.88 348.227 256.062C347.202 256.536 346.258 257.19 345.439 258.009C343.673 259.772 342.674 262.099 342.609 264.583C342.609 264.618 342.615 264.652 342.627 264.684C342.64 264.716 342.659 264.745 342.683 264.77C342.707 264.794 342.735 264.814 342.767 264.827C342.799 264.841 342.833 264.847 342.867 264.847H344.675C344.814 264.847 344.93 264.738 344.933 264.599C344.994 262.73 345.752 260.98 347.083 259.653C348.03 258.705 349.19 258.048 350.457 257.729C350.582 257.696 350.666 257.577 350.65 257.448Z" fill="#303030"/>
</svg>
