<svg width="600" height="282" viewBox="0 0 600 282" fill="none" xmlns="http://www.w3.org/2000/svg">
<path d="M135.36 25.288C139.512 25.288 142.728 22.84 143.4 19.144H140.208C139.632 21.088 137.808 22.336 135.432 22.336C132.216 22.336 130.152 19.936 130.152 16.216C130.152 12.472 132.192 10.12 135.432 10.12C137.76 10.12 139.512 11.32 140.112 13.36H143.352C142.752 9.592 139.656 7.168 135.504 7.168C130.368 7.168 126.936 10.792 126.936 16.24C126.936 21.736 130.248 25.288 135.36 25.288ZM145.027 19.048C145.027 22.744 147.691 25.288 151.363 25.288C155.035 25.288 157.699 22.744 157.699 19.048C157.699 15.352 155.035 12.808 151.363 12.808C147.691 12.808 145.027 15.352 145.027 19.048ZM147.955 19.048C147.955 16.888 149.347 15.424 151.363 15.424C153.379 15.424 154.771 16.888 154.771 19.048C154.771 21.208 153.379 22.672 151.363 22.672C149.347 22.672 147.955 21.208 147.955 19.048ZM162.948 25V18.28C162.948 16.36 164.076 15.448 165.468 15.448C166.86 15.448 167.748 16.336 167.748 17.992V25H170.676V18.28C170.676 16.336 171.756 15.424 173.172 15.424C174.564 15.424 175.476 16.312 175.476 18.016V25H178.38V17.248C178.38 14.512 176.796 12.784 173.916 12.784C172.116 12.784 170.724 13.672 170.124 15.04C169.5 13.672 168.252 12.784 166.452 12.784C164.748 12.784 163.548 13.552 162.948 14.536L162.708 13.144H160.02V25H162.948ZM184.182 25V18.28C184.182 16.36 185.31 15.448 186.702 15.448C188.094 15.448 188.982 16.336 188.982 17.992V25H191.91V18.28C191.91 16.336 192.99 15.424 194.406 15.424C195.798 15.424 196.71 16.312 196.71 18.016V25H199.614V17.248C199.614 14.512 198.03 12.784 195.15 12.784C193.35 12.784 191.958 13.672 191.358 15.04C190.734 13.672 189.486 12.784 187.686 12.784C185.982 12.784 184.782 13.552 184.182 14.536L183.942 13.144H181.254V25H184.182ZM210.529 13.144V19.36C210.529 21.616 209.641 22.696 207.793 22.696C206.161 22.696 205.273 21.784 205.273 19.528V13.144H202.345V20.56C202.345 23.464 203.953 25.312 206.689 25.312C208.273 25.312 209.809 24.544 210.529 23.416L210.745 25H213.457V13.144H210.529ZM219.409 25V18.616C219.409 16.696 220.513 15.448 222.313 15.448C223.825 15.448 224.809 16.408 224.809 18.4V25H227.737V17.704C227.737 14.632 226.201 12.784 223.225 12.784C221.617 12.784 220.177 13.48 219.433 14.68L219.193 13.144H216.481V25H219.409ZM232.078 10.768C233.038 10.768 233.83 9.976 233.83 8.992C233.83 8.008 233.038 7.24 232.078 7.24C231.07 7.24 230.278 8.008 230.278 8.992C230.278 9.976 231.07 10.768 232.078 10.768ZM230.614 25H233.542V13.144H230.614V25ZM235.871 19.048C235.871 22.816 238.223 25.312 241.823 25.312C244.919 25.312 247.223 23.416 247.583 20.656H244.631C244.319 21.952 243.287 22.672 241.823 22.672C239.951 22.672 238.799 21.28 238.799 19.048C238.799 16.816 240.047 15.4 241.919 15.4C243.311 15.4 244.295 16.096 244.631 17.44H247.559C247.247 14.584 245.039 12.784 241.799 12.784C238.295 12.784 235.871 15.376 235.871 19.048ZM253.29 25.312C255.138 25.312 256.746 24.472 257.25 23.248L257.466 25H260.034V17.8C260.034 14.512 258.066 12.784 254.874 12.784C251.658 12.784 249.546 14.464 249.546 17.032H252.042C252.042 15.784 253.002 15.064 254.73 15.064C256.218 15.064 257.178 15.712 257.178 17.32V17.584L253.626 17.848C250.818 18.064 249.234 19.432 249.234 21.616C249.234 23.848 250.77 25.312 253.29 25.312ZM254.25 23.104C252.93 23.104 252.21 22.576 252.21 21.496C252.21 20.536 252.906 19.936 254.73 19.768L257.202 19.576V20.2C257.202 22.024 256.05 23.104 254.25 23.104ZM266.778 25V15.592H269.082V13.144H266.778V9.448H263.85V13.144H261.57V15.592H263.85V25H266.778ZM272.367 10.768C273.327 10.768 274.119 9.976 274.119 8.992C274.119 8.008 273.327 7.24 272.367 7.24C271.359 7.24 270.567 8.008 270.567 8.992C270.567 9.976 271.359 10.768 272.367 10.768ZM270.903 25H273.831V13.144H270.903V25ZM276.16 19.048C276.16 22.744 278.824 25.288 282.496 25.288C286.168 25.288 288.832 22.744 288.832 19.048C288.832 15.352 286.168 12.808 282.496 12.808C278.824 12.808 276.16 15.352 276.16 19.048ZM279.088 19.048C279.088 16.888 280.48 15.424 282.496 15.424C284.512 15.424 285.904 16.888 285.904 19.048C285.904 21.208 284.512 22.672 282.496 22.672C280.48 22.672 279.088 21.208 279.088 19.048ZM294.081 25V18.616C294.081 16.696 295.185 15.448 296.985 15.448C298.497 15.448 299.481 16.408 299.481 18.4V25H302.409V17.704C302.409 14.632 300.873 12.784 297.897 12.784C296.289 12.784 294.849 13.48 294.105 14.68L293.865 13.144H291.153V25H294.081ZM313.218 10.768C314.178 10.768 314.97 9.976 314.97 8.992C314.97 8.008 314.178 7.24 313.218 7.24C312.21 7.24 311.418 8.008 311.418 8.992C311.418 9.976 312.21 10.768 313.218 10.768ZM311.754 25H314.682V13.144H311.754V25ZM320.635 25V18.616C320.635 16.696 321.739 15.448 323.539 15.448C325.051 15.448 326.035 16.408 326.035 18.4V25H328.963V17.704C328.963 14.632 327.427 12.784 324.451 12.784C322.843 12.784 321.403 13.48 320.659 14.68L320.419 13.144H317.707V25H320.635ZM354.749 16.216C354.749 10.864 351.245 7.144 346.229 7.144C341.213 7.144 337.733 10.888 337.733 16.216C337.733 21.568 341.189 25.288 346.205 25.288C351.245 25.288 354.749 21.544 354.749 16.216ZM351.509 16.216C351.509 19.912 349.445 22.336 346.229 22.336C343.013 22.336 340.949 19.96 340.949 16.216C340.949 12.472 343.013 10.096 346.229 10.096C349.445 10.096 351.509 12.472 351.509 16.216ZM365.216 13.144V19.36C365.216 21.616 364.328 22.696 362.48 22.696C360.848 22.696 359.96 21.784 359.96 19.528V13.144H357.032V20.56C357.032 23.464 358.64 25.312 361.376 25.312C362.96 25.312 364.496 24.544 365.216 23.416L365.432 25H368.144V13.144H365.216ZM375.2 25V15.592H377.504V13.144H375.2V9.448H372.272V13.144H369.992V15.592H372.272V25H375.2ZM378.413 21.4C378.413 23.728 380.285 25.312 383.237 25.312C386.165 25.312 388.205 23.824 388.205 21.424C388.205 19.6 387.197 18.688 385.205 18.232L383.069 17.728C382.061 17.488 381.533 17.056 381.533 16.384C381.533 15.496 382.205 14.968 383.357 14.968C384.485 14.968 385.157 15.616 385.181 16.624H387.965C387.941 14.32 386.141 12.784 383.477 12.784C380.741 12.784 378.773 14.176 378.773 16.504C378.773 18.4 379.805 19.408 381.941 19.888L384.077 20.392C385.133 20.632 385.445 21.064 385.445 21.664C385.445 22.528 384.701 23.08 383.333 23.08C381.989 23.08 381.221 22.432 381.197 21.4H378.413ZM389.738 19.048C389.738 22.744 392.402 25.288 396.074 25.288C399.746 25.288 402.41 22.744 402.41 19.048C402.41 15.352 399.746 12.808 396.074 12.808C392.402 12.808 389.738 15.352 389.738 19.048ZM392.666 19.048C392.666 16.888 394.058 15.424 396.074 15.424C398.09 15.424 399.482 16.888 399.482 19.048C399.482 21.208 398.09 22.672 396.074 22.672C394.058 22.672 392.666 21.208 392.666 19.048ZM412.49 13.144V19.36C412.49 21.616 411.602 22.696 409.754 22.696C408.122 22.696 407.234 21.784 407.234 19.528V13.144H404.306V20.56C404.306 23.464 405.914 25.312 408.65 25.312C410.234 25.312 411.77 24.544 412.49 23.416L412.706 25H415.418V13.144H412.49ZM425.882 13.096C425.402 12.976 424.994 12.928 424.586 12.928C423.002 12.928 421.874 13.72 421.37 14.896L421.202 13.168H418.442V25H421.37V19.24C421.37 16.936 422.69 15.808 424.802 15.808H425.882V13.096ZM426.769 19.048C426.769 22.816 429.121 25.312 432.721 25.312C435.817 25.312 438.121 23.416 438.481 20.656H435.529C435.217 21.952 434.185 22.672 432.721 22.672C430.849 22.672 429.697 21.28 429.697 19.048C429.697 16.816 430.945 15.4 432.817 15.4C434.209 15.4 435.193 16.096 435.529 17.44H438.457C438.145 14.584 435.937 12.784 432.697 12.784C429.193 12.784 426.769 15.376 426.769 19.048ZM442.124 10.768C443.084 10.768 443.876 9.976 443.876 8.992C443.876 8.008 443.084 7.24 442.124 7.24C441.116 7.24 440.324 8.008 440.324 8.992C440.324 9.976 441.116 10.768 442.124 10.768ZM440.66 25H443.588V13.144H440.66V25ZM449.542 25V18.616C449.542 16.696 450.646 15.448 452.446 15.448C453.958 15.448 454.942 16.408 454.942 18.4V25H457.87V17.704C457.87 14.632 456.334 12.784 453.358 12.784C451.75 12.784 450.31 13.48 449.566 14.68L449.326 13.144H446.614V25H449.542ZM460.074 18.808C460.074 22.24 462.282 24.76 465.642 24.76C467.346 24.76 468.81 24.064 469.554 22.96V24.928C469.554 26.896 468.258 28.168 466.242 28.168C464.442 28.168 463.266 27.256 463.074 25.72H460.146C460.506 28.888 462.834 30.832 466.242 30.832C470.082 30.832 472.458 28.36 472.458 24.4V13.144H469.746L469.578 14.776C468.882 13.504 467.49 12.76 465.714 12.76C462.33 12.76 460.074 15.352 460.074 18.808ZM463.026 18.736C463.026 16.792 464.274 15.328 466.218 15.328C468.258 15.328 469.482 16.72 469.482 18.736C469.482 20.8 468.234 22.216 466.218 22.216C464.298 22.216 463.026 20.728 463.026 18.736Z" fill="#303030"/>
<rect x="60" y="82" width="200" height="50" rx="25" fill="#28C0E2"/>
<path d="M138.58 115.22C141.66 115.22 144.16 113.4 144.82 110.7H143.28C142.66 112.62 140.86 113.84 138.6 113.84C135.46 113.84 133.36 111.44 133.36 107.84C133.36 104.22 135.46 101.82 138.6 101.82C140.84 101.82 142.6 103.08 143.2 105.14H144.74C144.16 102.3 141.74 100.44 138.66 100.44C134.62 100.44 131.86 103.44 131.86 107.84C131.86 112.24 134.58 115.22 138.58 115.22ZM148.353 115V100.42H146.973V115H148.353ZM151.968 102.66C152.528 102.66 153.008 102.2 153.008 101.64C153.008 101.08 152.528 100.6 151.968 100.6C151.408 100.6 150.948 101.08 150.948 101.64C150.948 102.2 151.408 102.66 151.968 102.66ZM151.288 115H152.668V105.32H151.288V115ZM159.605 115.24C161.885 115.24 163.385 114.14 163.905 112.1H162.585C162.225 113.38 161.205 114.06 159.625 114.06C157.545 114.06 156.305 112.7 156.205 110.34H163.905V109.66C163.905 106.92 162.125 105.06 159.505 105.06C156.745 105.06 154.865 107.14 154.865 110.16C154.865 113.2 156.765 115.24 159.605 115.24ZM159.505 106.24C161.325 106.24 162.525 107.48 162.525 109.34H156.245C156.485 107.44 157.685 106.24 159.505 106.24ZM167.492 115V109.94C167.492 107.76 168.612 106.32 170.592 106.32C172.192 106.32 173.212 107.12 173.212 109.38V115H174.592V109.08C174.592 106.64 173.492 105.06 170.832 105.06C169.432 105.06 168.152 105.76 167.512 107L167.312 105.32H166.112V115H167.492ZM179.562 115V106.48H181.502V105.32H179.562V102.26H178.202V105.32H176.262V106.48H178.202V115H179.562Z" fill="#FDFDFD"/>
<circle cx="25" cy="107" r="25" fill="#28C0E2"/>
<path d="M32.5065 109.404C31.6999 108.596 30.7574 107.938 29.7222 107.457C31.182 106.275 32.1134 104.47 32.1134 102.446C32.1134 98.8754 29.1356 95.946 25.5649 96.0008C22.049 96.0555 19.2163 98.9205 19.2163 102.446C19.2163 104.47 20.1509 106.275 21.6075 107.457C20.5721 107.937 19.6295 108.596 18.8231 109.404C17.0636 111.167 16.0645 113.493 16.0001 115.975C15.9992 116.009 16.0053 116.043 16.0178 116.075C16.0304 116.107 16.0492 116.137 16.0733 116.161C16.0973 116.186 16.126 116.205 16.1577 116.219C16.1894 116.232 16.2235 116.239 16.2579 116.239H18.0626C18.2012 116.239 18.3172 116.129 18.3204 115.991C18.3816 114.122 19.1389 112.372 20.4699 111.044C21.151 110.359 21.9611 109.817 22.8534 109.447C23.7456 109.078 24.7023 108.889 25.668 108.891C27.6306 108.891 29.4772 109.655 30.8662 111.044C32.1939 112.372 32.9513 114.122 33.0157 115.991C33.0189 116.129 33.1349 116.239 33.2735 116.239H35.0782C35.1126 116.239 35.1467 116.232 35.1784 116.219C35.2101 116.205 35.2388 116.186 35.2628 116.161C35.2868 116.137 35.3057 116.107 35.3183 116.075C35.3308 116.043 35.3369 116.009 35.336 115.975C35.2716 113.493 34.2725 111.167 32.5065 109.404ZM25.668 106.571C24.5659 106.571 23.5282 106.142 22.7515 105.363C22.3618 104.976 22.0539 104.515 21.8463 104.006C21.6386 103.498 21.5355 102.953 21.543 102.404C21.5527 101.347 21.9749 100.326 22.7129 99.5682C23.4863 98.7755 24.5208 98.334 25.6262 98.3211C26.7186 98.3114 27.7789 98.7368 28.5588 99.5006C29.358 100.284 29.7963 101.331 29.7963 102.446C29.7963 103.548 29.3677 104.583 28.5878 105.363C28.2052 105.747 27.7501 106.052 27.2489 106.259C26.7478 106.467 26.2104 106.573 25.668 106.571Z" fill="#FDFDFD"/>
<rect x="400" y="82" width="200" height="50" rx="25" fill="#FF740F"/>
<path d="M476.2 109.74C478.94 109.74 480.7 107.78 480.7 105.18C480.7 102.48 478.96 100.68 476.2 100.68H470.74V115H472.18V109.74H476.2ZM476 101.98C477.98 101.98 479.2 103.18 479.2 105.16C479.2 107.12 478 108.44 475.92 108.44H472.18V101.98H476ZM487.785 105.2C487.445 105.12 487.185 105.1 486.885 105.1C485.525 105.1 484.505 105.78 484.125 106.82L484.025 105.32H482.725V115H484.105V109.48C484.105 107.64 485.245 106.44 487.025 106.44H487.785V105.2ZM488.569 110.16C488.569 113.1 490.649 115.24 493.489 115.24C496.329 115.24 498.409 113.1 498.409 110.16C498.409 107.2 496.329 105.06 493.489 105.06C490.649 105.06 488.569 107.2 488.569 110.16ZM489.969 110.14C489.969 107.9 491.409 106.3 493.489 106.3C495.549 106.3 497.009 107.9 497.009 110.14C497.009 112.42 495.549 114 493.489 114C491.409 114 489.969 112.42 489.969 110.14ZM501.316 102.66C501.856 102.66 502.336 102.2 502.336 101.64C502.336 101.08 501.856 100.6 501.316 100.6C500.736 100.6 500.276 101.08 500.276 101.64C500.276 102.2 500.736 102.66 501.316 102.66ZM498.036 119.24C498.536 119.38 498.816 119.42 499.336 119.42C501.036 119.42 501.996 118.3 501.996 116.46V105.32H500.616V116.38C500.616 117.56 500.196 118.12 499.236 118.12C498.936 118.12 498.696 118.08 498.296 117.98L498.036 119.24ZM508.934 115.24C511.214 115.24 512.714 114.14 513.234 112.1H511.914C511.554 113.38 510.534 114.06 508.954 114.06C506.874 114.06 505.634 112.7 505.534 110.34H513.234V109.66C513.234 106.92 511.454 105.06 508.834 105.06C506.074 105.06 504.194 107.14 504.194 110.16C504.194 113.2 506.094 115.24 508.934 115.24ZM508.834 106.24C510.654 106.24 511.854 107.48 511.854 109.34H505.574C505.814 107.44 507.014 106.24 508.834 106.24ZM514.76 110.18C514.76 113.22 516.62 115.24 519.36 115.24C521.56 115.24 523.28 113.94 523.74 111.96H522.34C521.96 113.2 520.8 114 519.36 114C517.4 114 516.12 112.46 516.12 110.16C516.12 107.78 517.5 106.28 519.46 106.28C520.8 106.28 521.96 107.02 522.32 108.36H523.7C523.32 106.36 521.68 105.06 519.44 105.06C516.62 105.06 514.76 107.14 514.76 110.18ZM528.051 115V106.48H529.991V105.32H528.051V102.26H526.691V105.32H524.751V106.48H526.691V115H528.051Z" fill="#FDFDFD"/>
<circle cx="365" cy="107" r="25" fill="#FF740F"/>
<g clip-path="url(#clip0_1266_7866)">
<path d="M379.812 98.5V96.375C379.812 95.8114 379.589 95.2709 379.19 94.8724C378.792 94.4739 378.251 94.25 377.688 94.25H354.312C353.749 94.25 353.208 94.4739 352.81 94.8724C352.411 95.2709 352.188 95.8114 352.188 96.375V98.5C352.188 99.0636 352.411 99.6041 352.81 100.003C353.208 100.401 353.749 100.625 354.312 100.625V113.375H353.25C352.968 113.375 352.698 113.487 352.499 113.686C352.299 113.885 352.188 114.156 352.188 114.438C352.188 114.719 352.299 114.99 352.499 115.189C352.698 115.388 352.968 115.5 353.25 115.5H364.938V117.811C364.229 118.062 363.631 118.555 363.251 119.203C362.87 119.852 362.731 120.614 362.858 121.355C362.986 122.096 363.371 122.769 363.945 123.253C364.52 123.738 365.248 124.004 366 124.004C366.752 124.004 367.48 123.738 368.055 123.253C368.629 122.769 369.014 122.096 369.142 121.355C369.269 120.614 369.13 119.852 368.749 119.203C368.369 118.555 367.771 118.062 367.062 117.811V115.5H378.75C379.032 115.5 379.302 115.388 379.501 115.189C379.701 114.99 379.812 114.719 379.812 114.438C379.812 114.156 379.701 113.885 379.501 113.686C379.302 113.487 379.032 113.375 378.75 113.375H377.688V100.625C378.251 100.625 378.792 100.401 379.19 100.003C379.589 99.6041 379.812 99.0636 379.812 98.5ZM366 121.875C365.79 121.875 365.584 121.813 365.41 121.696C365.235 121.579 365.099 121.413 365.018 121.219C364.938 121.025 364.917 120.811 364.958 120.605C364.999 120.399 365.1 120.21 365.249 120.061C365.397 119.913 365.587 119.811 365.793 119.77C365.999 119.729 366.212 119.75 366.407 119.831C366.601 119.911 366.767 120.047 366.883 120.222C367 120.397 367.062 120.602 367.062 120.812C367.062 121.094 366.951 121.365 366.751 121.564C366.552 121.763 366.282 121.875 366 121.875ZM354.312 96.375H377.688V98.5H354.312V96.375ZM375.562 113.375H356.438V100.625H375.562V113.375Z" fill="#FDFDFD"/>
</g>
<rect x="400" y="232" width="200" height="50" rx="25" fill="#DADADA"/>
<path d="M476.24 252H480.64V265H482.08V252H486.5V250.68H476.24V252ZM490.758 265.24C493.038 265.24 494.538 264.14 495.058 262.1H493.738C493.378 263.38 492.358 264.06 490.778 264.06C488.698 264.06 487.458 262.7 487.358 260.34H495.058V259.66C495.058 256.92 493.278 255.06 490.658 255.06C487.898 255.06 486.018 257.14 486.018 260.16C486.018 263.2 487.918 265.24 490.758 265.24ZM490.658 256.24C492.478 256.24 493.678 257.48 493.678 259.34H487.398C487.638 257.44 488.838 256.24 490.658 256.24ZM499.947 265.24C501.587 265.24 502.907 264.52 503.507 263.3L503.687 265H504.847V258.74C504.847 256.18 503.207 255.06 500.967 255.06C498.587 255.06 496.987 256.32 496.987 258.28H498.247C498.247 256.98 499.247 256.22 500.927 256.22C502.347 256.22 503.487 256.82 503.487 258.72V259.04L500.287 259.3C498.027 259.48 496.667 260.6 496.667 262.38C496.667 264.08 497.887 265.24 499.947 265.24ZM500.267 264.12C498.947 264.12 498.067 263.52 498.067 262.34C498.067 261.26 498.807 260.46 500.627 260.3L503.487 260.08V260.6C503.487 262.7 502.307 264.12 500.267 264.12ZM508.996 265V259C508.996 257.52 509.976 256.32 511.596 256.32C513.056 256.32 513.996 257.28 513.996 258.92V265H515.356V259.02C515.356 257.52 516.316 256.3 517.936 256.3C519.416 256.3 520.336 257.28 520.336 258.94V265H521.676V258.66C521.676 256.42 520.296 255.06 518.196 255.06C516.636 255.06 515.456 255.86 515.016 257.12C514.556 255.86 513.416 255.06 511.896 255.06C510.536 255.06 509.456 255.68 508.976 256.7L508.816 255.32H507.616V265H508.996Z" fill="#303030"/>
<circle cx="365" cy="257" r="25" fill="#DADADA"/>
<path d="M375.561 263.555C374.755 262.748 373.812 262.089 372.777 261.609C374.237 260.426 375.168 258.621 375.168 256.597C375.168 253.027 372.19 250.097 368.62 250.152C365.104 250.207 362.271 253.072 362.271 256.597C362.271 258.621 363.206 260.426 364.662 261.609C363.627 262.089 362.684 262.748 361.878 263.555C360.118 265.318 359.119 267.645 359.055 270.126C359.054 270.161 359.06 270.195 359.073 270.227C359.085 270.259 359.104 270.288 359.128 270.313C359.152 270.337 359.181 270.357 359.212 270.37C359.244 270.384 359.278 270.39 359.313 270.39H361.117C361.256 270.39 361.372 270.281 361.375 270.142C361.436 268.273 362.194 266.523 363.525 265.195C364.206 264.511 365.016 263.968 365.908 263.598C366.8 263.229 367.757 263.04 368.723 263.043C370.685 263.043 372.532 263.807 373.921 265.195C375.249 266.523 376.006 268.273 376.07 270.142C376.074 270.281 376.19 270.39 376.328 270.39H378.133C378.167 270.39 378.201 270.384 378.233 270.37C378.265 270.357 378.293 270.337 378.318 270.313C378.342 270.288 378.36 270.259 378.373 270.227C378.386 270.195 378.392 270.161 378.391 270.126C378.326 267.645 377.327 265.318 375.561 263.555ZM368.723 260.722C367.621 260.722 366.583 260.294 365.806 259.514C365.416 259.127 365.109 258.666 364.901 258.158C364.693 257.649 364.59 257.105 364.598 256.556C364.607 255.499 365.03 254.477 365.768 253.72C366.541 252.927 367.575 252.485 368.681 252.472C369.773 252.463 370.834 252.888 371.613 253.652C372.413 254.435 372.851 255.482 372.851 256.597C372.851 257.7 372.422 258.734 371.642 259.514C371.26 259.898 370.805 260.203 370.304 260.411C369.802 260.618 369.265 260.724 368.723 260.722ZM360.65 257.448C360.621 257.168 360.605 256.884 360.605 256.597C360.605 256.085 360.653 255.586 360.743 255.099C360.766 254.983 360.705 254.864 360.598 254.815C360.16 254.619 359.757 254.348 359.409 254.006C358.999 253.609 358.676 253.13 358.462 252.601C358.247 252.071 358.145 251.503 358.162 250.932C358.191 249.898 358.607 248.915 359.332 248.173C360.128 247.358 361.198 246.913 362.335 246.926C363.363 246.936 364.356 247.332 365.107 248.035C365.362 248.273 365.581 248.538 365.764 248.821C365.829 248.921 365.954 248.963 366.064 248.924C366.631 248.728 367.231 248.589 367.846 248.525C368.027 248.505 368.13 248.312 368.049 248.151C367.002 246.079 364.862 244.648 362.387 244.609C358.813 244.554 355.835 247.484 355.835 251.051C355.835 253.075 356.767 254.88 358.227 256.062C357.202 256.536 356.258 257.19 355.439 258.009C353.673 259.772 352.674 262.099 352.609 264.583C352.609 264.618 352.615 264.652 352.627 264.684C352.64 264.716 352.659 264.745 352.683 264.77C352.707 264.794 352.735 264.814 352.767 264.827C352.799 264.841 352.833 264.847 352.867 264.847H354.675C354.814 264.847 354.93 264.738 354.933 264.599C354.994 262.73 355.752 260.98 357.083 259.653C358.03 258.705 359.19 258.048 360.457 257.729C360.582 257.696 360.666 257.577 360.65 257.448Z" fill="#303030"/>
<rect x="60" y="232" width="200" height="50" rx="25" fill="#DADADA"/>
<path d="M94.2 259.74C96.94 259.74 98.7 257.78 98.7 255.18C98.7 252.48 96.96 250.68 94.2 250.68H88.74V265H90.18V259.74H94.2ZM94 251.98C95.98 251.98 97.2 253.18 97.2 255.16C97.2 257.12 96 258.44 93.92 258.44H90.18V251.98H94ZM105.785 255.2C105.445 255.12 105.185 255.1 104.885 255.1C103.525 255.1 102.505 255.78 102.125 256.82L102.025 255.32H100.725V265H102.105V259.48C102.105 257.64 103.245 256.44 105.025 256.44H105.785V255.2ZM106.569 260.16C106.569 263.1 108.649 265.24 111.489 265.24C114.329 265.24 116.409 263.1 116.409 260.16C116.409 257.2 114.329 255.06 111.489 255.06C108.649 255.06 106.569 257.2 106.569 260.16ZM107.969 260.14C107.969 257.9 109.409 256.3 111.489 256.3C113.549 256.3 115.009 257.9 115.009 260.14C115.009 262.42 113.549 264 111.489 264C109.409 264 107.969 262.42 107.969 260.14ZM119.316 252.66C119.856 252.66 120.336 252.2 120.336 251.64C120.336 251.08 119.856 250.6 119.316 250.6C118.736 250.6 118.276 251.08 118.276 251.64C118.276 252.2 118.736 252.66 119.316 252.66ZM116.036 269.24C116.536 269.38 116.816 269.42 117.336 269.42C119.036 269.42 119.996 268.3 119.996 266.46V255.32H118.616V266.38C118.616 267.56 118.196 268.12 117.236 268.12C116.936 268.12 116.696 268.08 116.296 267.98L116.036 269.24ZM126.934 265.24C129.214 265.24 130.714 264.14 131.234 262.1H129.914C129.554 263.38 128.534 264.06 126.954 264.06C124.874 264.06 123.634 262.7 123.534 260.34H131.234V259.66C131.234 256.92 129.454 255.06 126.834 255.06C124.074 255.06 122.194 257.14 122.194 260.16C122.194 263.2 124.094 265.24 126.934 265.24ZM126.834 256.24C128.654 256.24 129.854 257.48 129.854 259.34H123.574C123.814 257.44 125.014 256.24 126.834 256.24ZM132.76 260.18C132.76 263.22 134.62 265.24 137.36 265.24C139.56 265.24 141.28 263.94 141.74 261.96H140.34C139.96 263.2 138.8 264 137.36 264C135.4 264 134.12 262.46 134.12 260.16C134.12 257.78 135.5 256.28 137.46 256.28C138.8 256.28 139.96 257.02 140.32 258.36H141.7C141.32 256.36 139.68 255.06 137.44 255.06C134.62 255.06 132.76 257.14 132.76 260.18ZM146.051 265V256.48H147.991V255.32H146.051V252.26H144.691V255.32H142.751V256.48H144.691V265H146.051ZM156.715 265V259C156.715 257.52 157.695 256.32 159.315 256.32C160.775 256.32 161.715 257.28 161.715 258.92V265H163.075V259.02C163.075 257.52 164.035 256.3 165.655 256.3C167.135 256.3 168.055 257.28 168.055 258.94V265H169.395V258.66C169.395 256.42 168.015 255.06 165.915 255.06C164.355 255.06 163.175 255.86 162.735 257.12C162.275 255.86 161.135 255.06 159.615 255.06C158.255 255.06 157.175 255.68 156.695 256.7L156.535 255.32H155.335V265H156.715ZM174.95 265.24C176.59 265.24 177.91 264.52 178.51 263.3L178.69 265H179.85V258.74C179.85 256.18 178.21 255.06 175.97 255.06C173.59 255.06 171.99 256.32 171.99 258.28H173.25C173.25 256.98 174.25 256.22 175.93 256.22C177.35 256.22 178.49 256.82 178.49 258.72V259.04L175.29 259.3C173.03 259.48 171.67 260.6 171.67 262.38C171.67 264.08 172.89 265.24 174.95 265.24ZM175.27 264.12C173.95 264.12 173.07 263.52 173.07 262.34C173.07 261.26 173.81 260.46 175.63 260.3L178.49 260.08V260.6C178.49 262.7 177.31 264.12 175.27 264.12ZM184 265V259.94C184 257.76 185.12 256.32 187.1 256.32C188.7 256.32 189.72 257.12 189.72 259.38V265H191.1V259.08C191.1 256.64 190 255.06 187.34 255.06C185.94 255.06 184.66 255.76 184.02 257L183.82 255.32H182.62V265H184ZM196.63 265.24C198.27 265.24 199.59 264.52 200.19 263.3L200.37 265H201.53V258.74C201.53 256.18 199.89 255.06 197.65 255.06C195.27 255.06 193.67 256.32 193.67 258.28H194.93C194.93 256.98 195.93 256.22 197.61 256.22C199.03 256.22 200.17 256.82 200.17 258.72V259.04L196.97 259.3C194.71 259.48 193.35 260.6 193.35 262.38C193.35 264.08 194.57 265.24 196.63 265.24ZM196.95 264.12C195.63 264.12 194.75 263.52 194.75 262.34C194.75 261.26 195.49 260.46 197.31 260.3L200.17 260.08V260.6C200.17 262.7 198.99 264.12 196.95 264.12ZM203.639 259.88C203.639 262.52 205.319 264.7 208.079 264.7C209.739 264.7 211.079 263.9 211.739 262.54V264.84C211.739 266.86 210.419 268.2 208.439 268.2C206.699 268.2 205.499 267.28 205.199 265.72H203.819C204.199 268.06 205.939 269.46 208.419 269.46C211.259 269.46 213.099 267.58 213.099 264.7V255.32H211.899L211.759 257.26C211.139 255.84 209.859 255.06 208.179 255.06C205.339 255.06 203.639 257.24 203.639 259.88ZM205.019 259.86C205.019 257.9 206.219 256.28 208.299 256.28C210.419 256.28 211.619 257.8 211.619 259.86C211.619 261.94 210.379 263.46 208.279 263.46C206.239 263.46 205.019 261.84 205.019 259.86ZM220.039 265.24C222.319 265.24 223.819 264.14 224.339 262.1H223.019C222.659 263.38 221.639 264.06 220.059 264.06C217.979 264.06 216.739 262.7 216.639 260.34H224.339V259.66C224.339 256.92 222.559 255.06 219.939 255.06C217.179 255.06 215.299 257.14 215.299 260.16C215.299 263.2 217.199 265.24 220.039 265.24ZM219.939 256.24C221.759 256.24 222.959 257.48 222.959 259.34H216.679C216.919 257.44 218.119 256.24 219.939 256.24ZM231.605 255.2C231.265 255.12 231.005 255.1 230.705 255.1C229.345 255.1 228.325 255.78 227.945 256.82L227.845 255.32H226.545V265H227.925V259.48C227.925 257.64 229.065 256.44 230.845 256.44H231.605V255.2Z" fill="#303030"/>
<circle cx="25" cy="257" r="25" fill="#DADADA"/>
<path d="M13.625 244.75C13.3929 244.75 13.1704 244.842 13.0063 245.006C12.8422 245.17 12.75 245.393 12.75 245.625V250.875C12.75 251.107 12.6578 251.33 12.4937 251.494C12.3296 251.658 12.1071 251.75 11.875 251.75C11.6429 251.75 11.4204 251.658 11.2563 251.494C11.0922 251.33 11 251.107 11 250.875V245.625C11 244.929 11.2766 244.261 11.7688 243.769C12.2611 243.277 12.9288 243 13.625 243H18.875C19.1071 243 19.3296 243.092 19.4937 243.256C19.6578 243.42 19.75 243.643 19.75 243.875C19.75 244.107 19.6578 244.33 19.4937 244.494C19.3296 244.658 19.1071 244.75 18.875 244.75H13.625ZM30.25 243.875C30.25 243.643 30.3422 243.42 30.5063 243.256C30.6704 243.092 30.8929 243 31.125 243H36.375C37.0712 243 37.7389 243.277 38.2312 243.769C38.7234 244.261 39 244.929 39 245.625V250.875C39 251.107 38.9078 251.33 38.7437 251.494C38.5796 251.658 38.3571 251.75 38.125 251.75C37.8929 251.75 37.6704 251.658 37.5063 251.494C37.3422 251.33 37.25 251.107 37.25 250.875V245.625C37.25 245.393 37.1578 245.17 36.9937 245.006C36.8296 244.842 36.6071 244.75 36.375 244.75H31.125C30.8929 244.75 30.6704 244.658 30.5063 244.494C30.3422 244.33 30.25 244.107 30.25 243.875ZM11.875 262.25C12.1071 262.25 12.3296 262.342 12.4937 262.506C12.6578 262.67 12.75 262.893 12.75 263.125V268.375C12.75 268.607 12.8422 268.83 13.0063 268.994C13.1704 269.158 13.3929 269.25 13.625 269.25H18.875C19.1071 269.25 19.3296 269.342 19.4937 269.506C19.6578 269.67 19.75 269.893 19.75 270.125C19.75 270.357 19.6578 270.58 19.4937 270.744C19.3296 270.908 19.1071 271 18.875 271H13.625C12.9288 271 12.2611 270.723 11.7688 270.231C11.2766 269.739 11 269.071 11 268.375V263.125C11 262.893 11.0922 262.67 11.2563 262.506C11.4204 262.342 11.6429 262.25 11.875 262.25ZM38.125 262.25C38.3571 262.25 38.5796 262.342 38.7437 262.506C38.9078 262.67 39 262.893 39 263.125V268.375C39 269.071 38.7234 269.739 38.2312 270.231C37.7389 270.723 37.0712 271 36.375 271H31.125C30.8929 271 30.6704 270.908 30.5063 270.744C30.3422 270.58 30.25 270.357 30.25 270.125C30.25 269.893 30.3422 269.67 30.5063 269.506C30.6704 269.342 30.8929 269.25 31.125 269.25H36.375C36.6071 269.25 36.8296 269.158 36.9937 268.994C37.1578 268.83 37.25 268.607 37.25 268.375V263.125C37.25 262.893 37.3422 262.67 37.5063 262.506C37.6704 262.342 37.8929 262.25 38.125 262.25Z" fill="#303030"/>
<path d="M30.945 259.464C30.2606 258.779 29.4609 258.22 28.5825 257.812C29.8212 256.809 30.6114 255.277 30.6114 253.56C30.6114 250.531 28.0848 248.045 25.0551 248.091C22.0719 248.138 19.6684 250.569 19.6684 253.56C19.6684 255.277 20.4614 256.809 21.6973 257.812C20.8188 258.219 20.019 258.778 19.3348 259.464C17.8419 260.959 16.9942 262.934 16.9395 265.039C16.9388 265.068 16.9439 265.097 16.9546 265.125C16.9652 265.152 16.9812 265.176 17.0016 265.197C17.022 265.218 17.0464 265.235 17.0733 265.246C17.1002 265.258 17.1291 265.263 17.1583 265.263H18.6895C18.8071 265.263 18.9055 265.17 18.9083 265.053C18.9602 263.467 19.6028 261.982 20.7321 260.856C21.31 260.275 21.9973 259.814 22.7544 259.5C23.5115 259.187 24.3232 259.027 25.1426 259.029C26.8079 259.029 28.3747 259.677 29.5532 260.856C30.6798 261.982 31.3223 263.467 31.377 265.053C31.3798 265.17 31.4782 265.263 31.5958 265.263H33.127C33.1562 265.263 33.1851 265.258 33.212 265.246C33.2389 265.235 33.2633 265.218 33.2837 265.197C33.3041 265.176 33.32 265.152 33.3307 265.125C33.3414 265.097 33.3465 265.068 33.3458 265.039C33.2911 262.934 32.4434 260.959 30.945 259.464ZM25.1426 257.06C24.2075 257.06 23.327 256.697 22.668 256.035C22.3373 255.707 22.0761 255.315 21.8999 254.884C21.7237 254.453 21.6362 253.99 21.6426 253.525C21.6508 252.628 22.0091 251.761 22.6352 251.118C23.2915 250.446 24.1692 250.071 25.1071 250.06C26.0341 250.052 26.9337 250.413 27.5954 251.061C28.2735 251.725 28.6454 252.614 28.6454 253.56C28.6454 254.495 28.2817 255.373 27.62 256.035C27.2953 256.361 26.9092 256.62 26.484 256.796C26.0588 256.972 25.6029 257.062 25.1426 257.06Z" fill="#303030"/>
<path d="M159.293 212.707C159.683 213.098 160.317 213.098 160.707 212.707L167.071 206.343C167.462 205.953 167.462 205.319 167.071 204.929C166.681 204.538 166.047 204.538 165.657 204.929L160 210.586L154.343 204.929C153.953 204.538 153.319 204.538 152.929 204.929C152.538 205.319 152.538 205.953 152.929 206.343L159.293 212.707ZM160.707 151.293C160.317 150.902 159.683 150.902 159.293 151.293L152.929 157.657C152.538 158.047 152.538 158.681 152.929 159.071C153.319 159.462 153.953 159.462 154.343 159.071L160 153.414L165.657 159.071C166.047 159.462 166.681 159.462 167.071 159.071C167.462 158.681 167.462 158.047 167.071 157.657L160.707 151.293ZM161 212V152H159V212H161Z" fill="#303030"/>
<path d="M500.707 151.293C500.317 150.902 499.683 150.902 499.293 151.293L492.929 157.657C492.538 158.047 492.538 158.681 492.929 159.071C493.319 159.462 493.953 159.462 494.343 159.071L500 153.414L505.657 159.071C506.047 159.462 506.681 159.462 507.071 159.071C507.462 158.681 507.462 158.047 507.071 157.657L500.707 151.293ZM501 212V152H499V212H501Z" fill="#303030"/>
<path d="M279.293 256.293C278.902 256.683 278.902 257.317 279.293 257.707L285.657 264.071C286.047 264.462 286.681 264.462 287.071 264.071C287.462 263.681 287.462 263.047 287.071 262.657L281.414 257L287.071 251.343C287.462 250.953 287.462 250.319 287.071 249.929C286.681 249.538 286.047 249.538 285.657 249.929L279.293 256.293ZM320.707 257.707C321.098 257.317 321.098 256.683 320.707 256.293L314.343 249.929C313.953 249.538 313.319 249.538 312.929 249.929C312.538 250.319 312.538 250.953 312.929 251.343L318.586 257L312.929 262.657C312.538 263.047 312.538 263.681 312.929 264.071C313.319 264.462 313.953 264.462 314.343 264.071L320.707 257.707ZM280 258H320V256H280V258Z" fill="#303030"/>
<path d="M279.293 106.293C278.902 106.683 278.902 107.317 279.293 107.707L285.657 114.071C286.047 114.462 286.681 114.462 287.071 114.071C287.462 113.681 287.462 113.047 287.071 112.657L281.414 107L287.071 101.343C287.462 100.953 287.462 100.319 287.071 99.9289C286.681 99.5384 286.047 99.5384 285.657 99.9289L279.293 106.293ZM280 108H320V106H280V108Z" fill="#303030"/>
<defs>
<clipPath id="clip0_1266_7866">
<rect width="34" height="34" fill="white" transform="translate(349 90)"/>
</clipPath>
</defs>
</svg>
