<svg width="455" height="362" viewBox="0 0 455 362" fill="none" xmlns="http://www.w3.org/2000/svg">
<path d="M144.952 16.216C144.952 10.864 141.448 7.144 136.432 7.144C131.416 7.144 127.936 10.888 127.936 16.216C127.936 21.568 131.392 25.288 136.408 25.288C141.448 25.288 144.952 21.544 144.952 16.216ZM141.712 16.216C141.712 19.912 139.648 22.336 136.432 22.336C133.216 22.336 131.152 19.96 131.152 16.216C131.152 12.472 133.216 10.096 136.432 10.096C139.648 10.096 141.712 12.472 141.712 16.216ZM155.419 13.144V19.36C155.419 21.616 154.531 22.696 152.683 22.696C151.051 22.696 150.163 21.784 150.163 19.528V13.144H147.235V20.56C147.235 23.464 148.843 25.312 151.579 25.312C153.163 25.312 154.699 24.544 155.419 23.416L155.635 25H158.347V13.144H155.419ZM165.403 25V15.592H167.707V13.144H165.403V9.448H162.475V13.144H160.195V15.592H162.475V25H165.403ZM168.616 21.4C168.616 23.728 170.488 25.312 173.44 25.312C176.368 25.312 178.408 23.824 178.408 21.424C178.408 19.6 177.4 18.688 175.408 18.232L173.272 17.728C172.264 17.488 171.736 17.056 171.736 16.384C171.736 15.496 172.408 14.968 173.56 14.968C174.688 14.968 175.36 15.616 175.384 16.624H178.168C178.144 14.32 176.344 12.784 173.68 12.784C170.944 12.784 168.976 14.176 168.976 16.504C168.976 18.4 170.008 19.408 172.144 19.888L174.28 20.392C175.336 20.632 175.648 21.064 175.648 21.664C175.648 22.528 174.904 23.08 173.536 23.08C172.192 23.08 171.424 22.432 171.4 21.4H168.616ZM184.669 25V15.592H186.973V13.144H184.669V9.448H181.741V13.144H179.461V15.592H181.741V25H184.669ZM192.251 25.312C194.099 25.312 195.707 24.472 196.211 23.248L196.427 25H198.995V17.8C198.995 14.512 197.027 12.784 193.835 12.784C190.619 12.784 188.507 14.464 188.507 17.032H191.003C191.003 15.784 191.963 15.064 193.691 15.064C195.179 15.064 196.139 15.712 196.139 17.32V17.584L192.587 17.848C189.779 18.064 188.195 19.432 188.195 21.616C188.195 23.848 189.731 25.312 192.251 25.312ZM193.211 23.104C191.891 23.104 191.171 22.576 191.171 21.496C191.171 20.536 191.867 19.936 193.691 19.768L196.163 19.576V20.2C196.163 22.024 195.011 23.104 193.211 23.104ZM200.649 13.144V15.592H202.353V25H205.257V15.592H210.105V25H213.009V15.592H217.857V25H220.785V13.144H213.009V11.704C213.009 10.528 213.369 9.76 214.689 9.76H215.697V7.264C215.193 7.168 214.665 7.144 214.185 7.144C211.785 7.144 210.105 8.488 210.105 11.704V13.144H205.257V11.704C205.257 10.528 205.593 9.76 207.081 9.76H208.113V7.264C207.609 7.168 207.057 7.144 206.601 7.144C204.033 7.144 202.353 8.488 202.353 11.704V13.144H200.649ZM219.321 10.648C220.305 10.648 221.073 9.88 221.073 8.896C221.073 7.912 220.305 7.144 219.321 7.144C218.337 7.144 217.593 7.912 217.593 8.896C217.593 9.88 218.337 10.648 219.321 10.648ZM226.737 25V18.616C226.737 16.696 227.841 15.448 229.641 15.448C231.153 15.448 232.137 16.408 232.137 18.4V25H235.065V17.704C235.065 14.632 233.529 12.784 230.553 12.784C228.945 12.784 227.505 13.48 226.761 14.68L226.521 13.144H223.809V25H226.737ZM237.27 18.808C237.27 22.24 239.478 24.76 242.838 24.76C244.542 24.76 246.006 24.064 246.75 22.96V24.928C246.75 26.896 245.454 28.168 243.438 28.168C241.638 28.168 240.462 27.256 240.27 25.72H237.342C237.702 28.888 240.03 30.832 243.438 30.832C247.278 30.832 249.654 28.36 249.654 24.4V13.144H246.942L246.774 14.776C246.078 13.504 244.686 12.76 242.91 12.76C239.526 12.76 237.27 15.352 237.27 18.808ZM240.222 18.736C240.222 16.792 241.47 15.328 243.414 15.328C245.454 15.328 246.678 16.72 246.678 18.736C246.678 20.8 245.43 22.216 243.414 22.216C241.494 22.216 240.222 20.728 240.222 18.736ZM262.561 25V18.712C262.561 16.528 262.537 14.872 262.369 13.816L266.809 25H269.641L274.105 13.792C273.937 15.04 273.937 16.072 273.937 19.6V25H276.913V7.456H273.889L268.225 21.424L262.561 7.456H259.585V25H262.561ZM279.668 19.048C279.668 22.744 282.332 25.288 286.004 25.288C289.676 25.288 292.34 22.744 292.34 19.048C292.34 15.352 289.676 12.808 286.004 12.808C282.332 12.808 279.668 15.352 279.668 19.048ZM282.596 19.048C282.596 16.888 283.988 15.424 286.004 15.424C288.02 15.424 289.412 16.888 289.412 19.048C289.412 21.208 288.02 22.672 286.004 22.672C283.988 22.672 282.596 21.208 282.596 19.048ZM299.532 25.312C301.332 25.312 302.868 24.52 303.588 23.152L303.78 25H306.468V7.144H303.564V14.656C302.82 13.48 301.356 12.784 299.7 12.784C296.124 12.784 293.964 15.424 293.964 19.12C293.964 22.792 296.1 25.312 299.532 25.312ZM300.18 22.624C298.14 22.624 296.892 21.136 296.892 19.024C296.892 16.912 298.14 15.4 300.18 15.4C302.22 15.4 303.54 16.888 303.54 19.024C303.54 21.16 302.22 22.624 300.18 22.624ZM314.824 25.312C317.92 25.312 320.08 23.752 320.584 21.16H317.872C317.536 22.288 316.48 22.912 314.872 22.912C312.928 22.912 311.824 21.856 311.608 19.768L320.536 19.744V18.856C320.536 15.16 318.28 12.784 314.728 12.784C311.248 12.784 308.824 15.352 308.824 19.072C308.824 22.744 311.296 25.312 314.824 25.312ZM314.752 15.184C316.504 15.184 317.632 16.264 317.632 17.896H311.68C311.968 16.12 313.024 15.184 314.752 15.184ZM325.831 25V7.144H322.927V25H325.831Z" fill="#303030"/>
<line x1="228" y1="329" x2="228" y2="344" stroke="#303030" stroke-width="2"/>
<line x1="220" y1="336" x2="235" y2="336" stroke="#303030" stroke-width="2"/>
<path d="M127.707 162.707C128.098 162.317 128.098 161.683 127.707 161.293L121.343 154.929C120.953 154.538 120.319 154.538 119.929 154.929C119.538 155.319 119.538 155.953 119.929 156.343L125.586 162L119.929 167.657C119.538 168.047 119.538 168.681 119.929 169.071C120.319 169.462 120.953 169.462 121.343 169.071L127.707 162.707ZM99.2929 232.707C99.6834 233.098 100.317 233.098 100.707 232.707L107.071 226.343C107.462 225.953 107.462 225.319 107.071 224.929C106.681 224.538 106.047 224.538 105.657 224.929L100 230.586L94.3431 224.929C93.9526 224.538 93.3195 224.538 92.9289 224.929C92.5384 225.319 92.5384 225.953 92.9289 226.343L99.2929 232.707ZM127 161H106V163H127V161ZM99 168V232H101V168H99ZM106 161C102.134 161 99 164.134 99 168H101C101 165.239 103.239 163 106 163V161Z" fill="#303030"/>
<path d="M327.293 162.707C326.902 162.317 326.902 161.683 327.293 161.293L333.657 154.929C334.047 154.538 334.681 154.538 335.071 154.929C335.462 155.319 335.462 155.953 335.071 156.343L329.414 162L335.071 167.657C335.462 168.047 335.462 168.681 335.071 169.071C334.681 169.462 334.047 169.462 333.657 169.071L327.293 162.707ZM355.707 232.707C355.317 233.098 354.683 233.098 354.293 232.707L347.929 226.343C347.538 225.953 347.538 225.319 347.929 224.929C348.319 224.538 348.953 224.538 349.343 224.929L355 230.586L360.657 224.929C361.047 224.538 361.681 224.538 362.071 224.929C362.462 225.319 362.462 225.953 362.071 226.343L355.707 232.707ZM328 161H349V163H328V161ZM356 168V232H354V168H356ZM349 161C352.866 161 356 164.134 356 168H354C354 165.239 351.761 163 349 163V161Z" fill="#303030"/>
<rect y="312" width="200" height="50" rx="25" fill="#DADADA"/>
<path d="M50.58 345.22C53.66 345.22 56.16 343.4 56.82 340.7H55.28C54.66 342.62 52.86 343.84 50.6 343.84C47.46 343.84 45.36 341.44 45.36 337.84C45.36 334.22 47.46 331.82 50.6 331.82C52.84 331.82 54.6 333.08 55.2 335.14H56.74C56.16 332.3 53.74 330.44 50.66 330.44C46.62 330.44 43.86 333.44 43.86 337.84C43.86 342.24 46.58 345.22 50.58 345.22ZM60.3527 345V330.42H58.9727V345H60.3527ZM63.9677 332.66C64.5277 332.66 65.0077 332.2 65.0077 331.64C65.0077 331.08 64.5277 330.6 63.9677 330.6C63.4077 330.6 62.9477 331.08 62.9477 331.64C62.9477 332.2 63.4077 332.66 63.9677 332.66ZM63.2877 345H64.6677V335.32H63.2877V345ZM71.6055 345.24C73.8855 345.24 75.3855 344.14 75.9055 342.1H74.5855C74.2255 343.38 73.2055 344.06 71.6255 344.06C69.5455 344.06 68.3055 342.7 68.2055 340.34H75.9055V339.66C75.9055 336.92 74.1255 335.06 71.5055 335.06C68.7455 335.06 66.8655 337.14 66.8655 340.16C66.8655 343.2 68.7655 345.24 71.6055 345.24ZM71.5055 336.24C73.3255 336.24 74.5255 337.48 74.5255 339.34H68.2455C68.4855 337.44 69.6855 336.24 71.5055 336.24ZM79.4919 345V339.94C79.4919 337.76 80.6119 336.32 82.5919 336.32C84.1919 336.32 85.2119 337.12 85.2119 339.38V345H86.5919V339.08C86.5919 336.64 85.4919 335.06 82.8319 335.06C81.4319 335.06 80.1519 335.76 79.5119 337L79.3119 335.32H78.1119V345H79.4919ZM91.5623 345V336.48H93.5023V335.32H91.5623V332.26H90.2023V335.32H88.2623V336.48H90.2023V345H91.5623ZM97.5394 331.96C97.5394 330.98 96.9394 330.4 96.2594 330.4C95.5594 330.4 95.0794 330.9 95.0794 331.58C95.0794 332.26 95.5394 332.64 96.0594 332.64C96.2994 332.64 96.4794 332.6 96.5994 332.52C96.5994 333.08 96.0794 333.58 95.3794 333.72V334.46C96.6194 334.28 97.5394 333.22 97.5394 331.96ZM98.5028 342.28C98.5028 344.08 99.8628 345.24 102.043 345.24C104.243 345.24 105.723 344.1 105.723 342.36C105.723 340.96 104.963 340.18 103.283 339.76L101.623 339.34C100.563 339.08 100.043 338.56 100.043 337.82C100.043 336.78 100.803 336.2 102.163 336.2C103.463 336.2 104.243 336.86 104.283 337.98H105.623C105.563 336.18 104.243 335.06 102.203 335.06C100.123 335.06 98.7028 336.14 98.7028 337.84C98.7028 339.16 99.5228 340.04 101.203 340.46L102.863 340.88C104.003 341.16 104.403 341.62 104.403 342.42C104.403 343.46 103.523 344.1 102.023 344.1C100.663 344.1 99.8228 343.4 99.8228 342.28H98.5028ZM115.762 345V336.48H117.702V335.32H115.762V332.26H114.402V335.32H112.462V336.48H114.402V345H115.762ZM123.461 345.24C125.741 345.24 127.241 344.14 127.761 342.1H126.441C126.081 343.38 125.061 344.06 123.481 344.06C121.401 344.06 120.161 342.7 120.061 340.34H127.761V339.66C127.761 336.92 125.981 335.06 123.361 335.06C120.601 335.06 118.721 337.14 118.721 340.16C118.721 343.2 120.621 345.24 123.461 345.24ZM123.361 336.24C125.181 336.24 126.381 337.48 126.381 339.34H120.101C120.341 337.44 121.541 336.24 123.361 336.24ZM132.65 345.24C134.29 345.24 135.61 344.52 136.21 343.3L136.39 345H137.55V338.74C137.55 336.18 135.91 335.06 133.67 335.06C131.29 335.06 129.69 336.32 129.69 338.28H130.95C130.95 336.98 131.95 336.22 133.63 336.22C135.05 336.22 136.19 336.82 136.19 338.72V339.04L132.99 339.3C130.73 339.48 129.37 340.6 129.37 342.38C129.37 344.08 130.59 345.24 132.65 345.24ZM132.97 344.12C131.65 344.12 130.77 343.52 130.77 342.34C130.77 341.26 131.51 340.46 133.33 340.3L136.19 340.08V340.6C136.19 342.7 135.01 344.12 132.97 344.12ZM141.699 345V339C141.699 337.52 142.679 336.32 144.299 336.32C145.759 336.32 146.699 337.28 146.699 338.92V345H148.059V339.02C148.059 337.52 149.019 336.3 150.639 336.3C152.119 336.3 153.039 337.28 153.039 338.94V345H154.379V338.66C154.379 336.42 152.999 335.06 150.899 335.06C149.339 335.06 148.159 335.86 147.719 337.12C147.259 335.86 146.119 335.06 144.599 335.06C143.239 335.06 142.159 335.68 141.679 336.7L141.519 335.32H140.319V345H141.699Z" fill="#303030"/>
<circle cx="100" cy="277" r="25" fill="#DADADA"/>
<path d="M110.561 283.555C109.755 282.748 108.812 282.089 107.777 281.609C109.237 280.426 110.168 278.621 110.168 276.597C110.168 273.027 107.19 270.097 103.62 270.152C100.104 270.207 97.271 273.072 97.271 276.597C97.271 278.621 98.2055 280.426 99.6622 281.609C98.6268 282.089 97.6842 282.748 96.8778 283.555C95.1182 285.318 94.1192 287.645 94.0548 290.126C94.0539 290.161 94.0599 290.195 94.0725 290.227C94.0851 290.259 94.1039 290.288 94.128 290.313C94.152 290.337 94.1807 290.357 94.2124 290.37C94.2441 290.384 94.2782 290.39 94.3126 290.39H96.1173C96.2558 290.39 96.3719 290.281 96.3751 290.142C96.4363 288.273 97.1936 286.523 98.5246 285.195C99.2057 284.511 100.016 283.968 100.908 283.598C101.8 283.229 102.757 283.04 103.723 283.043C105.685 283.043 107.532 283.807 108.921 285.195C110.249 286.523 111.006 288.273 111.07 290.142C111.074 290.281 111.19 290.39 111.328 290.39H113.133C113.167 290.39 113.201 290.384 113.233 290.37C113.265 290.357 113.293 290.337 113.318 290.313C113.342 290.288 113.36 290.259 113.373 290.227C113.386 290.195 113.392 290.161 113.391 290.126C113.326 287.645 112.327 285.318 110.561 283.555ZM103.723 280.722C102.621 280.722 101.583 280.294 100.806 279.514C100.416 279.127 100.109 278.666 99.9009 278.158C99.6933 277.649 99.5902 277.105 99.5977 276.556C99.6074 275.499 100.03 274.477 100.768 273.72C101.541 272.927 102.575 272.485 103.681 272.472C104.773 272.463 105.834 272.888 106.613 273.652C107.413 274.435 107.851 275.482 107.851 276.597C107.851 277.7 107.422 278.734 106.642 279.514C106.26 279.898 105.805 280.203 105.304 280.411C104.802 280.618 104.265 280.724 103.723 280.722ZM95.65 277.448C95.621 277.168 95.6049 276.884 95.6049 276.597C95.6049 276.085 95.6532 275.586 95.7434 275.099C95.766 274.983 95.7048 274.864 95.5984 274.815C95.1601 274.619 94.7573 274.348 94.4093 274.006C93.9991 273.609 93.6764 273.13 93.4617 272.601C93.247 272.071 93.1449 271.503 93.1621 270.932C93.1911 269.898 93.6068 268.915 94.3319 268.173C95.1279 267.358 96.1978 266.913 97.3354 266.926C98.3635 266.936 99.356 267.332 100.107 268.035C100.362 268.273 100.581 268.538 100.764 268.821C100.829 268.921 100.954 268.963 101.064 268.924C101.631 268.728 102.231 268.589 102.846 268.525C103.027 268.505 103.13 268.312 103.049 268.151C102.002 266.079 99.862 264.648 97.387 264.609C93.8131 264.554 90.8353 267.484 90.8353 271.051C90.8353 273.075 91.7667 274.88 93.2265 276.062C92.2017 276.536 91.2575 277.19 90.4389 278.009C88.6729 279.772 87.6739 282.099 87.6095 284.583C87.6086 284.618 87.6146 284.652 87.6272 284.684C87.6398 284.716 87.6586 284.745 87.6826 284.77C87.7067 284.794 87.7354 284.814 87.7671 284.827C87.7988 284.841 87.8329 284.847 87.8673 284.847H89.6752C89.8138 284.847 89.9298 284.738 89.933 284.599C89.9942 282.73 90.7515 280.98 92.0825 279.653C93.03 278.705 94.1901 278.048 95.4566 277.729C95.5823 277.696 95.6661 277.577 95.65 277.448Z" fill="#303030"/>
<rect x="147" y="142" width="160" height="50" rx="25" fill="#28C0E2"/>
<path d="M204.24 173.192C207.008 173.192 209.152 171.56 209.6 169.096H207.472C207.088 170.392 205.872 171.224 204.288 171.224C202.144 171.224 200.768 169.624 200.768 167.144C200.768 164.648 202.128 163.08 204.288 163.08C205.84 163.08 207.008 163.88 207.408 165.24H209.568C209.168 162.728 207.104 161.112 204.336 161.112C200.912 161.112 198.624 163.528 198.624 167.16C198.624 170.824 200.832 173.192 204.24 173.192ZM213.485 161.304H211.437V173H218.381V171.112H213.485V161.304ZM222.094 161.304H220.046V173H222.094V161.304ZM231.951 173V171.112H226.735V168.008H231.407V166.2H226.735V163.192H231.951V161.304H224.687V173H231.951ZM236.187 173V164.712L241.691 173H243.707V161.304H241.691V169.592L236.203 161.304H234.171V173H236.187ZM245.272 163.192H248.696V173H250.744V163.192H254.168V161.304H245.272V163.192Z" fill="#FDFDFD"/>
<circle cx="227" cy="107" r="25" fill="#28C0E2"/>
<path d="M234.507 109.404C233.7 108.596 232.757 107.938 231.722 107.457C233.182 106.275 234.113 104.47 234.113 102.446C234.113 98.8754 231.136 95.946 227.565 96.0008C224.049 96.0555 221.216 98.9205 221.216 102.446C221.216 104.47 222.151 106.275 223.608 107.457C222.572 107.937 221.63 108.596 220.823 109.404C219.064 111.167 218.065 113.493 218 115.975C217.999 116.009 218.005 116.043 218.018 116.075C218.03 116.107 218.049 116.137 218.073 116.161C218.097 116.186 218.126 116.205 218.158 116.219C218.189 116.232 218.223 116.239 218.258 116.239H220.063C220.201 116.239 220.317 116.129 220.32 115.991C220.382 114.122 221.139 112.372 222.47 111.044C223.151 110.359 223.961 109.817 224.853 109.447C225.746 109.078 226.702 108.889 227.668 108.891C229.631 108.891 231.477 109.655 232.866 111.044C234.194 112.372 234.951 114.122 235.016 115.991C235.019 116.129 235.135 116.239 235.274 116.239H237.078C237.113 116.239 237.147 116.232 237.178 116.219C237.21 116.205 237.239 116.186 237.263 116.161C237.287 116.137 237.306 116.107 237.318 116.075C237.331 116.043 237.337 116.009 237.336 115.975C237.272 113.493 236.273 111.167 234.507 109.404ZM227.668 106.571C226.566 106.571 225.528 106.142 224.752 105.363C224.362 104.976 224.054 104.515 223.846 104.006C223.639 103.498 223.536 102.953 223.543 102.404C223.553 101.347 223.975 100.326 224.713 99.5682C225.486 98.7755 226.521 98.334 227.626 98.3211C228.719 98.3114 229.779 98.7368 230.559 99.5006C231.358 100.284 231.796 101.331 231.796 102.446C231.796 103.548 231.368 104.583 230.588 105.363C230.205 105.747 229.75 106.052 229.249 106.259C228.748 106.467 228.21 106.573 227.668 106.571Z" fill="#FDFDFD"/>
<rect x="255" y="312" width="200" height="50" rx="25" fill="#DADADA"/>
<path d="M299.32 345V343.68H292.18V338.46H298.64V337.16H292.18V332H299.3V330.68H290.74V345H299.32ZM302.324 345L305.024 341.12L307.744 345H309.384L305.964 340.18L309.404 335.32H307.804L305.084 339.2L302.344 335.32H300.724L304.164 340.16L300.704 345H302.324ZM313.656 345V336.48H315.596V335.32H313.656V332.26H312.296V335.32H310.356V336.48H312.296V345H313.656ZM321.355 345.24C323.635 345.24 325.135 344.14 325.655 342.1H324.335C323.975 343.38 322.955 344.06 321.375 344.06C319.295 344.06 318.055 342.7 317.955 340.34H325.655V339.66C325.655 336.92 323.875 335.06 321.255 335.06C318.495 335.06 316.615 337.14 316.615 340.16C316.615 343.2 318.515 345.24 321.355 345.24ZM321.255 336.24C323.075 336.24 324.275 337.48 324.275 339.34H317.995C318.235 337.44 319.435 336.24 321.255 336.24ZM329.242 345V339.94C329.242 337.76 330.362 336.32 332.342 336.32C333.942 336.32 334.962 337.12 334.962 339.38V345H336.342V339.08C336.342 336.64 335.242 335.06 332.582 335.06C331.182 335.06 329.902 335.76 329.262 337L329.062 335.32H327.862V345H329.242ZM342.892 345.24C344.512 345.24 345.872 344.52 346.552 343.02L346.692 345H347.892V330.42H346.512V337.16C345.832 335.76 344.552 335.06 342.952 335.06C340.072 335.06 338.412 337.26 338.412 340.18C338.412 343.08 340.072 345.24 342.892 345.24ZM343.132 343.98C341.032 343.98 339.812 342.38 339.812 340.14C339.812 337.92 341.032 336.3 343.132 336.3C345.252 336.3 346.492 337.92 346.492 340.14C346.492 342.38 345.252 343.98 343.132 343.98ZM354.832 345.24C357.112 345.24 358.612 344.14 359.132 342.1H357.812C357.452 343.38 356.432 344.06 354.852 344.06C352.772 344.06 351.532 342.7 351.432 340.34H359.132V339.66C359.132 336.92 357.352 335.06 354.732 335.06C351.972 335.06 350.092 337.14 350.092 340.16C350.092 343.2 351.992 345.24 354.832 345.24ZM354.732 336.24C356.552 336.24 357.752 337.48 357.752 339.34H351.472C351.712 337.44 352.912 336.24 354.732 336.24ZM365.138 345.24C366.758 345.24 368.118 344.52 368.798 343.02L368.938 345H370.138V330.42H368.758V337.16C368.078 335.76 366.798 335.06 365.198 335.06C362.318 335.06 360.658 337.26 360.658 340.18C360.658 343.08 362.318 345.24 365.138 345.24ZM365.378 343.98C363.278 343.98 362.058 342.38 362.058 340.14C362.058 337.92 363.278 336.3 365.378 336.3C367.498 336.3 368.738 337.92 368.738 340.14C368.738 342.38 367.498 343.98 365.378 343.98ZM380.785 345V336.48H382.725V335.32H380.785V332.26H379.425V335.32H377.485V336.48H379.425V345H380.785ZM388.484 345.24C390.764 345.24 392.264 344.14 392.784 342.1H391.464C391.104 343.38 390.084 344.06 388.504 344.06C386.424 344.06 385.184 342.7 385.084 340.34H392.784V339.66C392.784 336.92 391.004 335.06 388.384 335.06C385.624 335.06 383.744 337.14 383.744 340.16C383.744 343.2 385.644 345.24 388.484 345.24ZM388.384 336.24C390.204 336.24 391.404 337.48 391.404 339.34H385.124C385.364 337.44 386.564 336.24 388.384 336.24ZM397.673 345.24C399.313 345.24 400.633 344.52 401.233 343.3L401.413 345H402.573V338.74C402.573 336.18 400.933 335.06 398.693 335.06C396.313 335.06 394.713 336.32 394.713 338.28H395.973C395.973 336.98 396.973 336.22 398.653 336.22C400.073 336.22 401.213 336.82 401.213 338.72V339.04L398.013 339.3C395.753 339.48 394.393 340.6 394.393 342.38C394.393 344.08 395.613 345.24 397.673 345.24ZM397.993 344.12C396.673 344.12 395.793 343.52 395.793 342.34C395.793 341.26 396.533 340.46 398.353 340.3L401.213 340.08V340.6C401.213 342.7 400.033 344.12 397.993 344.12ZM406.722 345V339C406.722 337.52 407.702 336.32 409.322 336.32C410.782 336.32 411.722 337.28 411.722 338.92V345H413.082V339.02C413.082 337.52 414.042 336.3 415.662 336.3C417.142 336.3 418.062 337.28 418.062 338.94V345H419.402V338.66C419.402 336.42 418.022 335.06 415.922 335.06C414.362 335.06 413.182 335.86 412.742 337.12C412.282 335.86 411.142 335.06 409.622 335.06C408.262 335.06 407.182 335.68 406.702 336.7L406.542 335.32H405.342V345H406.722Z" fill="#303030"/>
<circle cx="355" cy="277" r="25" fill="#DADADA"/>
<path d="M365.561 283.555C364.755 282.748 363.812 282.089 362.777 281.609C364.237 280.426 365.168 278.621 365.168 276.597C365.168 273.027 362.19 270.097 358.62 270.152C355.104 270.207 352.271 273.072 352.271 276.597C352.271 278.621 353.206 280.426 354.662 281.609C353.627 282.089 352.684 282.748 351.878 283.555C350.118 285.318 349.119 287.645 349.055 290.126C349.054 290.161 349.06 290.195 349.073 290.227C349.085 290.259 349.104 290.288 349.128 290.313C349.152 290.337 349.181 290.357 349.212 290.37C349.244 290.384 349.278 290.39 349.313 290.39H351.117C351.256 290.39 351.372 290.281 351.375 290.142C351.436 288.273 352.194 286.523 353.525 285.195C354.206 284.511 355.016 283.968 355.908 283.598C356.8 283.229 357.757 283.04 358.723 283.043C360.685 283.043 362.532 283.807 363.921 285.195C365.249 286.523 366.006 288.273 366.07 290.142C366.074 290.281 366.19 290.39 366.328 290.39H368.133C368.167 290.39 368.201 290.384 368.233 290.37C368.265 290.357 368.293 290.337 368.318 290.313C368.342 290.288 368.36 290.259 368.373 290.227C368.386 290.195 368.392 290.161 368.391 290.126C368.326 287.645 367.327 285.318 365.561 283.555ZM358.723 280.722C357.621 280.722 356.583 280.294 355.806 279.514C355.416 279.127 355.109 278.666 354.901 278.158C354.693 277.649 354.59 277.105 354.598 276.556C354.607 275.499 355.03 274.477 355.768 273.72C356.541 272.927 357.575 272.485 358.681 272.472C359.773 272.463 360.834 272.888 361.613 273.652C362.413 274.435 362.851 275.482 362.851 276.597C362.851 277.7 362.422 278.734 361.642 279.514C361.26 279.898 360.805 280.203 360.304 280.411C359.802 280.618 359.265 280.724 358.723 280.722ZM350.65 277.448C350.621 277.168 350.605 276.884 350.605 276.597C350.605 276.085 350.653 275.586 350.743 275.099C350.766 274.983 350.705 274.864 350.598 274.815C350.16 274.619 349.757 274.348 349.409 274.006C348.999 273.609 348.676 273.13 348.462 272.601C348.247 272.071 348.145 271.503 348.162 270.932C348.191 269.898 348.607 268.915 349.332 268.173C350.128 267.358 351.198 266.913 352.335 266.926C353.363 266.936 354.356 267.332 355.107 268.035C355.362 268.273 355.581 268.538 355.764 268.821C355.829 268.921 355.954 268.963 356.064 268.924C356.631 268.728 357.231 268.589 357.846 268.525C358.027 268.505 358.13 268.312 358.049 268.151C357.002 266.079 354.862 264.648 352.387 264.609C348.813 264.554 345.835 267.484 345.835 271.051C345.835 273.075 346.767 274.88 348.227 276.062C347.202 276.536 346.258 277.19 345.439 278.009C343.673 279.772 342.674 282.099 342.609 284.583C342.609 284.618 342.615 284.652 342.627 284.684C342.64 284.716 342.659 284.745 342.683 284.77C342.707 284.794 342.735 284.814 342.767 284.827C342.799 284.841 342.833 284.847 342.867 284.847H344.675C344.814 284.847 344.93 284.738 344.933 284.599C344.994 282.73 345.752 280.98 347.083 279.653C348.03 278.705 349.19 278.048 350.457 277.729C350.582 277.696 350.666 277.577 350.65 277.448Z" fill="#303030"/>
</svg>
