<svg width="328" height="166" viewBox="0 0 328 166" fill="none" xmlns="http://www.w3.org/2000/svg">
<path d="M21.8 21.24C25.26 21.24 27.94 19.2 28.5 16.12H25.84C25.36 17.74 23.84 18.78 21.86 18.78C19.18 18.78 17.46 16.78 17.46 13.68C17.46 10.56 19.16 8.6 21.86 8.6C23.8 8.6 25.26 9.6 25.76 11.3H28.46C27.96 8.16 25.38 6.14 21.92 6.14C17.64 6.14 14.78 9.16 14.78 13.7C14.78 18.28 17.54 21.24 21.8 21.24ZM29.8558 16.04C29.8558 19.12 32.0758 21.24 35.1358 21.24C38.1958 21.24 40.4158 19.12 40.4158 16.04C40.4158 12.96 38.1958 10.84 35.1358 10.84C32.0758 10.84 29.8558 12.96 29.8558 16.04ZM32.2958 16.04C32.2958 14.24 33.4558 13.02 35.1358 13.02C36.8158 13.02 37.9758 14.24 37.9758 16.04C37.9758 17.84 36.8158 19.06 35.1358 19.06C33.4558 19.06 32.2958 17.84 32.2958 16.04ZM44.7898 21V15.4C44.7898 13.8 45.7298 13.04 46.8898 13.04C48.0498 13.04 48.7898 13.78 48.7898 15.16V21H51.2298V15.4C51.2298 13.78 52.1298 13.02 53.3098 13.02C54.4698 13.02 55.2298 13.76 55.2298 15.18V21H57.6498V14.54C57.6498 12.26 56.3298 10.82 53.9298 10.82C52.4298 10.82 51.2698 11.56 50.7698 12.7C50.2498 11.56 49.2098 10.82 47.7098 10.82C46.2898 10.82 45.2898 11.46 44.7898 12.28L44.5898 11.12H42.3498V21H44.7898ZM62.4852 21V15.4C62.4852 13.8 63.4252 13.04 64.5852 13.04C65.7452 13.04 66.4852 13.78 66.4852 15.16V21H68.9252V15.4C68.9252 13.78 69.8252 13.02 71.0052 13.02C72.1652 13.02 72.9252 13.76 72.9252 15.18V21H75.3452V14.54C75.3452 12.26 74.0252 10.82 71.6252 10.82C70.1252 10.82 68.9652 11.56 68.4652 12.7C67.9452 11.56 66.9052 10.82 65.4052 10.82C63.9852 10.82 62.9852 11.46 62.4852 12.28L62.2852 11.12H60.0452V21H62.4852ZM84.4405 11.12V16.3C84.4405 18.18 83.7005 19.08 82.1605 19.08C80.8005 19.08 80.0605 18.32 80.0605 16.44V11.12H77.6205V17.3C77.6205 19.72 78.9605 21.26 81.2405 21.26C82.5605 21.26 83.8405 20.62 84.4405 19.68L84.6205 21H86.8805V11.12H84.4405ZM91.8406 21V15.68C91.8406 14.08 92.7606 13.04 94.2606 13.04C95.5206 13.04 96.3406 13.84 96.3406 15.5V21H98.7806V14.92C98.7806 12.36 97.5006 10.82 95.0206 10.82C93.6806 10.82 92.4806 11.4 91.8606 12.4L91.6606 11.12H89.4006V21H91.8406ZM102.398 9.14C103.198 9.14 103.858 8.48 103.858 7.66C103.858 6.84 103.198 6.2 102.398 6.2C101.558 6.2 100.898 6.84 100.898 7.66C100.898 8.48 101.558 9.14 102.398 9.14ZM101.178 21H103.618V11.12H101.178V21ZM105.559 16.04C105.559 19.18 107.519 21.26 110.519 21.26C113.099 21.26 115.019 19.68 115.319 17.38H112.859C112.599 18.46 111.739 19.06 110.519 19.06C108.959 19.06 107.999 17.9 107.999 16.04C107.999 14.18 109.039 13 110.599 13C111.759 13 112.579 13.58 112.859 14.7H115.299C115.039 12.32 113.199 10.82 110.499 10.82C107.579 10.82 105.559 12.98 105.559 16.04ZM120.075 21.26C121.615 21.26 122.955 20.56 123.375 19.54L123.555 21H125.695V15C125.695 12.26 124.055 10.82 121.395 10.82C118.715 10.82 116.955 12.22 116.955 14.36H119.035C119.035 13.32 119.835 12.72 121.275 12.72C122.515 12.72 123.315 13.26 123.315 14.6V14.82L120.355 15.04C118.015 15.22 116.695 16.36 116.695 18.18C116.695 20.04 117.975 21.26 120.075 21.26ZM120.875 19.42C119.775 19.42 119.175 18.98 119.175 18.08C119.175 17.28 119.755 16.78 121.275 16.64L123.335 16.48V17C123.335 18.52 122.375 19.42 120.875 19.42ZM131.315 21V13.16H133.235V11.12H131.315V8.04H128.875V11.12H126.975V13.16H128.875V21H131.315ZM135.972 9.14C136.772 9.14 137.432 8.48 137.432 7.66C137.432 6.84 136.772 6.2 135.972 6.2C135.132 6.2 134.472 6.84 134.472 7.66C134.472 8.48 135.132 9.14 135.972 9.14ZM134.752 21H137.192V11.12H134.752V21ZM139.133 16.04C139.133 19.12 141.353 21.24 144.413 21.24C147.473 21.24 149.693 19.12 149.693 16.04C149.693 12.96 147.473 10.84 144.413 10.84C141.353 10.84 139.133 12.96 139.133 16.04ZM141.573 16.04C141.573 14.24 142.733 13.02 144.413 13.02C146.093 13.02 147.253 14.24 147.253 16.04C147.253 17.84 146.093 19.06 144.413 19.06C142.733 19.06 141.573 17.84 141.573 16.04ZM154.067 21V15.68C154.067 14.08 154.987 13.04 156.487 13.04C157.747 13.04 158.567 13.84 158.567 15.5V21H161.007V14.92C161.007 12.36 159.727 10.82 157.247 10.82C155.907 10.82 154.707 11.4 154.087 12.4L153.887 11.12H151.627V21H154.067ZM170.015 9.14C170.815 9.14 171.475 8.48 171.475 7.66C171.475 6.84 170.815 6.2 170.015 6.2C169.175 6.2 168.515 6.84 168.515 7.66C168.515 8.48 169.175 9.14 170.015 9.14ZM168.795 21H171.235V11.12H168.795V21ZM176.196 21V15.68C176.196 14.08 177.116 13.04 178.616 13.04C179.876 13.04 180.696 13.84 180.696 15.5V21H183.136V14.92C183.136 12.36 181.856 10.82 179.376 10.82C178.036 10.82 176.836 11.4 176.216 12.4L176.016 11.12H173.756V21H176.196ZM204.624 13.68C204.624 9.22 201.704 6.12 197.524 6.12C193.344 6.12 190.444 9.24 190.444 13.68C190.444 18.14 193.324 21.24 197.504 21.24C201.704 21.24 204.624 18.12 204.624 13.68ZM201.924 13.68C201.924 16.76 200.204 18.78 197.524 18.78C194.844 18.78 193.124 16.8 193.124 13.68C193.124 10.56 194.844 8.58 197.524 8.58C200.204 8.58 201.924 10.56 201.924 13.68ZM213.347 11.12V16.3C213.347 18.18 212.607 19.08 211.067 19.08C209.707 19.08 208.967 18.32 208.967 16.44V11.12H206.527V17.3C206.527 19.72 207.867 21.26 210.147 21.26C211.467 21.26 212.747 20.62 213.347 19.68L213.527 21H215.787V11.12H213.347ZM221.667 21V13.16H223.587V11.12H221.667V8.04H219.227V11.12H217.327V13.16H219.227V21H221.667ZM224.344 18C224.344 19.94 225.904 21.26 228.364 21.26C230.804 21.26 232.504 20.02 232.504 18.02C232.504 16.5 231.664 15.74 230.004 15.36L228.224 14.94C227.384 14.74 226.944 14.38 226.944 13.82C226.944 13.08 227.504 12.64 228.464 12.64C229.404 12.64 229.964 13.18 229.984 14.02H232.304C232.284 12.1 230.784 10.82 228.564 10.82C226.284 10.82 224.644 11.98 224.644 13.92C224.644 15.5 225.504 16.34 227.284 16.74L229.064 17.16C229.944 17.36 230.204 17.72 230.204 18.22C230.204 18.94 229.584 19.4 228.444 19.4C227.324 19.4 226.684 18.86 226.664 18H224.344ZM233.782 16.04C233.782 19.12 236.002 21.24 239.062 21.24C242.122 21.24 244.342 19.12 244.342 16.04C244.342 12.96 242.122 10.84 239.062 10.84C236.002 10.84 233.782 12.96 233.782 16.04ZM236.222 16.04C236.222 14.24 237.382 13.02 239.062 13.02C240.742 13.02 241.902 14.24 241.902 16.04C241.902 17.84 240.742 19.06 239.062 19.06C237.382 19.06 236.222 17.84 236.222 16.04ZM252.741 11.12V16.3C252.741 18.18 252.001 19.08 250.461 19.08C249.101 19.08 248.361 18.32 248.361 16.44V11.12H245.921V17.3C245.921 19.72 247.261 21.26 249.541 21.26C250.861 21.26 252.141 20.62 252.741 19.68L252.921 21H255.181V11.12H252.741ZM263.901 11.08C263.501 10.98 263.161 10.94 262.821 10.94C261.501 10.94 260.561 11.6 260.141 12.58L260.001 11.14H257.701V21H260.141V16.2C260.141 14.28 261.241 13.34 263.001 13.34H263.901V11.08ZM264.641 16.04C264.641 19.18 266.601 21.26 269.601 21.26C272.181 21.26 274.101 19.68 274.401 17.38H271.941C271.681 18.46 270.821 19.06 269.601 19.06C268.041 19.06 267.081 17.9 267.081 16.04C267.081 14.18 268.121 13 269.681 13C270.841 13 271.661 13.58 271.941 14.7H274.381C274.121 12.32 272.281 10.82 269.581 10.82C266.661 10.82 264.641 12.98 264.641 16.04ZM277.437 9.14C278.237 9.14 278.897 8.48 278.897 7.66C278.897 6.84 278.237 6.2 277.437 6.2C276.597 6.2 275.937 6.84 275.937 7.66C275.937 8.48 276.597 9.14 277.437 9.14ZM276.217 21H278.657V11.12H276.217V21ZM283.618 21V15.68C283.618 14.08 284.538 13.04 286.038 13.04C287.298 13.04 288.118 13.84 288.118 15.5V21H290.558V14.92C290.558 12.36 289.278 10.82 286.798 10.82C285.458 10.82 284.258 11.4 283.638 12.4L283.438 11.12H281.178V21H283.618ZM292.395 15.84C292.395 18.7 294.235 20.8 297.035 20.8C298.455 20.8 299.675 20.22 300.295 19.3V20.94C300.295 22.58 299.215 23.64 297.535 23.64C296.035 23.64 295.055 22.88 294.895 21.6H292.455C292.755 24.24 294.695 25.86 297.535 25.86C300.735 25.86 302.715 23.8 302.715 20.5V11.12H300.455L300.315 12.48C299.735 11.42 298.575 10.8 297.095 10.8C294.275 10.8 292.395 12.96 292.395 15.84ZM294.855 15.78C294.855 14.16 295.895 12.94 297.515 12.94C299.215 12.94 300.235 14.1 300.235 15.78C300.235 17.5 299.195 18.68 297.515 18.68C295.915 18.68 294.855 17.44 294.855 15.78Z" fill="#303030"/>
<rect x="32.7998" y="57" width="109.333" height="27.2499" rx="13.625" fill="#28C0E2"/>
<path d="M75.757 75.1154C77.4407 75.1154 78.8074 74.1205 79.1682 72.6445H78.3263C77.9874 73.6941 77.0034 74.361 75.7679 74.361C74.0514 74.361 72.9034 73.049 72.9034 71.081C72.9034 69.1021 74.0514 67.7901 75.7679 67.7901C76.9925 67.7901 77.9546 68.4789 78.2826 69.605H79.1245C78.8074 68.0525 77.4845 67.0357 75.8007 67.0357C73.5922 67.0357 72.0834 68.6757 72.0834 71.081C72.0834 73.4863 73.5703 75.1154 75.757 75.1154ZM81.0994 74.9951V67.0247H80.345V74.9951H81.0994ZM83.0756 68.2493C83.3817 68.2493 83.6441 67.9978 83.6441 67.6917C83.6441 67.3855 83.3817 67.1231 83.0756 67.1231C82.7695 67.1231 82.518 67.3855 82.518 67.6917C82.518 67.9978 82.7695 68.2493 83.0756 68.2493ZM82.7039 74.9951H83.4583V69.7034H82.7039V74.9951ZM87.2509 75.1263C88.4973 75.1263 89.3173 74.525 89.6016 73.4098H88.88C88.6832 74.1095 88.1256 74.4813 87.2619 74.4813C86.1248 74.4813 85.4469 73.7378 85.3923 72.4477H89.6016V72.0759C89.6016 70.5781 88.6285 69.5613 87.1963 69.5613C85.6875 69.5613 84.6597 70.6983 84.6597 72.3493C84.6597 74.0111 85.6984 75.1263 87.2509 75.1263ZM87.1963 70.2063C88.1912 70.2063 88.8472 70.8842 88.8472 71.901H85.4141C85.5453 70.8623 86.2013 70.2063 87.1963 70.2063ZM91.5622 74.9951V72.229C91.5622 71.0373 92.1744 70.2501 93.2568 70.2501C94.1315 70.2501 94.6891 70.6874 94.6891 71.9229V74.9951H95.4435V71.7589C95.4435 70.425 94.8422 69.5613 93.388 69.5613C92.6227 69.5613 91.923 69.9439 91.5731 70.6218L91.4638 69.7034H90.8078V74.9951H91.5622ZM98.1607 74.9951V70.3375H99.2212V69.7034H98.1607V68.0306H97.4172V69.7034H96.3567V70.3375H97.4172V74.9951H98.1607Z" fill="#FDFDFD"/>
<ellipse cx="13.6667" cy="70.625" rx="13.6667" ry="13.625" fill="#28C0E2"/>
<path d="M17.7701 71.9359C17.3292 71.4959 16.8139 71.1368 16.248 70.8751C17.0461 70.2305 17.5552 69.2469 17.5552 68.144C17.5552 66.1979 15.9274 64.6014 13.9754 64.6313C12.0534 64.6611 10.5048 66.2225 10.5048 68.144C10.5048 69.2469 11.0157 70.2305 11.812 70.8751C11.246 71.1366 10.7307 71.4958 10.2899 71.9359C9.32799 72.8966 8.78186 74.1647 8.74663 75.5171C8.74616 75.5358 8.74945 75.5545 8.75633 75.5719C8.7632 75.5894 8.7735 75.6053 8.78664 75.6187C8.79977 75.6321 8.81547 75.6428 8.8328 75.6501C8.85014 75.6574 8.86876 75.6611 8.88756 75.6611H9.87413C9.94988 75.6611 10.0133 75.6014 10.0151 75.5259C10.0485 74.5072 10.4625 73.5535 11.1901 72.8299C11.5624 72.4567 12.0053 72.1609 12.4931 71.9595C12.9808 71.7581 13.5038 71.6552 14.0318 71.6566C15.1047 71.6566 16.1141 72.0729 16.8734 72.8299C17.5993 73.5535 18.0133 74.5072 18.0485 75.5259C18.0503 75.6014 18.1137 75.6611 18.1894 75.6611H19.176C19.1948 75.6611 19.2134 75.6574 19.2308 75.6501C19.2481 75.6428 19.2638 75.6321 19.2769 75.6187C19.2901 75.6053 19.3004 75.5894 19.3072 75.5719C19.3141 75.5545 19.3174 75.5358 19.3169 75.5171C19.2817 74.1647 18.7356 72.8966 17.7701 71.9359ZM14.0318 70.3921C13.4293 70.3921 12.862 70.1585 12.4374 69.7334C12.2244 69.5227 12.056 69.2713 11.9425 68.9943C11.829 68.7173 11.7727 68.4203 11.7768 68.1211C11.7821 67.545 12.0129 66.9883 12.4163 66.5755C12.8391 66.1435 13.4046 65.9029 14.0089 65.8958C14.6061 65.8906 15.1857 66.1224 15.612 66.5387C16.0489 66.9655 16.2885 67.5363 16.2885 68.144C16.2885 68.7446 16.0542 69.3084 15.6279 69.7334C15.4187 69.943 15.17 70.1091 14.896 70.2221C14.622 70.3352 14.3283 70.3929 14.0318 70.3921Z" fill="#FDFDFD"/>
<rect x="218.667" y="57" width="109.333" height="27.2499" rx="13.625" fill="#FF740F"/>
<path d="M260.323 72.1197C261.821 72.1197 262.783 71.0482 262.783 69.6269C262.783 68.1509 261.832 67.1669 260.323 67.1669H257.338V74.9951H258.125V72.1197H260.323ZM260.213 67.8775C261.296 67.8775 261.963 68.5335 261.963 69.6159C261.963 70.6874 261.307 71.409 260.17 71.409H258.125V67.8775H260.213ZM266.656 69.6378C266.47 69.5941 266.328 69.5831 266.164 69.5831C265.42 69.5831 264.863 69.9549 264.655 70.5234L264.6 69.7034H263.89V74.9951H264.644V71.9775C264.644 70.9717 265.267 70.3157 266.24 70.3157H266.656V69.6378ZM267.084 72.3493C267.084 73.9565 268.221 75.1263 269.774 75.1263C271.326 75.1263 272.463 73.9565 272.463 72.3493C272.463 70.7311 271.326 69.5613 269.774 69.5613C268.221 69.5613 267.084 70.7311 267.084 72.3493ZM267.85 72.3383C267.85 71.1138 268.637 70.2391 269.774 70.2391C270.9 70.2391 271.698 71.1138 271.698 72.3383C271.698 73.5847 270.9 74.4485 269.774 74.4485C268.637 74.4485 267.85 73.5847 267.85 72.3383ZM274.053 68.2493C274.348 68.2493 274.61 67.9978 274.61 67.6917C274.61 67.3855 274.348 67.1231 274.053 67.1231C273.736 67.1231 273.484 67.3855 273.484 67.6917C273.484 67.9978 273.736 68.2493 274.053 68.2493ZM272.26 77.313C272.533 77.3895 272.686 77.4114 272.97 77.4114C273.9 77.4114 274.424 76.7991 274.424 75.7933V69.7034H273.67V75.7495C273.67 76.3946 273.44 76.7007 272.916 76.7007C272.752 76.7007 272.62 76.6788 272.402 76.6242L272.26 77.313ZM278.217 75.1263C279.463 75.1263 280.283 74.525 280.568 73.4098H279.846C279.649 74.1095 279.092 74.4813 278.228 74.4813C277.091 74.4813 276.413 73.7378 276.358 72.4477H280.568V72.0759C280.568 70.5781 279.595 69.5613 278.162 69.5613C276.654 69.5613 275.626 70.6983 275.626 72.3493C275.626 74.0111 276.665 75.1263 278.217 75.1263ZM278.162 70.2063C279.157 70.2063 279.813 70.8842 279.813 71.901H276.38C276.511 70.8623 277.167 70.2063 278.162 70.2063ZM281.402 72.3602C281.402 74.0221 282.419 75.1263 283.917 75.1263C285.119 75.1263 286.06 74.4157 286.311 73.3333H285.546C285.338 74.0111 284.704 74.4485 283.917 74.4485C282.845 74.4485 282.146 73.6066 282.146 72.3493C282.146 71.0482 282.9 70.2282 283.971 70.2282C284.704 70.2282 285.338 70.6327 285.535 71.3653H286.289C286.082 70.2719 285.185 69.5613 283.961 69.5613C282.419 69.5613 281.402 70.6983 281.402 72.3602ZM288.668 74.9951V70.3375H289.728V69.7034H288.668V68.0306H287.924V69.7034H286.864V70.3375H287.924V74.9951H288.668Z" fill="#FDFDFD"/>
<ellipse cx="199.533" cy="70.625" rx="13.6667" ry="13.625" fill="#FF740F"/>
<g clip-path="url(#clip0_1266_8177)">
<path d="M207.63 65.993V64.8349C207.63 64.5277 207.508 64.2332 207.29 64.016C207.072 63.7988 206.777 63.6768 206.469 63.6768H193.69C193.382 63.6768 193.087 63.7988 192.869 64.016C192.651 64.2332 192.529 64.5277 192.529 64.8349V65.993C192.529 66.3002 192.651 66.5947 192.869 66.8119C193.087 67.0291 193.382 67.1511 193.69 67.1511V74.0999H193.11C192.956 74.0999 192.808 74.1609 192.699 74.2695C192.59 74.3781 192.529 74.5253 192.529 74.6789C192.529 74.8325 192.59 74.9798 192.699 75.0884C192.808 75.197 192.956 75.258 193.11 75.258H199.499V76.5174C199.111 76.654 198.785 76.9228 198.577 77.2763C198.369 77.6297 198.293 78.0451 198.362 78.449C198.432 78.8529 198.642 79.2193 198.957 79.4834C199.271 79.7476 199.669 79.8924 200.08 79.8924C200.491 79.8924 200.889 79.7476 201.203 79.4834C201.517 79.2193 201.728 78.8529 201.797 78.449C201.867 78.0451 201.791 77.6297 201.583 77.2763C201.375 76.9228 201.048 76.654 200.66 76.5174V75.258H207.05C207.204 75.258 207.351 75.197 207.46 75.0884C207.569 74.9798 207.63 74.8325 207.63 74.6789C207.63 74.5253 207.569 74.3781 207.46 74.2695C207.351 74.1609 207.204 74.0999 207.05 74.0999H206.469V67.1511C206.777 67.1511 207.072 67.0291 207.29 66.8119C207.508 66.5947 207.63 66.3002 207.63 65.993ZM200.08 78.7323C199.965 78.7323 199.852 78.6984 199.757 78.6348C199.661 78.5711 199.587 78.4807 199.543 78.3749C199.499 78.2691 199.488 78.1526 199.51 78.0403C199.532 77.928 199.588 77.8248 199.669 77.7438C199.75 77.6628 199.854 77.6077 199.966 77.5853C200.079 77.563 200.196 77.5745 200.302 77.6183C200.408 77.6621 200.499 77.7363 200.563 77.8316C200.626 77.9268 200.66 78.0388 200.66 78.1533C200.66 78.3069 200.599 78.4541 200.49 78.5627C200.381 78.6713 200.234 78.7323 200.08 78.7323ZM193.69 64.8349H206.469V65.993H193.69V64.8349ZM205.307 74.0999H194.852V67.1511H205.307V74.0999Z" fill="#FDFDFD"/>
</g>
<rect x="218.667" y="138.75" width="109.333" height="27.2499" rx="13.625" fill="#DADADA"/>
<path d="M260.345 149.638H262.75V156.745H263.537V149.638H265.953V148.917H260.345V149.638ZM268.281 156.876C269.527 156.876 270.347 156.275 270.632 155.16H269.91C269.713 155.86 269.156 156.231 268.292 156.231C267.155 156.231 266.477 155.488 266.422 154.198H270.632V153.826C270.632 152.328 269.659 151.311 268.226 151.311C266.718 151.311 265.69 152.448 265.69 154.099C265.69 155.761 266.728 156.876 268.281 156.876ZM268.226 151.956C269.221 151.956 269.877 152.634 269.877 153.651H266.444C266.575 152.612 267.231 151.956 268.226 151.956ZM273.304 156.876C274.201 156.876 274.922 156.483 275.25 155.816L275.349 156.745H275.983V153.323C275.983 151.924 275.086 151.311 273.862 151.311C272.561 151.311 271.686 152 271.686 153.072H272.375C272.375 152.361 272.921 151.945 273.84 151.945C274.616 151.945 275.239 152.273 275.239 153.312V153.487L273.49 153.629C272.255 153.728 271.511 154.34 271.511 155.313C271.511 156.242 272.178 156.876 273.304 156.876ZM273.479 156.264C272.757 156.264 272.276 155.936 272.276 155.291C272.276 154.701 272.681 154.263 273.676 154.176L275.239 154.056V154.34C275.239 155.488 274.594 156.264 273.479 156.264ZM278.251 156.745V153.465C278.251 152.656 278.787 152 279.672 152C280.471 152 280.984 152.525 280.984 153.421V156.745H281.728V153.476C281.728 152.656 282.253 151.989 283.138 151.989C283.947 151.989 284.45 152.525 284.45 153.432V156.745H285.183V153.279C285.183 152.055 284.428 151.311 283.28 151.311C282.428 151.311 281.783 151.749 281.542 152.437C281.291 151.749 280.667 151.311 279.836 151.311C279.093 151.311 278.503 151.65 278.24 152.208L278.153 151.453H277.497V156.745H278.251Z" fill="#303030"/>
<ellipse cx="199.533" cy="152.375" rx="13.6667" ry="13.625" fill="#DADADA"/>
<path d="M205.307 155.947C204.866 155.507 204.351 155.148 203.785 154.886C204.583 154.242 205.092 153.258 205.092 152.155C205.092 150.209 203.464 148.613 201.512 148.642C199.59 148.672 198.041 150.234 198.041 152.155C198.041 153.258 198.552 154.242 199.349 154.886C198.783 155.148 198.267 155.507 197.827 155.947C196.865 156.908 196.318 158.176 196.283 159.528C196.283 159.547 196.286 159.566 196.293 159.583C196.3 159.601 196.31 159.616 196.323 159.63C196.336 159.643 196.352 159.654 196.369 159.661C196.387 159.669 196.405 159.672 196.424 159.672H197.411C197.486 159.672 197.55 159.613 197.552 159.537C197.585 158.518 197.999 157.565 198.727 156.841C199.099 156.468 199.542 156.172 200.03 155.971C200.517 155.769 201.04 155.666 201.568 155.668C202.641 155.668 203.651 156.084 204.41 156.841C205.136 157.565 205.55 158.518 205.585 159.537C205.587 159.613 205.65 159.672 205.726 159.672H206.713C206.731 159.672 206.75 159.669 206.767 159.661C206.785 159.654 206.8 159.643 206.814 159.63C206.827 159.616 206.837 159.601 206.844 159.583C206.851 159.566 206.854 159.547 206.854 159.528C206.818 158.176 206.272 156.908 205.307 155.947ZM201.568 154.403C200.966 154.403 200.399 154.17 199.974 153.745C199.761 153.534 199.593 153.282 199.479 153.005C199.366 152.728 199.309 152.431 199.313 152.132C199.319 151.556 199.549 150.999 199.953 150.587C200.376 150.155 200.941 149.914 201.545 149.907C202.143 149.902 202.722 150.134 203.149 150.55C203.586 150.977 203.825 151.547 203.825 152.155C203.825 152.756 203.591 153.32 203.165 153.745C202.955 153.954 202.707 154.12 202.433 154.233C202.159 154.346 201.865 154.404 201.568 154.403ZM197.155 152.619C197.139 152.466 197.131 152.311 197.131 152.155C197.131 151.876 197.157 151.604 197.206 151.338C197.219 151.275 197.185 151.21 197.127 151.184C196.888 151.077 196.667 150.929 196.477 150.743C196.253 150.526 196.076 150.265 195.959 149.977C195.842 149.688 195.786 149.379 195.795 149.067C195.811 148.504 196.038 147.968 196.435 147.564C196.87 147.12 197.455 146.877 198.077 146.884C198.639 146.89 199.181 147.106 199.592 147.488C199.731 147.618 199.851 147.762 199.951 147.917C199.986 147.971 200.055 147.994 200.115 147.973C200.425 147.866 200.753 147.791 201.089 147.755C201.188 147.745 201.244 147.64 201.2 147.552C200.628 146.422 199.458 145.643 198.105 145.622C196.151 145.592 194.523 147.188 194.523 149.132C194.523 150.235 195.032 151.219 195.83 151.864C195.27 152.122 194.754 152.478 194.307 152.924C193.341 153.885 192.795 155.153 192.76 156.507C192.759 156.526 192.763 156.545 192.77 156.562C192.776 156.58 192.787 156.596 192.8 156.609C192.813 156.622 192.829 156.633 192.846 156.64C192.863 156.648 192.882 156.651 192.901 156.651H193.889C193.965 156.651 194.028 156.592 194.03 156.516C194.063 155.497 194.477 154.544 195.205 153.82C195.723 153.304 196.357 152.945 197.05 152.772C197.118 152.754 197.164 152.689 197.155 152.619Z" fill="#303030"/>
<rect x="32.7998" y="138.75" width="109.333" height="27.2499" rx="13.625" fill="#DADADA"/>
<path d="M51.4961 153.87C52.9939 153.87 53.9561 152.798 53.9561 151.377C53.9561 149.901 53.0049 148.917 51.4961 148.917H48.5113V156.745H49.2985V153.87H51.4961ZM51.3867 149.628C52.4691 149.628 53.1361 150.284 53.1361 151.366C53.1361 152.437 52.4801 153.159 51.343 153.159H49.2985V149.628H51.3867ZM57.8293 151.388C57.6434 151.344 57.5013 151.333 57.3373 151.333C56.5938 151.333 56.0362 151.705 55.8285 152.273L55.7738 151.453H55.0631V156.745H55.8175V153.728C55.8175 152.722 56.4407 152.066 57.4138 152.066H57.8293V151.388ZM58.2575 154.099C58.2575 155.706 59.3946 156.876 60.9471 156.876C62.4997 156.876 63.6367 155.706 63.6367 154.099C63.6367 152.481 62.4997 151.311 60.9471 151.311C59.3946 151.311 58.2575 152.481 58.2575 154.099ZM59.0229 154.088C59.0229 152.864 59.8101 151.989 60.9471 151.989C62.0733 151.989 62.8714 152.864 62.8714 154.088C62.8714 155.335 62.0733 156.198 60.9471 156.198C59.8101 156.198 59.0229 155.335 59.0229 154.088ZM65.226 149.999C65.5212 149.999 65.7836 149.748 65.7836 149.442C65.7836 149.136 65.5212 148.873 65.226 148.873C64.9089 148.873 64.6575 149.136 64.6575 149.442C64.6575 149.748 64.9089 149.999 65.226 149.999ZM63.4329 159.063C63.7063 159.14 63.8593 159.161 64.1436 159.161C65.0729 159.161 65.5977 158.549 65.5977 157.543V151.453H64.8433V157.5C64.8433 158.145 64.6137 158.451 64.0889 158.451C63.9249 158.451 63.7937 158.429 63.5751 158.374L63.4329 159.063ZM69.3904 156.876C70.6368 156.876 71.4568 156.275 71.7411 155.16H71.0195C70.8227 155.86 70.2651 156.231 69.4013 156.231C68.2643 156.231 67.5864 155.488 67.5317 154.198H71.7411V153.826C71.7411 152.328 70.768 151.311 69.3357 151.311C67.8269 151.311 66.7992 152.448 66.7992 154.099C66.7992 155.761 67.8379 156.876 69.3904 156.876ZM69.3357 151.956C70.3307 151.956 70.9867 152.634 70.9867 153.651H67.5536C67.6848 152.612 68.3408 151.956 69.3357 151.956ZM72.5755 154.11C72.5755 155.772 73.5923 156.876 75.0902 156.876C76.2928 156.876 77.2331 156.166 77.4846 155.083H76.7192C76.5115 155.761 75.8774 156.198 75.0902 156.198C74.0187 156.198 73.319 155.357 73.319 154.099C73.319 152.798 74.0734 151.978 75.1448 151.978C75.8774 151.978 76.5115 152.383 76.7083 153.115H77.4627C77.255 152.022 76.3584 151.311 75.1339 151.311C73.5923 151.311 72.5755 152.448 72.5755 154.11ZM79.841 156.745V152.088H80.9016V151.453H79.841V149.781H79.0976V151.453H78.037V152.088H79.0976V156.745H79.841ZM85.6706 156.745V153.465C85.6706 152.656 86.2064 152 87.092 152C87.8901 152 88.404 152.525 88.404 153.421V156.745H89.1474V153.476C89.1474 152.656 89.6722 151.989 90.5578 151.989C91.3669 151.989 91.8698 152.525 91.8698 153.432V156.745H92.6024V153.279C92.6024 152.055 91.848 151.311 90.7 151.311C89.8472 151.311 89.2021 151.749 88.9616 152.437C88.7101 151.749 88.0869 151.311 87.256 151.311C86.5125 151.311 85.9221 151.65 85.6597 152.208L85.5722 151.453H84.9162V156.745H85.6706ZM95.6396 156.876C96.5361 156.876 97.2577 156.483 97.5857 155.816L97.6841 156.745H98.3183V153.323C98.3183 151.924 97.4217 151.311 96.1972 151.311C94.8961 151.311 94.0215 152 94.0215 153.072H94.7103C94.7103 152.361 95.2569 151.945 96.1753 151.945C96.9516 151.945 97.5748 152.273 97.5748 153.312V153.487L95.8255 153.629C94.59 153.728 93.8465 154.34 93.8465 155.313C93.8465 156.242 94.5135 156.876 95.6396 156.876ZM95.8145 156.264C95.0929 156.264 94.6119 155.936 94.6119 155.291C94.6119 154.701 95.0164 154.263 96.0113 154.176L97.5748 154.056V154.34C97.5748 155.488 96.9297 156.264 95.8145 156.264ZM100.587 156.745V153.979C100.587 152.787 101.199 152 102.281 152C103.156 152 103.713 152.437 103.713 153.673V156.745H104.468V153.509C104.468 152.175 103.867 151.311 102.412 151.311C101.647 151.311 100.947 151.694 100.597 152.372L100.488 151.453H99.8321V156.745H100.587ZM107.491 156.876C108.388 156.876 109.109 156.483 109.437 155.816L109.536 156.745H110.17V153.323C110.17 151.924 109.273 151.311 108.049 151.311C106.748 151.311 105.873 152 105.873 153.072H106.562C106.562 152.361 107.109 151.945 108.027 151.945C108.803 151.945 109.426 152.273 109.426 153.312V153.487L107.677 153.629C106.442 153.728 105.698 154.34 105.698 155.313C105.698 156.242 106.365 156.876 107.491 156.876ZM107.666 156.264C106.945 156.264 106.463 155.936 106.463 155.291C106.463 154.701 106.868 154.263 107.863 154.176L109.426 154.056V154.34C109.426 155.488 108.781 156.264 107.666 156.264ZM111.323 153.946C111.323 155.389 112.241 156.581 113.75 156.581C114.658 156.581 115.39 156.144 115.751 155.4V156.658C115.751 157.762 115.029 158.494 113.947 158.494C112.996 158.494 112.34 157.992 112.176 157.139H111.421C111.629 158.418 112.58 159.183 113.936 159.183C115.488 159.183 116.494 158.156 116.494 156.581V151.453H115.838L115.762 152.514C115.423 151.738 114.723 151.311 113.805 151.311C112.252 151.311 111.323 152.503 111.323 153.946ZM112.077 153.935C112.077 152.864 112.733 151.978 113.87 151.978C115.029 151.978 115.685 152.809 115.685 153.935C115.685 155.072 115.007 155.903 113.859 155.903C112.744 155.903 112.077 155.018 112.077 153.935ZM120.288 156.876C121.534 156.876 122.354 156.275 122.639 155.16H121.917C121.72 155.86 121.163 156.231 120.299 156.231C119.162 156.231 118.484 155.488 118.429 154.198H122.639V153.826C122.639 152.328 121.666 151.311 120.233 151.311C118.725 151.311 117.697 152.448 117.697 154.099C117.697 155.761 118.735 156.876 120.288 156.876ZM120.233 151.956C121.228 151.956 121.884 152.634 121.884 153.651H118.451C118.582 152.612 119.238 151.956 120.233 151.956ZM126.611 151.388C126.425 151.344 126.283 151.333 126.119 151.333C125.376 151.333 124.818 151.705 124.61 152.273L124.556 151.453H123.845V156.745H124.599V153.728C124.599 152.722 125.222 152.066 126.196 152.066H126.611V151.388Z" fill="#303030"/>
<ellipse cx="13.6667" cy="152.375" rx="13.6667" ry="13.625" fill="#DADADA"/>
<path d="M7.44818 145.699C7.32132 145.699 7.19965 145.749 7.10995 145.839C7.02025 145.928 6.96985 146.049 6.96985 146.176V149.037C6.96985 149.163 6.91945 149.285 6.82975 149.374C6.74004 149.464 6.61838 149.514 6.49152 149.514C6.36465 149.514 6.24299 149.464 6.15328 149.374C6.06358 149.285 6.01318 149.163 6.01318 149.037V146.176C6.01318 145.796 6.16437 145.432 6.43349 145.164C6.7026 144.896 7.0676 144.745 7.44818 144.745H10.3182C10.445 144.745 10.5667 144.795 10.6564 144.885C10.7461 144.974 10.7965 145.096 10.7965 145.222C10.7965 145.348 10.7461 145.47 10.6564 145.559C10.5667 145.649 10.445 145.699 10.3182 145.699H7.44818ZM16.5365 145.222C16.5365 145.096 16.5869 144.974 16.6766 144.885C16.7663 144.795 16.888 144.745 17.0148 144.745H19.8848C20.2654 144.745 20.6304 144.896 20.8995 145.164C21.1687 145.432 21.3198 145.796 21.3198 146.176V149.037C21.3198 149.163 21.2694 149.285 21.1797 149.374C21.09 149.464 20.9684 149.514 20.8415 149.514C20.7146 149.514 20.593 149.464 20.5033 149.374C20.4136 149.285 20.3632 149.163 20.3632 149.037V146.176C20.3632 146.049 20.3128 145.928 20.2231 145.839C20.1334 145.749 20.0117 145.699 19.8848 145.699H17.0148C16.888 145.699 16.7663 145.649 16.6766 145.559C16.5869 145.47 16.5365 145.348 16.5365 145.222ZM6.49152 155.236C6.61838 155.236 6.74004 155.287 6.82975 155.376C6.91945 155.465 6.96985 155.587 6.96985 155.713V158.574C6.96985 158.701 7.02025 158.822 7.10995 158.912C7.19965 159.001 7.32132 159.051 7.44818 159.051H10.3182C10.445 159.051 10.5667 159.102 10.6564 159.191C10.7461 159.28 10.7965 159.402 10.7965 159.528C10.7965 159.655 10.7461 159.776 10.6564 159.865C10.5667 159.955 10.445 160.005 10.3182 160.005H7.44818C7.0676 160.005 6.7026 159.854 6.43349 159.586C6.16437 159.318 6.01318 158.954 6.01318 158.574V155.713C6.01318 155.587 6.06358 155.465 6.15328 155.376C6.24299 155.287 6.36465 155.236 6.49152 155.236ZM20.8415 155.236C20.9684 155.236 21.09 155.287 21.1797 155.376C21.2694 155.465 21.3198 155.587 21.3198 155.713V158.574C21.3198 158.954 21.1687 159.318 20.8995 159.586C20.6304 159.854 20.2654 160.005 19.8848 160.005H17.0148C16.888 160.005 16.7663 159.955 16.6766 159.865C16.5869 159.776 16.5365 159.655 16.5365 159.528C16.5365 159.402 16.5869 159.28 16.6766 159.191C16.7663 159.102 16.888 159.051 17.0148 159.051H19.8848C20.0117 159.051 20.1334 159.001 20.2231 158.912C20.3128 158.822 20.3632 158.701 20.3632 158.574V155.713C20.3632 155.587 20.4136 155.465 20.5033 155.376C20.593 155.287 20.7146 155.236 20.8415 155.236Z" fill="#303030"/>
<path d="M16.9166 153.718C16.5425 153.344 16.1053 153.04 15.6251 152.818C16.3022 152.271 16.7342 151.436 16.7342 150.5C16.7342 148.849 15.3531 147.495 13.6968 147.52C12.066 147.545 10.7521 148.87 10.7521 150.5C10.7521 151.436 11.1856 152.271 11.8612 152.818C11.381 153.04 10.9438 153.344 10.5697 153.718C9.75357 154.533 9.29019 155.609 9.26029 156.756C9.25989 156.772 9.26269 156.788 9.26852 156.803C9.27435 156.818 9.2831 156.831 9.29424 156.843C9.30539 156.854 9.3187 156.863 9.33341 156.869C9.34812 156.875 9.36392 156.879 9.37987 156.879H10.217C10.2812 156.879 10.335 156.828 10.3365 156.764C10.3649 155.899 10.7162 155.09 11.3336 154.476C11.6495 154.16 12.0252 153.909 12.4391 153.738C12.853 153.567 13.2967 153.48 13.7447 153.481C14.655 153.481 15.5115 153.834 16.1558 154.476C16.7716 155.09 17.1229 155.899 17.1528 156.764C17.1543 156.828 17.2081 156.879 17.2724 156.879H18.1095C18.1254 156.879 18.1412 156.875 18.1559 156.869C18.1706 156.863 18.1839 156.854 18.1951 156.843C18.2062 156.831 18.215 156.818 18.2208 156.803C18.2266 156.788 18.2294 156.772 18.229 156.756C18.1991 155.609 17.7358 154.533 16.9166 153.718ZM13.7447 152.408C13.2334 152.408 12.7521 152.21 12.3919 151.849C12.2111 151.67 12.0683 151.457 11.972 151.222C11.8757 150.987 11.8278 150.735 11.8313 150.481C11.8358 149.992 12.0316 149.52 12.3739 149.17C12.7327 148.803 13.2125 148.599 13.7252 148.593C14.232 148.588 14.7238 148.785 15.0855 149.138C15.4562 149.5 15.6595 149.985 15.6595 150.5C15.6595 151.01 15.4607 151.488 15.0989 151.849C14.9215 152.027 14.7104 152.168 14.4779 152.264C14.2455 152.36 13.9962 152.409 13.7447 152.408Z" fill="#303030"/>
<path d="M87.0798 128.237C87.2932 128.451 87.6394 128.451 87.8529 128.237L91.3318 124.758C91.5453 124.545 91.5453 124.199 91.3318 123.985C91.1183 123.772 90.7722 123.772 90.5587 123.985L87.4663 127.077L84.3739 123.985C84.1604 123.772 83.8143 123.772 83.6008 123.985C83.3873 124.199 83.3873 124.545 83.6008 124.758L87.0798 128.237ZM87.8529 94.7641C87.6394 94.5506 87.2932 94.5506 87.0798 94.7641L83.6008 98.2431C83.3873 98.4566 83.3873 98.8027 83.6008 99.0162C83.8143 99.2297 84.1604 99.2297 84.3739 99.0162L87.4663 95.9238L90.5587 99.0162C90.7722 99.2297 91.1183 99.2297 91.3318 99.0162C91.5453 98.8027 91.5453 98.4566 91.3318 98.2431L87.8529 94.7641ZM88.013 127.851V95.1507H86.9196V127.851H88.013Z" fill="#303030"/>
<path d="M273.72 94.7641C273.507 94.5506 273.16 94.5506 272.947 94.7641L269.468 98.2431C269.254 98.4566 269.254 98.8027 269.468 99.0162C269.681 99.2297 270.028 99.2297 270.241 99.0162L273.333 95.9238L276.426 99.0162C276.639 99.2297 276.986 99.2297 277.199 99.0162C277.412 98.8027 277.412 98.4566 277.199 98.2431L273.72 94.7641ZM273.88 127.851V95.1507H272.787V127.851H273.88Z" fill="#303030"/>
<path d="M152.68 151.988C152.466 152.202 152.466 152.548 152.68 152.762L156.159 156.241C156.372 156.454 156.718 156.454 156.932 156.241C157.145 156.027 157.145 155.681 156.932 155.467L153.84 152.375L156.932 149.283C157.145 149.069 157.145 148.723 156.932 148.509C156.718 148.296 156.372 148.296 156.159 148.509L152.68 151.988ZM175.32 152.762C175.533 152.548 175.533 152.202 175.32 151.988L171.841 148.509C171.627 148.296 171.281 148.296 171.068 148.509C170.854 148.723 170.854 149.069 171.068 149.283L174.16 152.375L171.068 155.467C170.854 155.681 170.854 156.027 171.068 156.241C171.281 156.454 171.627 156.454 171.841 156.241L175.32 152.762ZM153.066 152.922H174.933V151.828H153.066V152.922Z" fill="#303030"/>
<path d="M152.68 70.2384C152.466 70.4519 152.466 70.7981 152.68 71.0116L156.159 74.4905C156.372 74.704 156.718 74.704 156.932 74.4905C157.145 74.277 157.145 73.9309 156.932 73.7174L153.84 70.625L156.932 67.5326C157.145 67.3191 157.145 66.973 156.932 66.7595C156.718 66.546 156.372 66.546 156.159 66.7595L152.68 70.2384ZM153.066 71.1717H174.933V70.0783H153.066V71.1717Z" fill="#303030"/>
<defs>
<clipPath id="clip0_1266_8177">
<rect width="18.5867" height="18.5299" fill="white" transform="translate(190.787 61.3604)"/>
</clipPath>
</defs>
</svg>
