<svg width="500" height="200" viewBox="0 0 500 200" fill="none" xmlns="http://www.w3.org/2000/svg">
<path d="M305.92 117.437V135.388C305.92 139.894 302.267 143.547 297.761 143.547C293.254 143.547 289.601 139.894 289.601 135.388V117.437C289.601 95.8421 272.033 78.2734 250.437 78.2734C228.842 78.2734 211.273 95.8421 211.273 117.437V135.388C211.273 139.894 207.62 143.547 203.114 143.547C198.608 143.547 194.955 139.894 194.955 135.388V117.437C194.955 86.8442 219.844 61.955 250.437 61.955C281.03 61.955 305.92 86.8442 305.92 117.437ZM250.437 37.4775C206.347 37.4775 170.478 73.3473 170.478 117.437V135.388C170.478 139.894 174.13 143.547 178.637 143.547C183.143 143.547 186.796 139.894 186.796 135.388V117.437C186.796 82.3452 215.345 53.7959 250.437 53.7959C285.53 53.7959 314.079 82.3452 314.079 117.437V135.388C314.079 139.894 317.732 143.547 322.238 143.547C326.744 143.547 330.397 139.894 330.397 135.388V117.437C330.397 73.3473 294.527 37.4775 250.437 37.4775ZM250.437 13C192.718 13 146 59.71 146 117.437V135.388C146 139.894 149.653 143.547 154.159 143.547C158.665 143.547 162.318 139.894 162.318 135.388V117.437C162.318 68.7365 201.73 29.3183 250.437 29.3183C299.138 29.3183 338.556 68.73 338.556 117.437V135.388C338.556 139.894 342.209 143.547 346.716 143.547C351.222 143.547 354.875 139.894 354.875 135.388V117.437C354.875 59.7178 308.165 13 250.437 13Z" fill="url(#paint0_linear_1367_8412)"/>
<path d="M198.349 187.698C197.604 187.698 197 187.094 197 186.349V179.057C197 176.874 197.596 175.196 198.789 174.023C199.84 172.993 201.215 172.477 202.913 172.477C203.842 172.477 204.681 172.669 205.429 173.053C205.905 173.279 206.339 173.57 206.73 173.928C207.151 174.314 207.109 174.966 206.715 175.38L206.69 175.407C206.167 175.957 205.217 175.84 204.55 175.479C204.065 175.196 203.529 175.054 202.943 175.054C201.851 175.054 201.033 175.418 200.487 176.146C199.961 176.874 199.699 177.844 199.699 179.057V186.349C199.699 187.094 199.094 187.698 198.349 187.698Z" fill="white"/>
<path d="M222.202 187.698C221.465 187.698 220.868 187.101 220.868 186.364V180.239C220.868 178.642 220.423 177.369 219.534 176.419C218.644 175.469 217.492 174.994 216.077 174.994C214.682 174.994 213.53 175.469 212.621 176.419C211.711 177.369 211.256 178.612 211.256 180.148C211.256 181.705 211.711 182.978 212.621 183.969C213.55 184.939 214.743 185.424 216.198 185.424C216.529 185.424 216.856 185.394 217.181 185.335C218.129 185.162 219.32 186.082 219.031 187C218.946 187.271 218.751 187.496 218.482 187.586C217.78 187.822 216.917 187.941 215.895 187.941C213.914 187.941 212.216 187.243 210.801 185.848C209.305 184.373 208.558 182.493 208.558 180.209C208.558 177.965 209.265 176.116 210.68 174.66C212.095 173.205 213.884 172.477 216.047 172.477C217.502 172.477 218.816 172.831 219.988 173.538C221.161 174.246 222.07 175.236 222.717 176.51C223.061 177.197 223.283 177.915 223.384 178.662C223.485 179.39 223.536 180.31 223.536 181.422V186.364C223.536 187.101 222.939 187.698 222.202 187.698Z" fill="white"/>
<path d="M226.692 168.505C226.692 168.04 226.844 167.656 227.147 167.353C227.471 167.029 227.865 166.868 228.33 166.868C228.815 166.868 229.209 167.019 229.512 167.323C229.815 167.626 229.967 168.02 229.967 168.505C229.967 168.97 229.805 169.364 229.482 169.688C229.179 169.991 228.795 170.142 228.33 170.142C227.885 170.142 227.501 169.981 227.177 169.657C226.854 169.334 226.692 168.95 226.692 168.505ZM228.33 187.698C227.593 187.698 226.996 187.101 226.996 186.364V174.084C226.996 173.347 227.593 172.75 228.33 172.75C229.066 172.75 229.664 173.347 229.664 174.084V186.364C229.664 187.101 229.066 187.698 228.33 187.698Z" fill="white"/>
<path d="M234.468 187.698C233.74 187.698 233.149 187.107 233.149 186.379V179.542C233.149 177.338 233.736 175.61 234.908 174.357C236.08 173.104 237.617 172.477 239.517 172.477C241.437 172.477 242.973 173.094 244.125 174.327C245.278 175.56 245.854 177.298 245.854 179.542V186.379C245.854 187.107 245.263 187.698 244.535 187.698C243.806 187.698 243.216 187.107 243.216 186.379V179.057C243.216 177.844 242.872 176.874 242.185 176.146C241.498 175.418 240.608 175.054 239.517 175.054C238.425 175.054 237.526 175.428 236.818 176.176C236.131 176.904 235.787 177.864 235.787 179.057V186.379C235.787 187.107 235.197 187.698 234.468 187.698Z" fill="white"/>
<path d="M249.138 167.201C249.138 166.464 249.735 165.867 250.472 165.867C251.209 165.867 251.806 166.464 251.806 167.201V180.209C251.806 181.806 252.251 183.079 253.14 184.029C254.03 184.979 255.182 185.454 256.597 185.454C258.032 185.454 259.194 184.979 260.084 184.029C260.993 183.059 261.448 181.775 261.448 180.178C261.448 178.662 260.983 177.429 260.053 176.479C259.144 175.509 257.961 175.024 256.506 175.024C256.155 175.024 255.805 175.058 255.456 175.127C254.507 175.315 253.339 174.411 253.63 173.489C253.723 173.195 253.945 172.956 254.243 172.876C254.485 172.81 254.764 172.748 255.081 172.689C255.647 172.568 256.213 172.507 256.779 172.507C258.841 172.507 260.589 173.255 262.024 174.751C263.459 176.247 264.177 178.066 264.177 180.209C264.177 182.493 263.47 184.363 262.055 185.818C260.64 187.273 258.841 188.001 256.658 188.001C255.222 188.001 253.898 187.637 252.686 186.91C251.493 186.182 250.583 185.181 249.957 183.908C249.674 183.382 249.461 182.796 249.32 182.149C249.199 181.482 249.138 180.441 249.138 179.026V167.201Z" fill="white"/>
<path d="M273.579 172.477C275.661 172.477 277.44 173.255 278.916 174.812C280.412 176.348 281.16 178.147 281.16 180.209C281.16 182.331 280.422 184.161 278.946 185.697C277.491 187.213 275.702 187.971 273.579 187.971C271.477 187.971 269.688 187.213 268.213 185.697C266.757 184.161 266.03 182.331 266.03 180.209C266.03 178.127 266.757 176.318 268.213 174.781C269.688 173.245 271.477 172.477 273.579 172.477ZM273.579 174.994C272.245 174.994 271.124 175.489 270.214 176.479C269.304 177.47 268.849 178.703 268.849 180.178C268.849 181.634 269.304 182.867 270.214 183.878C271.124 184.888 272.245 185.394 273.579 185.394C274.914 185.394 276.046 184.898 276.975 183.908C277.905 182.917 278.37 181.674 278.37 180.178C278.37 178.703 277.905 177.47 276.975 176.479C276.046 175.489 274.914 174.994 273.579 174.994Z" fill="white"/>
<path d="M289.606 187.941C287.807 187.941 286.372 187.364 285.3 186.212C284.229 185.06 283.694 183.443 283.694 181.361V174.039C283.694 173.31 284.284 172.72 285.012 172.72C285.741 172.72 286.331 173.31 286.331 174.039V181.846C286.331 182.917 286.624 183.777 287.211 184.423C287.817 185.05 288.616 185.363 289.606 185.363C290.556 185.363 291.334 185.05 291.941 184.423C292.567 183.777 292.881 182.917 292.881 181.846V174.039C292.881 173.31 293.471 172.72 294.2 172.72C294.928 172.72 295.519 173.31 295.519 174.039V181.846C295.519 182.917 295.812 183.777 296.398 184.423C297.004 185.05 297.793 185.363 298.763 185.363C299.733 185.363 300.521 185.05 301.128 184.423C301.754 183.777 302.068 182.917 302.068 181.846V174.039C302.068 173.31 302.658 172.72 303.387 172.72C304.115 172.72 304.706 173.31 304.706 174.039V181.361C304.706 183.403 304.16 185.01 303.068 186.182C301.977 187.354 300.542 187.941 298.763 187.941C296.883 187.941 295.357 187.172 294.184 185.636C293.052 187.172 291.526 187.941 289.606 187.941Z" fill="white"/>
<defs>
<linearGradient id="paint0_linear_1367_8412" x1="146" y1="78.2734" x2="354.875" y2="78.2734" gradientUnits="userSpaceOnUse">
<stop stop-color="#7BD0FF"/>
<stop offset="1" stop-color="#EB80FC"/>
</linearGradient>
</defs>
</svg>
