<svg width="500" height="92" viewBox="0 0 500 92" fill="none" xmlns="http://www.w3.org/2000/svg">
<path d="M97.023 44.8399C96.6619 45.1845 96.3732 45.5978 96.1739 46.0556C95.9747 46.5134 95.8688 47.0064 95.8626 47.5058C95.8564 48.0051 95.9499 48.5006 96.1377 48.9632C96.3255 49.4258 96.6038 49.8462 96.9562 50.1997C97.3086 50.5532 97.728 50.8326 98.1898 51.0216C98.6516 51.2106 99.1465 51.3052 99.6454 51.3001C100.144 51.295 100.637 51.1901 101.095 50.9916C101.553 50.7932 101.966 50.5052 102.311 50.1445C102.988 49.4373 103.361 48.4931 103.351 47.5139C103.341 46.5348 102.949 45.5984 102.257 44.9053C101.566 44.2121 100.632 43.8172 99.6535 43.805C98.6753 43.7928 97.7311 44.1642 97.023 44.8399Z" fill="white"/>
<path d="M3.7445 43.8125C3.00342 43.8125 2.279 44.0326 1.66297 44.4449C1.04694 44.8573 0.567002 45.4433 0.28393 46.1288C0.000857807 46.8143 -0.0726203 47.5684 0.072799 48.2957C0.218218 49.023 0.575995 49.6908 1.10083 50.2145C1.62566 50.7382 2.29395 51.0942 3.02107 51.2375C3.74819 51.3808 4.50145 51.3049 5.18547 51.0195C5.86948 50.7341 6.4535 50.2519 6.86356 49.6341C7.27362 49.0162 7.4913 48.2905 7.48902 47.5488C7.48597 46.5568 7.09011 45.6065 6.38821 44.9061C5.68631 44.2058 4.73562 43.8125 3.7445 43.8125Z" fill="white"/>
<path d="M97.0464 39.36C98.2605 38.3675 99.1824 37.0636 99.7136 35.5875C100.245 34.1114 100.366 32.5186 100.063 30.9792C99.7598 29.4398 99.0448 28.0117 97.994 26.8474C96.9433 25.6831 95.5962 24.8264 94.0968 24.3688L76.8145 19.168C76.8641 19.4187 76.8911 19.6735 76.8951 19.9291V55.6774L81.1811 52.2179C81.047 51.8481 80.9769 51.4581 80.9737 51.0647V30.0539C80.9737 29.0752 81.3622 28.1366 82.0536 27.4446C82.745 26.7525 83.6828 26.3638 84.6607 26.3638C85.6385 26.3638 86.5763 26.7525 87.2677 27.4446C87.9591 28.1366 88.3476 29.0752 88.3476 30.0539V46.4174L97.0464 39.36Z" fill="white"/>
<path d="M69.4064 19.375C69.4127 18.8785 69.5178 18.3882 69.7157 17.9328C69.9135 17.4774 70.2 17.066 70.5585 16.7227L16.073 0.370767C14.6404 -0.0625283 13.1202 -0.117057 11.6603 0.212495C10.2004 0.542046 8.85076 1.24444 7.74273 2.25125C6.63471 3.25806 5.80612 4.53495 5.33771 5.95753C4.86929 7.38011 4.777 8.89987 5.06984 10.3688L10.6117 38.4715C10.8273 37.568 11.3667 36.775 12.1275 36.2429C12.8883 35.7109 13.8177 35.4766 14.7395 35.5847C15.6614 35.6927 16.5116 36.1355 17.129 36.8291C17.7464 37.5228 18.088 38.419 18.0892 39.348V51.191C18.0832 52.1963 17.6799 53.1583 16.9675 53.867C16.2551 54.5757 15.2915 54.9734 14.2871 54.9734C14.1414 54.9848 13.995 54.9848 13.8493 54.9734L19.7599 85.0366C20.057 86.4992 20.7257 87.8605 21.7015 88.9891C22.6774 90.1176 23.9274 90.9754 25.3309 91.4796C26.7345 91.9838 28.2442 92.1174 29.7143 91.8675C31.1845 91.6176 32.5655 90.9926 33.724 90.0529L69.7751 60.9007C69.5342 60.4048 69.4082 59.8608 69.4064 59.3094V19.375ZM31.0049 63.1955C30.9514 64.1671 30.5282 65.0812 29.8221 65.75C29.116 66.4189 28.1807 66.7916 27.2086 66.7916C26.2364 66.7916 25.3012 66.4189 24.5951 65.75C23.889 65.0812 23.4657 64.1671 23.4122 63.1955V27.4472C23.4657 26.4757 23.889 25.5616 24.5951 24.8927C25.3012 24.2239 26.2364 23.8512 27.2086 23.8512C28.1807 23.8512 29.116 24.2239 29.8221 24.8927C30.5282 25.5616 30.9514 26.4757 31.0049 27.4472V63.1955ZM42.6417 71.4868C42.6417 71.9851 42.5437 72.4784 42.3532 72.9387C42.1627 73.399 41.8835 73.8173 41.5315 74.1695C41.1795 74.5219 40.7616 74.8013 40.3017 74.992C39.8418 75.1826 39.3489 75.2808 38.8511 75.2808C38.3533 75.2808 37.8604 75.1826 37.4005 74.992C36.9406 74.8013 36.5228 74.5219 36.1708 74.1695C35.8188 73.8173 35.5396 73.399 35.3491 72.9387C35.1586 72.4784 35.0605 71.9851 35.0605 71.4868V19.1905C35.0605 18.1843 35.4599 17.2193 36.1708 16.5078C36.8817 15.7963 37.8458 15.3966 38.8511 15.3966C39.8565 15.3966 40.8206 15.7963 41.5315 16.5078C42.2424 17.2193 42.6417 18.1843 42.6417 19.1905V71.4868ZM54.0135 63.184C54.0135 64.1902 53.6142 65.1552 52.9033 65.8667C52.1924 66.5782 51.2283 66.9779 50.2229 66.9779C49.2176 66.9779 48.2535 66.5782 47.5426 65.8667C46.8317 65.1552 46.4323 64.1902 46.4323 63.184V27.4357C46.4323 26.4295 46.8317 25.4645 47.5426 24.753C48.2535 24.0415 49.2176 23.6418 50.2229 23.6418C51.2283 23.6418 52.1924 24.0415 52.9033 24.753C53.6142 25.4645 54.0135 26.4295 54.0135 27.4357V63.184ZM65.5351 51.2141C65.5351 52.2203 65.1358 53.1853 64.4249 53.8968C63.714 54.6083 62.7499 55.008 61.7445 55.008C60.7392 55.008 59.775 54.6083 59.0642 53.8968C58.3533 53.1853 57.9539 52.2203 57.9539 51.2141V39.348C57.9539 38.3417 58.3533 37.3767 59.0642 36.6652C59.775 35.9537 60.7392 35.554 61.7445 35.554C62.7499 35.554 63.714 35.9537 64.4249 36.6652C65.1358 37.3767 65.5351 38.3417 65.5351 39.348V51.2141Z" fill="white"/>
<path d="M215.465 2.76953C206.835 2.76953 201.328 7.97033 201.328 14.7279C201.328 21.4855 206.835 26.6978 215.465 26.6978C224.095 26.6978 229.602 21.4855 229.602 14.3128C229.602 7.55519 224.095 2.76953 215.465 2.76953Z" fill="white"/>
<path d="M195.613 30.435V15.3516H131.484V34.3904H163.698L130.436 73.0909V88.1743H197.272V69.147H162.35L195.613 30.435Z" fill="white"/>
<path d="M227.205 31.2734H203.713V88.1824H227.205V31.2734Z" fill="white"/>
<path d="M305.161 31.2763H277.417L261.091 47.8128V10.9805H237.599V88.1738H261.091V74.7624L264.836 70.7032L278.662 88.1738H307.039L281.68 55.9311L305.161 31.2763Z" fill="white"/>
<path d="M328.653 48.9541C328.653 47.6049 330.324 46.2556 336.35 46.2556C342.088 46.2182 347.74 47.6513 352.768 50.4186L359.22 34.9084C353.183 31.7949 344.357 30.2266 336.039 30.2266C316.913 30.2266 306.935 38.9676 306.935 49.6806C306.935 72.4672 339.679 64.6718 339.679 70.4376C339.679 72.0982 338.112 73.1361 332.398 73.1361C325.457 73.1422 318.627 71.3887 312.546 68.039L306.105 83.5953C311.924 86.928 322.109 89.2228 331.879 89.2228C351.627 89.2228 361.294 80.2742 361.294 69.9764C361.294 47.1897 328.653 54.8814 328.653 48.9541Z" fill="white"/>
<path d="M397.564 30.2266C379.13 30.2266 365.304 42.4041 365.304 59.667C365.304 76.6302 378.807 89.2228 399.707 89.2228C411.033 89.2228 419.04 86.0977 424.548 80.0666L412.323 67.6816C408.59 70.4953 405.675 71.8445 400.479 71.8445C394.661 71.8445 390.709 69.5382 389.038 65.1907H428.546C428.649 63.5186 428.857 61.3391 428.857 59.667C428.857 40.4206 414.409 30.2266 397.564 30.2266ZM388.623 53.8435C389.026 51.7096 390.16 49.7832 391.83 48.3973C393.5 47.0114 395.602 46.2529 397.772 46.2529C399.941 46.2529 402.043 47.0114 403.713 48.3973C405.383 49.7832 406.518 51.7096 406.92 53.8435H388.623Z" fill="white"/>
<path d="M475.726 30.2286C472.567 30.1373 469.421 30.6801 466.475 31.8248C463.529 32.9695 460.841 34.6931 458.571 36.894V31.278H436.219V88.1755H459.723V61.445C459.723 53.0153 463.778 49.994 468.56 49.994C472.823 49.994 475.473 52.7039 475.473 59.7729V88.1755H499.011V55.7252C499.011 37.828 488.826 30.2286 475.726 30.2286Z" fill="white"/>
</svg>
