<svg width="500" height="200" viewBox="0 0 500 200" fill="none" xmlns="http://www.w3.org/2000/svg">
<path fill-rule="evenodd" clip-rule="evenodd" d="M43.6741 52.6529C43.5228 53.0933 43.3188 54.4207 43.222 55.6032L43.0449 57.753L39.5225 57.9373L36 58.1216V61.1314V64.1412L39.5225 64.3255L43.0449 64.5098V100.443V136.377L39.5225 136.561L36 136.746V139.755V142.765L39.5225 142.95L43.0449 143.134L43.2318 146.052L43.4186 148.969H47.0269H50.6351L50.822 146.052L51.0088 143.134H250.411H449.814L450.001 146.052L450.188 148.969H453.796H457.404L457.591 146.052L457.778 143.134L461.3 142.95L464.823 142.765V139.755V136.746L461.3 136.561L457.778 136.377V100.443V64.5098L461.3 64.3255L464.823 64.1412V61.1314V58.1216L461.3 57.9373L457.778 57.753L457.472 54.9889L457.165 52.2248H453.796H450.427L450.12 54.9889L449.814 57.753H250.411H51.0088L50.7025 54.9889L50.3962 52.2248L47.1733 52.0387C44.9391 51.9103 43.8652 52.0982 43.6741 52.6529ZM449.814 100.443V136.377H250.411H51.0088L50.8495 101.058C50.7625 81.632 50.8226 65.3925 50.9843 64.9692C51.2183 64.3556 91.4529 64.2321 250.546 64.355L449.814 64.5098V100.443ZM282.879 75.9035C282.037 76.1867 279.778 76.8685 277.86 77.4201C275.023 78.2358 269.744 81.0282 265.991 83.6996C264.662 84.6449 261.245 90.2401 260.134 93.2899C258.62 97.4434 258.638 103.494 260.178 107.717C261.563 111.518 261.814 111.867 266.538 116.569C272.748 122.751 279.42 125.174 290.231 125.174C306.669 125.174 319.532 116.929 321.627 105.05C323.015 97.1744 321.167 90.5147 316.141 85.2819C312.764 81.7659 307.656 78.5165 303.748 77.3968C301.873 76.8599 299.492 76.159 298.457 75.8396C296.186 75.1388 285.023 75.1848 282.879 75.9035ZM404.788 75.8544C404.282 76.1922 402.946 76.4729 401.818 76.4785C400.63 76.484 397.76 77.535 394.994 78.9778C390.643 81.2475 390.052 81.785 388.315 85.0528C384.784 91.6965 386.076 97.7475 391.805 101.386C395.3 103.606 401.892 105.934 404.744 105.956C405.9 105.964 407.691 106.232 408.726 106.549C409.761 106.867 411.986 107.521 413.67 108.002C417.53 109.104 418.14 110.898 415.178 112.434C412.247 113.953 402.387 113.008 396.211 110.615C391.425 108.762 391.277 108.831 388.421 114.264C387.001 116.967 385.829 119.472 385.818 119.832C385.791 120.658 389.629 122.556 392.842 123.306C398.583 124.647 403.032 125.158 409.076 125.17C417.409 125.188 422.506 124.179 427.777 121.47C433.507 118.525 435.412 115.405 435.415 108.964C435.418 104.335 435.388 104.246 432.993 101.771C431.659 100.393 429.384 98.656 427.939 97.9103C424.945 96.366 420.949 95.3697 411.357 93.7751C408.506 93.3009 405.405 91.5509 404.94 90.1535C404.246 88.0644 413.738 86.6468 418.528 88.1246C426.163 90.4809 427.494 90.7328 428.389 89.9883C428.886 89.5749 429.292 88.8476 429.292 88.3728C429.292 87.898 430.148 85.8077 431.196 83.7278C433.004 80.1351 433.044 79.9054 431.99 79.1326C430.692 78.1812 427.763 77.2254 423.472 76.3519C419.101 75.4625 405.9 75.1105 404.788 75.8544ZM65.6684 77.3003C65.4944 77.7543 65.4332 80.4527 65.5318 83.296L65.7113 88.4656L73.9815 88.7727L82.2516 89.0798L82.5579 106.586L82.8642 124.092H91.747H100.63L100.936 106.586L101.242 89.0798L109.512 88.7727L117.783 88.4656V82.6302V76.7948L91.8836 76.6345C70.6483 76.503 65.9275 76.6228 65.6684 77.3003ZM134.703 83.398C126.313 99.1621 114.404 123.272 114.739 123.816C114.938 124.139 118.868 124.399 123.544 124.399C133.101 124.399 132.716 124.572 135.489 119.025L137.101 115.8H147.511H157.922L159.407 119.025C160.224 120.798 161.039 122.733 161.219 123.324C161.511 124.286 162.515 124.399 170.718 124.399C175.851 124.399 180.048 124.142 180.249 123.816C180.586 123.27 166.543 94.8482 159.674 82.1695L156.595 76.4877H147.488H138.381L134.703 83.398ZM184.536 77.2414C184.37 77.6738 184.307 88.3925 184.396 101.06L184.556 124.092H194.052H203.547V100.443V76.7948L194.192 76.6253C187.032 76.495 184.766 76.64 184.536 77.2414ZM212.716 77.2407C212.55 77.6738 212.487 88.3925 212.576 101.06L212.736 124.092H234.484H256.231V118.257V112.421L243.673 112.114L231.114 111.807L230.808 94.3009L230.502 76.7948L221.759 76.624C215.092 76.4944 212.946 76.6406 212.716 77.2407ZM329.111 77.2395C328.945 77.6726 328.882 88.3925 328.971 101.06L329.131 124.092H338.626H348.122L348.428 118.257L348.734 112.421L350.572 112.251C352.627 112.061 354.608 113.532 357.005 117.028C357.815 118.211 358.927 119.593 359.476 120.099C360.026 120.606 360.967 121.781 361.567 122.71L362.659 124.399H372.39C377.97 124.399 382.121 124.156 382.121 123.829C382.121 123.515 381.768 122.893 381.335 122.447C380.903 122.001 379.882 120.668 379.067 119.485C378.252 118.303 377.141 116.921 376.599 116.414C375.544 115.429 371.707 109.951 371.707 109.431C371.707 109.26 373.064 108.379 374.723 107.474C377.105 106.174 378.135 105.082 379.624 102.282C381.239 99.2438 381.508 98.0878 381.506 94.2149C381.504 89.07 380.612 87.1019 376.48 83.1216C373.686 80.4293 370.127 78.4256 366.5 77.5043C365.152 77.1621 356.257 76.785 346.731 76.6664C333.044 76.4957 329.35 76.6161 329.111 77.2395ZM296.905 90.0485C298.049 90.7475 299.338 91.6744 299.77 92.1074C304.22 96.5694 304.22 104.318 299.77 108.779C295.957 112.603 289.075 113.306 283.826 110.411C279.715 108.142 278.411 105.75 278.411 100.477C278.411 95.4484 280.046 92.0509 283.406 90.0982C286.561 88.2635 293.94 88.2364 296.905 90.0485ZM359.946 90.019C360.68 90.7045 361.703 92.0866 362.221 93.0902C363.055 94.7082 363.06 95.1142 362.256 96.6713C360.997 99.1136 358.616 99.9189 353.285 99.7045L348.734 99.5221L348.552 94.9729C348.453 92.4705 348.513 90.0522 348.687 89.5982C348.914 89.0043 350.35 88.7727 353.807 88.7727C357.787 88.7727 358.84 88.9864 359.946 90.019ZM149.105 95.9901C149.644 97.2573 150.609 99.4864 151.251 100.944C151.892 102.402 152.258 103.853 152.064 104.169C151.575 104.963 141.981 104.912 141.981 104.115C141.981 102.946 146.891 93.6867 147.51 93.6867C147.849 93.6867 148.567 94.7235 149.105 95.9901Z" fill="#372722"/>
</svg>
