<svg width="325" height="158" viewBox="0 0 325 158" fill="none" xmlns="http://www.w3.org/2000/svg">
<path fill-rule="evenodd" clip-rule="evenodd" d="M88.0232 0.658535C86.5353 1.37125 83.341 2.85498 80.3306 4.23125C79.2612 4.71988 77.4356 5.55932 76.273 6.09663C75.1108 6.63393 73.2847 7.47339 72.2153 7.9625C71.1459 8.45114 69.2819 9.30938 68.0731 9.86933C64.2782 11.6273 61.7152 12.8093 59.7046 13.7288C58.6352 14.2179 56.8091 15.0573 55.647 15.5946C54.4843 16.1315 52.6587 16.9709 51.5893 17.46C50.5199 17.9491 48.6746 18.7977 47.4894 19.3461C46.3037 19.8945 44.3637 20.7923 43.1781 21.3402C41.9924 21.889 40.1475 22.7377 39.0781 23.2263C38.0087 23.7154 36.1447 24.5737 34.9359 25.1336C31.1406 26.8915 28.578 28.0736 26.5669 28.993C25.498 29.4821 23.6719 30.3216 22.5093 30.8584C21.3472 31.3957 19.5212 32.2352 18.4519 32.7243C17.3825 33.2134 15.5566 34.0533 14.3943 34.5916C13.2319 35.1299 11.7289 35.8223 11.0543 36.1307C8.65661 37.227 5.6592 40.6648 3.66016 44.6115C0.65516 50.5445 -0.460863 56.8856 0.170077 64.4397C0.546969 68.9526 1.35812 72.3489 3.19151 77.0912C3.74841 78.532 5.88625 81.5255 7.53165 83.1687C9.51647 85.1517 12.9342 87.6238 15.3295 88.8102C16.0704 89.1769 17.8939 89.868 19.3818 90.346C20.8695 90.8235 24.2172 91.901 26.8206 92.7395C38.2667 96.4279 40.1182 97.022 41.9794 97.6018C43.0637 97.9396 44.0899 98.3178 44.26 98.4422C44.553 98.6576 44.554 98.685 44.2744 98.9944C44.113 99.1732 43.5816 99.4932 43.0935 99.7042C42.2321 100.077 40.1307 101.058 34.344 103.788C32.81 104.512 30.6986 105.495 29.6527 105.972C28.6068 106.45 26.8946 107.231 25.8487 107.708C15.3901 112.482 11.4814 115.169 8.09716 119.912C6.96643 121.497 5.37926 124.384 4.83753 125.841C3.72828 128.825 3.53977 129.434 3.2138 131.093C2.59079 134.263 2.35106 137.293 2.36864 141.778C2.38233 145.263 2.63374 157.436 2.6936 157.509C2.86741 157.719 3.8825 157.402 5.4741 156.639C7.25911 155.783 8.7146 155.104 14.0139 152.654C15.1994 152.106 17.1966 151.18 18.4519 150.598C21.771 149.057 24.6914 147.709 26.9052 146.697C29.1189 145.684 32.0394 144.337 35.3587 142.796C36.614 142.213 38.6111 141.288 39.7968 140.74C40.982 140.191 42.9225 139.295 44.1077 138.746C45.2934 138.198 47.2905 137.273 48.5458 136.69C49.8012 136.107 51.7795 135.192 52.9417 134.655C55.2636 133.583 58.2456 132.203 61.6912 130.606C62.923 130.034 64.9201 129.109 66.1288 128.55C67.3376 127.99 69.316 127.074 70.5247 126.514C71.7335 125.955 73.7118 125.039 74.9206 124.479C76.1293 123.919 78.0885 123.009 79.2742 122.456C80.4599 121.902 81.6643 121.364 81.9511 121.26C82.6083 121.02 84.4022 119.307 85.5072 117.865C86.457 116.625 87.7695 114.476 87.7695 114.16C87.7695 114.046 87.9602 113.575 88.1928 113.115C88.826 111.861 89.3909 109.897 89.9473 107.01C90.2864 105.253 90.3306 104.885 90.5002 102.431C90.7164 99.3101 90.7155 97.0486 90.4973 93.9505C90.3287 91.5517 90.2168 90.6944 89.8012 88.6083C89.6893 88.0483 89.5399 87.285 89.4683 86.9121C89.3535 86.3102 88.6568 84.2193 87.8694 82.1125C87.4159 80.9 86.4181 79.0115 85.5437 77.7119C84.4796 76.1303 81.1877 72.8279 79.61 71.7596C77.1103 70.0677 75.1046 69.3097 62.9167 65.4517C61.1036 64.8778 57.9842 63.886 55.9847 63.248C53.9857 62.6095 51.3611 61.7734 50.1519 61.3898C46.8581 60.3451 46.517 60.1991 46.517 59.8367C46.517 59.5105 47.9929 58.7428 54.2941 55.7894C55.7354 55.1138 58.1701 53.9688 59.7046 53.2445C61.2386 52.5202 63.217 51.6046 64.1 51.21C72.7241 47.3554 77.6489 44.7541 79.401 43.1292C79.5869 42.9567 80.1572 42.4719 80.6684 42.0522C81.892 41.0474 82.0957 40.8378 83.3035 39.3387C84.8038 37.4771 87.0935 33.9073 87.0935 33.4293C87.0935 33.3151 87.2824 32.8476 87.513 32.3913C88.4253 30.5847 89.4822 26.8308 89.9021 23.9048C89.9626 23.4851 90.0414 18.0378 90.0775 11.8003C90.1442 0.368922 90.1269 -0.0281536 89.5663 0.0012415C89.4616 0.00654226 88.7673 0.30242 88.0232 0.658535Z" fill="#1A91E2"/>
<path fill-rule="evenodd" clip-rule="evenodd" d="M88.6158 0.543345C85.899 1.79722 83.1188 3.08193 81.0923 4.02065C79.8836 4.58108 78.0195 5.43884 76.9501 5.92795C75.8807 6.41707 74.0359 7.26567 72.8502 7.81406C71.6645 8.36245 69.7245 9.26021 68.5389 9.8086C67.3532 10.357 65.5084 11.2056 64.4389 11.6947C63.37 12.1833 61.5439 13.0228 60.3818 13.5601C59.2191 14.0974 57.393 14.9368 56.3241 15.426C55.2547 15.9146 53.3906 16.7728 52.1819 17.3328C48.3865 19.0907 45.824 20.2728 43.8129 21.1922C42.7435 21.6813 40.9174 22.5208 39.7553 23.0576C38.5931 23.5949 36.767 24.4344 35.6976 24.9235C33.6865 25.8429 31.124 27.025 27.3286 28.7829C26.1199 29.3429 24.2558 30.2011 23.1864 30.6897C22.1175 31.1789 20.2913 32.0183 19.129 32.5556C17.9667 33.0924 16.1408 33.9319 15.0714 34.4205C10.8263 36.3606 10.0112 36.7895 9.71972 37.2357C9.16181 38.0896 8.91564 40.8672 9.27 42.3076C9.58852 43.6024 10.8946 45.8451 11.9435 46.8976C12.8757 47.8334 16.4895 50.1373 17.7946 50.6278C18.9528 51.0635 24.1256 52.7766 27.6668 53.8979C29.4338 54.4569 32.5912 55.4617 34.6834 56.13C37.9931 57.1878 43.9537 59.0773 45.3925 59.5249C47.025 60.0309 46.2232 59.5052 48.2669 58.5163C52.0459 56.6876 59.8845 52.9982 63.3825 51.4017C64.4288 50.9242 66.1406 50.1431 67.1865 49.666C70.622 48.0994 74.3073 46.2677 75.5977 45.4856C76.9881 44.6428 78.8459 43.4116 78.9789 43.2448C79.0255 43.187 79.3297 42.9528 79.6554 42.7249C80.4149 42.1924 83.1663 39.435 83.7097 38.6611C83.9388 38.3349 84.2425 37.9397 84.3847 37.7841C84.8478 37.2743 86.7916 33.9247 87.0347 33.2158C87.1654 32.8351 87.4286 32.2173 87.6189 31.8424C87.9898 31.1133 88.5581 29.4826 88.8036 28.4427C88.8862 28.0929 89.0347 27.4823 89.1337 27.0857C89.9244 23.9134 90.0027 22.5825 90.0743 11.0774C90.1286 2.41596 90.0988 0.182895 89.9283 0.11784C89.8111 0.0730249 89.2201 0.264332 88.6158 0.543345ZM43.982 99.4079C43.5636 99.5987 41.9657 100.348 40.4317 101.072C34.2064 104.012 29.0005 106.433 26.5681 107.518C21.7114 109.685 15.2205 113.085 14.2553 113.969C14.0997 114.112 13.7062 114.416 13.3807 114.646C12.6076 115.193 9.18549 118.628 8.65376 119.392C8.42652 119.718 8.19068 120.023 8.12981 120.07C7.7313 120.376 5.36757 124.763 4.84434 126.169C4.70401 126.546 4.46495 127.179 4.31313 127.575C4.16146 127.972 3.97126 128.582 3.89046 128.932C3.73725 129.597 3.53187 130.43 3.22195 131.646C2.75973 133.458 2.68363 135.288 2.62123 146.093C2.57155 154.692 2.60398 157.474 2.75517 157.568C2.8649 157.636 3.72188 157.326 4.65952 156.879C6.24876 156.122 7.30055 155.632 13.0426 152.973C14.2514 152.413 16.2295 151.497 17.4383 150.938C18.6472 150.378 20.6064 149.472 21.7918 148.924C22.9774 148.375 24.9553 147.46 26.1876 146.888C27.4199 146.317 29.4166 145.392 30.6258 144.832C31.8345 144.273 33.8124 143.356 35.0212 142.797C36.2304 142.237 38.2083 141.321 39.417 140.762C40.6258 140.202 42.5849 139.296 43.7706 138.747C44.9563 138.199 46.9155 137.292 48.1242 136.733C49.333 136.173 51.197 135.315 52.2664 134.826C53.3359 134.337 55.1994 133.478 56.4086 132.918C57.6174 132.358 59.5766 131.452 60.7618 130.904C61.9475 130.356 63.8874 129.459 65.0731 128.91C66.2588 128.363 68.2367 127.446 69.469 126.875C70.7012 126.304 72.6979 125.379 73.9071 124.819C75.1159 124.259 77.0745 123.351 78.2602 122.801C79.4459 122.25 80.8218 121.623 81.3176 121.408C82.4438 120.919 82.5293 121.088 82.696 118.934C82.6926 117.275 81.8029 115.012 80.6816 113.808C80.3928 113.498 80.034 113.035 79.8831 112.779C79.7327 112.524 79.4051 112.193 79.1557 112.045C78.9059 111.897 78.4274 111.525 78.0921 111.217C77.3018 110.491 74.2026 108.622 73.0385 108.17C71.8571 107.71 61.4531 104.244 55.3094 102.263C52.6594 101.408 49.3354 100.333 47.9225 99.8743C46.5095 99.4151 44.9313 98.7005 44.6585 98.7005C44.4893 98.7005 44.4005 99.2166 43.982 99.4079Z" fill="#0F64AB"/>
<path d="M104.547 31.6431C104.547 48.62 122.739 50.9118 122.739 63.1354C122.739 67.3799 120.878 68.9074 117.916 68.9074C114.955 68.9074 113.093 67.3799 113.093 63.1354V58.8909H104.293V62.5412C104.293 72.0484 109.031 77.4812 118.17 77.4812C127.309 77.4812 132.048 72.0484 132.048 62.5412C132.048 45.5643 113.855 43.2725 113.855 31.0489C113.855 26.8045 115.547 25.1921 118.509 25.1921C121.471 25.1921 123.163 26.8045 123.163 31.0489V33.5104H131.963V31.6431C131.963 22.1359 127.309 16.7031 118.255 16.7031C109.201 16.7031 104.547 22.1359 104.547 31.6431Z" fill="url(#paint0_linear_799_4262)"/>
<path d="M134.673 25.8713H144.404V76.8019H153.712V25.8713H163.443V17.3828H134.673V25.8713Z" fill="url(#paint1_linear_799_4262)"/>
<path d="M184.966 17.3828H171.343L161.866 76.8019H170.412L172.02 66.0216H183.443L185.051 76.8019H194.444L184.966 17.3828ZM177.689 27.9082L182.174 57.9577H173.205L177.689 27.9082Z" fill="url(#paint2_linear_799_4262)"/>
<path d="M227.718 76.8019C226.787 74.5949 226.702 72.4731 226.702 69.5866V60.4192C226.702 54.2226 225.179 49.7237 220.525 47.7716C224.671 45.819 226.617 41.8294 226.617 35.7177V31.0491C226.617 21.8817 222.471 17.3828 212.824 17.3828H198.778V76.8019H208.086V52.6097H211.302C215.533 52.6097 217.394 54.6472 217.394 60.1648V69.5018C217.394 74.3405 217.732 75.2744 218.24 76.8019H227.718ZM212.571 25.8713C215.871 25.8713 217.309 27.7386 217.309 31.983V37.8399C217.309 42.5932 215.194 44.1213 211.725 44.1213H208.086V25.8713H212.571Z" fill="url(#paint3_linear_799_4262)"/>
<path d="M230.116 25.8713H239.847V76.8019H249.155V25.8713H258.886V17.3828H230.116V25.8713Z" fill="url(#paint4_linear_799_4262)"/>
<path d="M262.562 17.3828V62.6263C262.562 72.1334 267.3 77.5662 276.439 77.5662C285.578 77.5662 290.316 72.1334 290.316 62.6263V17.3828H281.516V63.2204C281.516 67.4649 279.654 68.9925 276.693 68.9925C273.731 68.9925 271.87 67.4649 271.87 63.2204V17.3828H262.562Z" fill="url(#paint5_linear_799_4262)"/>
<path d="M310.409 17.3828H296.7V76.8019H306.008V54.4775H310.409C319.716 54.4775 324.286 49.2992 324.286 39.792V32.0679C324.286 22.5607 319.716 17.3828 310.409 17.3828ZM310.409 25.8713C313.37 25.8713 314.978 27.2292 314.978 31.4737V40.3867C314.978 44.6307 313.37 45.9891 310.409 45.9891H306.008V25.8713H310.409Z" fill="url(#paint6_linear_799_4262)"/>
<path d="M156.768 81.5469C148.052 81.6317 144.16 87.4037 144.16 96.3167C144.16 112.869 165.568 113.124 165.568 127.384C165.568 133.751 163.114 138.335 156.599 138.335C150.083 138.335 147.629 133.751 147.629 127.384V124.074H143.906V127.13C143.906 135.703 147.629 141.985 156.683 141.985C165.737 141.985 169.46 135.703 169.46 127.13C169.46 110.747 148.052 110.492 148.052 96.0623C148.052 89.7804 150.422 85.1119 156.853 85.1119C163.284 85.1119 165.653 89.8657 165.653 96.1471V97.6747H169.376V96.4015C169.376 87.8283 165.737 81.5469 156.768 81.5469Z" fill="url(#paint7_linear_799_4262)"/>
<path d="M198.071 113.547V141.474H202.048V82.0547H198.071V109.982H179.624V82.0547H175.731V141.474H179.624V113.547H198.071Z" fill="url(#paint8_linear_799_4262)"/>
<path d="M208.532 126.96C208.532 135.618 212.51 141.985 221.479 141.985C230.618 141.985 234.595 135.618 234.595 126.96V96.5712C234.595 87.9131 230.618 81.5469 221.479 81.5469C212.51 81.5469 208.532 87.9131 208.532 96.5712V126.96ZM212.425 96.3167C212.425 89.8657 214.963 85.1119 221.479 85.1119C228.079 85.1119 230.702 89.8657 230.702 96.3167V127.215C230.702 133.666 228.079 138.42 221.479 138.42C214.963 138.42 212.425 133.666 212.425 127.215V96.3167Z" fill="url(#paint9_linear_799_4262)"/>
<path d="M263.522 92.835L271.476 141.474H276.553L286.03 82.0547H282.56L274.014 136.042L265.722 82.3091H261.576L252.944 136.211L244.06 82.0547H240.252L249.814 141.474H255.229L263.522 92.835Z" fill="url(#paint10_linear_799_4262)"/>
<defs>
<linearGradient id="paint0_linear_799_4262" x1="233.302" y1="16.1692" x2="233.302" y2="76.8013" gradientUnits="userSpaceOnUse">
<stop stop-color="#1382DC"/>
<stop offset="1" stop-color="#0F63AA"/>
</linearGradient>
<linearGradient id="paint1_linear_799_4262" x1="233.302" y1="16.1694" x2="233.302" y2="76.8015" gradientUnits="userSpaceOnUse">
<stop stop-color="#1382DC"/>
<stop offset="1" stop-color="#0F63AA"/>
</linearGradient>
<linearGradient id="paint2_linear_799_4262" x1="233.303" y1="16.1694" x2="233.303" y2="76.8015" gradientUnits="userSpaceOnUse">
<stop stop-color="#1382DC"/>
<stop offset="1" stop-color="#0F63AA"/>
</linearGradient>
<linearGradient id="paint3_linear_799_4262" x1="233.302" y1="16.1694" x2="233.302" y2="76.8015" gradientUnits="userSpaceOnUse">
<stop stop-color="#1382DC"/>
<stop offset="1" stop-color="#0F63AA"/>
</linearGradient>
<linearGradient id="paint4_linear_799_4262" x1="233.303" y1="16.1694" x2="233.303" y2="76.8015" gradientUnits="userSpaceOnUse">
<stop stop-color="#1382DC"/>
<stop offset="1" stop-color="#0F63AA"/>
</linearGradient>
<linearGradient id="paint5_linear_799_4262" x1="233.302" y1="16.1694" x2="233.302" y2="76.8015" gradientUnits="userSpaceOnUse">
<stop stop-color="#1382DC"/>
<stop offset="1" stop-color="#0F63AA"/>
</linearGradient>
<linearGradient id="paint6_linear_799_4262" x1="233.303" y1="16.1694" x2="233.303" y2="76.8015" gradientUnits="userSpaceOnUse">
<stop stop-color="#1382DC"/>
<stop offset="1" stop-color="#0F63AA"/>
</linearGradient>
<linearGradient id="paint7_linear_799_4262" x1="221.617" y1="80.8438" x2="221.617" y2="141.476" gradientUnits="userSpaceOnUse">
<stop stop-color="#1382DC"/>
<stop offset="1" stop-color="#0F63A9"/>
</linearGradient>
<linearGradient id="paint8_linear_799_4262" x1="221.616" y1="80.8423" x2="221.616" y2="141.474" gradientUnits="userSpaceOnUse">
<stop stop-color="#1382DC"/>
<stop offset="1" stop-color="#0F63A9"/>
</linearGradient>
<linearGradient id="paint9_linear_799_4262" x1="221.617" y1="80.8438" x2="221.617" y2="141.476" gradientUnits="userSpaceOnUse">
<stop stop-color="#1382DC"/>
<stop offset="1" stop-color="#0F63A9"/>
</linearGradient>
<linearGradient id="paint10_linear_799_4262" x1="221.617" y1="80.8423" x2="221.617" y2="141.474" gradientUnits="userSpaceOnUse">
<stop stop-color="#1382DC"/>
<stop offset="1" stop-color="#0F63A9"/>
</linearGradient>
</defs>
</svg>
