<svg width="424" height="111" viewBox="0 0 424 111" fill="none" xmlns="http://www.w3.org/2000/svg">
<path d="M4.58086 97.3973C1.52695 97.3973 0 96.5343 0 94.8082V39.0141C0 37.288 1.52695 36.4222 4.58086 36.4222H6.70086C9.69935 36.4222 11.1986 37.288 11.1986 39.0141V94.8082C11.1986 96.5343 9.69935 97.3973 6.70086 97.3973H4.58086ZM42.4637 97.7442C38.6754 97.7442 35.2973 97.3418 32.3265 96.5343C29.3585 95.7295 27.0529 94.7194 25.4151 93.5095C24.0017 92.4189 23.2923 91.4394 23.2923 90.5763C23.2923 89.4802 23.8576 88.1149 24.9883 86.4721C26.1217 84.8321 27.0529 84.0107 27.7872 84.0107C28.1281 84.0107 28.8348 84.327 29.91 84.9625C31.6642 85.8838 33.3879 86.6303 35.0839 87.2075C36.7799 87.7819 38.7614 88.0705 41.0227 88.0705C43.5667 88.0705 45.7033 87.4517 47.427 86.2113C49.1535 84.9764 50.0154 83.1199 50.0154 80.6418C50.0154 79.0878 49.5775 77.778 48.699 76.7124C47.7902 75.6214 46.6823 74.7136 45.4345 74.0373C44.132 73.3158 42.3224 72.4667 40.0029 71.4871L37.0376 70.194C34.4327 69.0423 32.2573 67.8186 30.5031 66.5226C28.7516 65.2267 27.3078 63.484 26.1771 61.2973C25.0465 59.1078 24.4811 56.3467 24.4811 53.0056C24.4811 49.3787 25.3707 46.2846 27.1526 43.7205C28.9345 41.1591 31.3233 39.2444 34.3218 37.9762C37.3175 36.7108 40.5987 36.0781 44.1597 36.0781C46.7065 36.0781 49.1674 36.3667 51.5423 36.9411C53.9173 37.5183 55.7546 38.2953 57.0571 39.2721C58.2432 40.1379 58.8362 41.001 58.8362 41.864C58.8362 42.9018 58.3568 44.2394 57.3952 45.8794C56.4336 47.5222 55.5856 48.3408 54.8512 48.3408C54.5685 48.3408 54.114 48.1993 53.4933 47.9107C53.0089 47.6879 52.5285 47.4566 52.0522 47.217C49.7743 46.2358 47.3184 45.737 44.8387 45.7518C41.7848 45.7518 39.5373 46.3706 38.0963 47.6082C37.4038 48.1779 36.8496 48.8974 36.4751 49.7126C36.1007 50.5278 35.9159 51.4175 35.9347 52.3146C35.9347 53.9852 36.3559 55.3533 37.2039 56.4161C38.0539 57.4836 39.1252 58.3537 40.3437 58.9663C41.588 59.599 43.4254 60.4038 45.8585 61.3833C49.0815 62.707 51.7391 64.0029 53.8314 65.2683C55.9237 66.5365 57.7194 68.3347 59.2187 70.6685C60.7151 72.9995 61.4661 75.9798 61.4661 79.604C61.4661 85.6535 59.6565 90.1851 56.0373 93.2098C52.418 96.2346 47.8926 97.7442 42.4637 97.7442ZM77.9744 97.3113C74.9759 97.3113 73.4767 96.4788 73.4767 94.8082V39.8771C73.4767 38.7838 73.7178 37.979 74.1972 37.4601C74.6794 36.9412 75.4554 36.6831 76.5306 36.6831H92.3101C99.3767 36.6831 104.625 38.0067 108.045 40.6569C111.468 43.3042 113.178 47.278 113.178 52.5727C113.178 55.9138 112.302 58.7915 110.548 61.2113C108.796 63.6283 106.391 65.4432 103.337 66.6503V66.9972C104.584 67.4578 105.77 68.479 106.901 70.0635C108.031 71.6453 109.048 73.5878 109.955 75.891L117.165 94.2033C117.393 95.008 117.503 95.4992 117.503 95.6712C117.503 96.7646 115.979 97.3113 112.923 97.3113H110.379C107.89 97.3113 106.421 96.7646 105.967 95.6712L99.3518 78.7437C98.332 76.3822 97.132 74.7422 95.7464 73.8209C94.3608 72.8996 92.2546 72.4389 89.428 72.4389H84.5894V94.8054C84.5894 96.476 83.0929 97.3113 80.0944 97.3113H77.9744ZM93.7511 62.6793C95.9016 62.6793 97.7694 61.8301 99.349 60.1318C100.898 58.5217 101.753 56.3654 101.727 54.1295C101.727 51.6514 100.962 49.7394 99.4349 48.3852C97.9107 47.031 95.8157 46.3567 93.1581 46.3567H84.5894V62.6793H93.7511ZM126.884 97.3113C123.775 97.3113 122.22 96.7368 122.22 95.5852C122.22 95.4104 122.331 94.922 122.558 94.1145L141.73 38.151C142.07 37.0577 143.512 36.511 146.058 36.511H149.788C152.277 36.511 153.721 37.0577 154.117 38.1483L173.289 94.1172C173.455 94.6917 173.541 95.1801 173.541 95.5852C173.541 96.7368 172.183 97.3113 169.47 97.3113H166.84C164.351 97.3113 162.91 96.7646 162.514 95.6712L158.612 83.8386H136.897L132.992 95.6712C132.598 96.7646 131.354 97.3113 129.262 97.3113H126.884ZM155.389 74.1678L149.195 55.1646C148.744 53.8409 148.347 52.0566 148.009 49.8088H147.668C147.613 50.1557 147.472 50.9049 147.244 52.0566C147.044 53.1134 146.761 54.1526 146.396 55.1646L140.034 74.165H155.386L155.389 74.1678ZM187.419 97.1392C186.344 97.1392 185.551 96.8811 185.044 96.3622C184.534 95.8433 184.279 95.0385 184.279 93.9424V39.8799C184.279 38.7282 184.534 37.9096 185.044 37.4184C185.551 36.93 186.347 36.6858 187.419 36.6858H217.11C217.9 36.6858 218.482 36.9744 218.848 37.5489C219.216 38.1261 219.402 39.0751 219.402 40.3988V42.6465C219.402 43.9702 219.216 44.9193 218.848 45.4937C218.482 46.0709 217.9 46.3595 217.11 46.3595H195.392V61.3861H214.735C215.525 61.3861 216.107 61.6747 216.473 62.2491C216.841 62.8263 217.027 63.7754 217.027 65.0991V67.3468C217.027 68.6705 216.841 69.6223 216.473 70.1967C216.107 70.7712 215.525 71.057 214.735 71.057H195.392V87.4683H217.193C217.986 87.4683 218.565 87.7569 218.934 88.3314C219.302 88.9086 219.485 89.8576 219.485 91.1813V93.429C219.485 94.7527 219.302 95.7045 218.931 96.279C218.565 96.8534 217.989 97.1392 217.193 97.1392H187.419ZM237.094 97.1392C236.018 97.1392 235.229 96.8811 234.719 96.3622C234.209 95.8433 233.957 95.0385 233.957 93.9424V39.0141C233.957 37.3435 235.453 36.511 238.451 36.511H240.571C242.157 36.511 243.301 36.7108 244.008 37.1132C244.715 37.5184 245.069 38.151 245.069 39.0141V87.4656H265.172C265.964 87.4656 266.53 87.7708 266.871 88.373C267.209 88.9779 267.378 89.9131 267.378 91.1785V93.4263C267.378 94.6917 267.211 95.6268 266.871 96.2318C266.53 96.8367 265.964 97.1392 265.172 97.1392H237.094Z" fill="white"/>
<path d="M285.532 91.935C290.856 91.935 295.173 87.5406 295.173 82.1199C295.173 76.6991 290.856 72.3047 285.532 72.3047C280.207 72.3047 275.891 76.6991 275.891 82.1199C275.891 87.5406 280.207 91.935 285.532 91.935Z" stroke="#0AAAE3" stroke-width="2"/>
<path d="M365.986 110.039C364.56 110.145 363.136 109.81 361.906 109.079C360.677 108.348 359.702 107.256 359.113 105.952L358.947 105.591C358.346 104.783 357.921 103.857 357.7 102.874L335.685 54.8056C334.055 51.2453 335.568 47.0107 339.066 45.3484L343.871 43.0674C344.705 42.6742 345.609 42.4513 346.53 42.4118C347.451 42.3723 348.371 42.517 349.235 42.8373C350.1 43.1577 350.892 43.6473 351.565 44.2776C352.239 44.9079 352.78 45.6663 353.157 46.5084L367.939 78.7789L404.459 5.80192C404.865 4.97361 405.433 4.2348 406.128 3.6287C406.823 3.0226 407.632 2.56137 408.507 2.27198C409.382 1.98259 410.307 1.87085 411.225 1.9433C412.144 2.01575 413.04 2.27093 413.859 2.69392L418.584 5.14147C422.02 6.92579 423.389 11.2104 421.638 14.7152L375.469 106.967C375.062 107.796 374.495 108.536 373.8 109.142C373.105 109.749 372.295 110.211 371.42 110.5C370.544 110.79 369.62 110.902 368.7 110.829C367.781 110.757 366.885 110.501 366.066 110.078L365.986 110.036V110.039ZM338.431 36.2631C338.182 36.3269 337.677 36.4296 336.464 36.6349C332.049 37.3731 331.082 41.7493 331.071 44.824C331.051 49.93 331.051 68.4947 331.068 100.518C331.068 104.448 327.942 107.633 324.084 107.636H318.705C314.873 107.636 311.752 104.492 311.716 100.588C311.55 82.6694 311.578 65.8113 311.791 50.0188C311.838 46.5223 308.313 41.8741 302.258 42.7566L301.526 42.887C301.451 42.9039 301.375 42.9214 301.299 42.9397C301.241 42.9541 301.182 42.9616 301.122 42.9619L296.161 43.8499C292.362 44.5326 288.737 41.9491 288.069 38.0779L287.147 32.7638C286.476 28.8927 289.014 25.2019 292.816 24.5221L377.783 9.26789C381.582 8.58524 385.21 11.1688 385.875 15.0399L386.798 20.354C387.468 24.2251 384.93 27.9159 381.128 28.5958L338.431 36.2631Z" fill="#0AAAE3"/>
</svg>
