<svg width="82" height="105" viewBox="0 0 82 105" fill="none" xmlns="http://www.w3.org/2000/svg">
<g clip-path="url(#clip0_1223_7738)">
<path d="M52.5 82.5V90H30V82.5H52.5Z" fill="#303030"/>
<path d="M75 105H7.5C5.51149 104.998 3.60499 104.207 2.19889 102.801C0.7928 101.395 0.00198554 99.4885 0 97.5V7.5C0.00198554 5.51149 0.7928 3.60498 2.19889 2.19889C3.60499 0.792799 5.51149 0.00198554 7.5 0H75C76.9885 0.00198554 78.895 0.792799 80.3011 2.19889C81.7072 3.60498 82.498 5.51149 82.5 7.5V97.5C82.497 99.4882 81.7059 101.394 80.3 102.8C78.8941 104.206 76.9882 104.997 75 105ZM7.5 7.5V97.5H75V7.5H7.5Z" fill="#303030"/>
</g>
<defs>
<clipPath id="clip0_1223_7738">
<rect width="82" height="105" fill="white"/>
</clipPath>
</defs>
</svg>
