<svg width="200" height="59" viewBox="0 0 200 59" fill="none" xmlns="http://www.w3.org/2000/svg">
<path d="M192.884 59H7.00593C3.1437 59 0 55.8612 0 52.0188V6.97085C0 3.127 3.1437 0 7.00593 0H192.884C196.745 0 200 3.127 200 6.97085V52.0188C200 55.8612 196.745 59 192.884 59Z" fill="#A6A6A6"/>
<path d="M198.566 52.0201C198.566 55.1412 196.027 57.6693 192.886 57.6693H7.00577C3.86651 57.6693 1.31836 55.1412 1.31836 52.0201V6.96913C1.31836 3.8495 3.86651 1.3125 7.00577 1.3125H192.884C196.027 1.3125 198.564 3.8495 198.564 6.96913L198.566 52.0201Z" fill="black"/>
<path d="M44.6343 29.1804C44.5913 24.4265 48.5439 22.1137 48.7246 22.006C46.4861 18.7566 43.0165 18.3126 41.7972 18.2772C38.8832 17.9719 36.0565 20.0133 34.5721 20.0133C33.058 20.0133 30.7721 18.3067 28.3083 18.3569C25.138 18.4055 22.1721 20.2331 20.5454 23.071C17.1884 28.8574 19.6921 37.3608 22.9084 42.038C24.5172 44.3287 26.3972 46.8863 28.858 46.7963C31.2654 46.6975 32.1646 45.2682 35.0698 45.2682C37.9484 45.2682 38.7928 46.7963 41.3024 46.7388C43.8861 46.6975 45.5128 44.4378 47.0654 42.1265C48.9246 39.501 49.6713 36.9153 49.7009 36.7826C49.6402 36.7619 44.6832 34.8783 44.6343 29.1804Z" fill="white"/>
<path d="M39.8931 15.2012C41.1879 13.589 42.0738 11.3957 41.8279 9.16992C39.9538 9.25252 37.6101 10.4605 36.2605 12.0373C35.0664 13.4268 33.9997 15.7042 34.2753 17.8459C36.3805 18.0022 38.542 16.7883 39.8931 15.2012Z" fill="white"/>
<path d="M79.4745 46.4672H76.1101L74.2671 40.7014H67.8612L66.1056 46.4672H62.8301L69.1767 26.8379H73.0967L79.4745 46.4672ZM73.7116 38.2824L72.0449 33.1568C71.8686 32.6332 71.5382 31.4001 71.0508 29.459H70.9916C70.7975 30.2938 70.4849 31.5269 70.0553 33.1568L68.4182 38.2824H73.7116Z" fill="white"/>
<path d="M95.7958 39.217C95.7958 41.6242 95.1425 43.527 93.8358 44.9238C92.6655 46.1672 91.2121 46.7882 89.4773 46.7882C87.6047 46.7882 86.2595 46.1185 85.4403 44.7792H85.381V52.2354H82.2225V36.9735C82.2225 35.4602 82.1825 33.907 82.1055 32.314H84.8832L85.0595 34.5575H85.1188C86.1721 32.8671 87.7707 32.0234 89.9158 32.0234C91.5929 32.0234 92.9929 32.6828 94.1129 34.0029C95.2358 35.3245 95.7958 37.062 95.7958 39.217ZM92.5781 39.3321C92.5781 37.9544 92.267 36.8187 91.6418 35.9248C90.9588 34.9926 90.0418 34.5265 88.8921 34.5265C88.1129 34.5265 87.4047 34.7861 86.7721 35.2979C86.1381 35.8142 85.7232 36.4883 85.5292 37.3231C85.4314 37.7125 85.3825 38.0311 85.3825 38.2819V40.6419C85.3825 41.6714 85.6995 42.5402 86.3336 43.2497C86.9677 43.9591 87.7914 44.3131 88.8047 44.3131C89.9944 44.3131 90.9203 43.8559 91.5825 42.9443C92.2462 42.0313 92.5781 40.8277 92.5781 39.3321Z" fill="white"/>
<path d="M112.147 39.217C112.147 41.6242 111.494 43.527 110.185 44.9238C109.017 46.1672 107.563 46.7882 105.828 46.7882C103.956 46.7882 102.611 46.1185 101.793 44.7792H101.734V52.2354H98.575V36.9735C98.575 35.4602 98.535 33.907 98.458 32.314H101.236L101.412 34.5575H101.471C102.523 32.8671 104.122 32.0234 106.268 32.0234C107.944 32.0234 109.344 32.6828 110.467 34.0029C111.585 35.3245 112.147 37.062 112.147 39.217ZM108.929 39.3321C108.929 37.9544 108.617 36.8187 107.991 35.9248C107.308 34.9926 106.394 34.5265 105.243 34.5265C104.462 34.5265 103.756 34.7861 103.122 35.2979C102.488 35.8142 102.074 36.4883 101.88 37.3231C101.784 37.7125 101.734 38.0311 101.734 38.2819V40.6419C101.734 41.6714 102.051 42.5402 102.682 43.2497C103.316 43.9577 104.139 44.3131 105.156 44.3131C106.345 44.3131 107.271 43.8559 107.934 42.9443C108.597 42.0313 108.929 40.8277 108.929 39.3321Z" fill="white"/>
<path d="M130.428 40.963C130.428 42.6327 129.846 43.9912 128.677 45.0399C127.393 46.186 125.605 46.7583 123.307 46.7583C121.185 46.7583 119.485 46.3512 118.197 45.5355L118.929 42.9144C120.316 43.7493 121.837 44.1682 123.495 44.1682C124.685 44.1682 125.611 43.8997 126.276 43.3658C126.938 42.8318 127.268 42.115 127.268 41.2211C127.268 40.4246 126.996 39.7535 126.449 39.2092C125.905 38.665 124.997 38.159 123.729 37.6915C120.277 36.4097 118.553 34.532 118.553 32.0629C118.553 30.4492 119.157 29.1261 120.368 28.0966C121.574 27.0656 123.182 26.5508 125.194 26.5508C126.988 26.5508 128.479 26.862 129.668 27.483L128.879 30.0465C127.768 29.4447 126.511 29.1438 125.105 29.1438C123.994 29.1438 123.126 29.4167 122.504 29.9595C121.978 30.4448 121.714 31.0363 121.714 31.7369C121.714 32.5127 122.015 33.1544 122.619 33.6588C123.145 34.1249 124.101 34.6294 125.488 35.1736C127.184 35.8536 128.43 36.6486 129.231 37.5602C130.03 38.4688 130.428 39.606 130.428 40.963Z" fill="white"/>
<path d="M140.872 34.6738H137.39V41.5459C137.39 43.2937 138.003 44.1669 139.233 44.1669C139.798 44.1669 140.266 44.1183 140.636 44.0209L140.723 46.4089C140.101 46.6405 139.282 46.757 138.267 46.757C137.02 46.757 136.045 46.378 135.341 45.6213C134.641 44.8631 134.288 43.5917 134.288 41.8055V34.6709H132.214V32.3109H134.288V29.7193L137.39 28.7871V32.3109H140.872V34.6738Z" fill="white"/>
<path d="M156.58 39.275C156.58 41.4506 155.955 43.2369 154.707 44.6337C153.399 46.0718 151.663 46.7887 149.498 46.7887C147.412 46.7887 145.752 46.0998 144.513 44.7222C143.275 43.3445 142.655 41.6055 142.655 39.5095C142.655 37.3162 143.292 35.5197 144.571 34.1228C145.846 32.7245 147.568 32.0254 149.732 32.0254C151.818 32.0254 153.497 32.7142 154.763 34.0933C155.975 35.4312 156.58 37.1584 156.58 39.275ZM153.303 39.3768C153.303 38.0714 153.023 36.9519 152.455 36.0182C151.793 34.8884 150.846 34.3249 149.62 34.3249C148.35 34.3249 147.386 34.8898 146.723 36.0182C146.156 36.9534 145.876 38.0906 145.876 39.4358C145.876 40.7412 146.156 41.8607 146.723 42.7929C147.406 43.9227 148.36 44.4862 149.592 44.4862C150.797 44.4862 151.744 43.9109 152.427 42.7634C153.009 41.812 153.303 40.6807 153.303 39.3768Z" fill="white"/>
<path d="M166.846 35.0796C166.534 35.0221 166.2 34.9926 165.851 34.9926C164.739 34.9926 163.88 35.41 163.276 36.2464C162.75 36.9839 162.486 37.9161 162.486 39.0415V46.4681H159.329L159.359 36.7715C159.359 35.1401 159.319 33.6548 159.24 32.3155H161.991L162.107 35.0236H162.194C162.528 34.0929 163.054 33.3436 163.774 32.7816C164.477 32.2757 165.237 32.0234 166.057 32.0234C166.348 32.0234 166.612 32.0441 166.846 32.081V35.0796Z" fill="white"/>
<path d="M180.972 38.7206C180.972 39.2841 180.935 39.759 180.856 40.1469H171.381C171.418 41.5452 171.876 42.6146 172.756 43.3521C173.554 44.0114 174.587 44.3418 175.855 44.3418C177.258 44.3418 178.538 44.1191 179.689 43.6722L180.184 45.8552C178.839 46.4393 177.25 46.7299 175.418 46.7299C173.213 46.7299 171.483 46.0838 170.224 44.7932C168.968 43.5026 168.338 41.7694 168.338 39.5953C168.338 37.461 168.923 35.6836 170.095 34.2661C171.322 32.7528 172.979 31.9961 175.065 31.9961C177.114 31.9961 178.665 32.7528 179.719 34.2661C180.553 35.4682 180.972 36.955 180.972 38.7206ZM177.96 37.9049C177.981 36.9727 177.775 36.1674 177.347 35.4874C176.8 34.6127 175.96 34.1761 174.83 34.1761C173.797 34.1761 172.957 34.6024 172.316 35.4579C171.79 36.1379 171.477 36.9536 171.381 37.9035H177.96V37.9049Z" fill="white"/>
<path d="M72.6666 14.7631C72.6666 16.4992 72.1436 17.806 71.0992 18.6836C70.1317 19.4934 68.7569 19.899 66.9762 19.899C66.0932 19.899 65.3377 19.8607 64.7051 19.784V10.2983C65.5303 10.1655 66.4192 10.0977 67.3792 10.0977C69.0754 10.0977 70.354 10.4649 71.2162 11.1995C72.1821 12.0299 72.6666 13.2173 72.6666 14.7631ZM71.0295 14.8059C71.0295 13.6804 70.7303 12.8176 70.1317 12.2158C69.5332 11.6154 68.6592 11.3145 67.508 11.3145C67.0192 11.3145 66.6029 11.347 66.2577 11.4148V18.6261C66.4488 18.6556 66.7984 18.6689 67.3066 18.6689C68.4947 18.6689 69.4117 18.34 70.0577 17.6821C70.7036 17.0243 71.0295 16.0655 71.0295 14.8059Z" fill="white"/>
<path d="M81.3468 16.2794C81.3468 17.3488 81.0402 18.2249 80.4268 18.9123C79.7839 19.6188 78.932 19.9713 77.8683 19.9713C76.8431 19.9713 76.0268 19.6335 75.4179 18.955C74.8105 18.278 74.5068 17.424 74.5068 16.3944C74.5068 15.3177 74.8194 14.4342 75.4476 13.7483C76.0757 13.0624 76.9202 12.7188 77.9839 12.7188C79.0091 12.7188 79.8328 13.0565 80.4565 13.7335C81.0491 14.3914 81.3468 15.241 81.3468 16.2794ZM79.7365 16.3296C79.7365 15.6879 79.5972 15.1377 79.3202 14.679C78.9942 14.1244 78.5305 13.8471 77.9276 13.8471C77.3039 13.8471 76.8298 14.1244 76.5039 14.679C76.2254 15.1377 76.0876 15.6968 76.0876 16.3576C76.0876 16.9992 76.2268 17.5494 76.5039 18.0081C76.8402 18.5627 77.3083 18.84 77.9128 18.84C78.5054 18.84 78.9705 18.5583 79.3053 17.9934C79.5928 17.5258 79.7365 16.9712 79.7365 16.3296Z" fill="white"/>
<path d="M92.9847 12.8594L90.7995 19.8125H89.3773L88.4721 16.7932C88.2425 16.0395 88.0558 15.2902 87.9107 14.5468H87.8825C87.7477 15.3108 87.561 16.0587 87.321 16.7932L86.3595 19.8125H84.921L82.8662 12.8594H84.4618L85.2514 16.1649C85.4425 16.9466 85.5995 17.6915 85.7255 18.3965H85.7536C85.8692 17.8154 86.0603 17.0749 86.3299 16.1796L87.321 12.8609H88.5862L89.5358 16.1088C89.7655 16.9009 89.9521 17.6635 90.0958 18.398H90.1388C90.244 17.6826 90.4025 16.9201 90.6129 16.1088L91.4603 12.8609H92.9847V12.8594Z" fill="white"/>
<path d="M101.034 19.814H99.481V15.8315C99.481 14.6043 99.0128 13.9907 98.0736 13.9907C97.6128 13.9907 97.241 14.1589 96.9521 14.4966C96.6662 14.8344 96.521 15.2327 96.521 15.6884V19.8125H94.9684V14.8477C94.9684 14.237 94.9491 13.5748 94.9121 12.8579H96.2766L96.3491 13.945H96.3921C96.5729 13.6072 96.8425 13.3284 97.1966 13.1057C97.6173 12.8461 98.0884 12.7148 98.604 12.7148C99.2558 12.7148 99.798 12.9243 100.229 13.3447C100.765 13.8594 101.034 14.6279 101.034 15.6486V19.814Z" fill="white"/>
<path d="M105.316 19.8135H103.765V9.66992H105.316V19.8135Z" fill="white"/>
<path d="M114.456 16.2794C114.456 17.3488 114.15 18.2249 113.536 18.9123C112.893 19.6188 112.04 19.9713 110.978 19.9713C109.951 19.9713 109.135 19.6335 108.527 18.955C107.92 18.278 107.616 17.424 107.616 16.3944C107.616 15.3177 107.929 14.4342 108.557 13.7483C109.185 13.0624 110.03 12.7188 111.092 12.7188C112.118 12.7188 112.941 13.0565 113.566 13.7335C114.158 14.3914 114.456 15.241 114.456 16.2794ZM112.844 16.3296C112.844 15.6879 112.705 15.1377 112.428 14.679C112.104 14.1244 111.638 13.8471 111.037 13.8471C110.412 13.8471 109.938 14.1244 109.613 14.679C109.335 15.1377 109.197 15.6968 109.197 16.3576C109.197 16.9992 109.336 17.5494 109.613 18.0081C109.95 18.5627 110.418 18.84 111.022 18.84C111.615 18.84 112.078 18.5583 112.413 17.9934C112.702 17.5258 112.844 16.9712 112.844 16.3296Z" fill="white"/>
<path d="M121.971 19.8135H120.577L120.461 19.0126H120.418C119.941 19.6513 119.261 19.9713 118.378 19.9713C117.719 19.9713 117.185 19.7604 116.784 19.3415C116.42 18.9609 116.237 18.4875 116.237 17.9255C116.237 17.0759 116.593 16.4284 117.308 15.98C118.022 15.5316 119.027 15.3118 120.32 15.3221V15.1923C120.32 14.2764 119.837 13.8191 118.87 13.8191C118.181 13.8191 117.574 13.9917 117.049 14.3339L116.734 13.3191C117.382 12.9193 118.184 12.7188 119.129 12.7188C120.954 12.7188 121.87 13.6775 121.87 15.595V18.1556C121.87 18.8503 121.904 19.4034 121.971 19.8135ZM120.359 17.424V16.3517C118.646 16.3222 117.79 16.7898 117.79 17.7529C117.79 18.1158 117.888 18.3872 118.088 18.5686C118.288 18.75 118.542 18.84 118.846 18.84C119.187 18.84 119.505 18.7323 119.796 18.5185C120.088 18.3031 120.267 18.0302 120.334 17.6954C120.35 17.6202 120.359 17.5287 120.359 17.424Z" fill="white"/>
<path d="M130.793 19.8135H129.415L129.342 18.6969H129.299C128.859 19.5465 128.11 19.9713 127.056 19.9713C126.215 19.9713 125.514 19.6424 124.959 18.9845C124.403 18.3267 124.126 17.4727 124.126 16.4239C124.126 15.2985 124.427 14.387 125.031 13.6908C125.616 13.0418 126.333 12.7173 127.187 12.7173C128.124 12.7173 128.781 13.0314 129.154 13.6613H129.184V9.66992H130.738V17.9402C130.738 18.6173 130.756 19.2412 130.793 19.8135ZM129.184 16.8812V15.7218C129.184 15.5212 129.169 15.359 129.141 15.2351C129.053 14.8634 128.865 14.5507 128.579 14.2985C128.29 14.0462 127.942 13.9194 127.541 13.9194C126.962 13.9194 126.508 14.148 126.175 14.6067C125.844 15.0655 125.677 15.651 125.677 16.3664C125.677 17.0538 125.836 17.6113 126.154 18.0405C126.49 18.4978 126.944 18.7264 127.511 18.7264C128.021 18.7264 128.428 18.5361 128.738 18.1541C129.037 17.8016 129.184 17.3768 129.184 16.8812Z" fill="white"/>
<path d="M144.071 16.2794C144.071 17.3488 143.765 18.2249 143.151 18.9123C142.508 19.6188 141.658 19.9713 140.593 19.9713C139.569 19.9713 138.753 19.6335 138.143 18.955C137.535 18.278 137.231 17.424 137.231 16.3944C137.231 15.3177 137.544 14.4342 138.172 13.7483C138.8 13.0624 139.645 12.7188 140.71 12.7188C141.734 12.7188 142.559 13.0565 143.181 13.7335C143.774 14.3914 144.071 15.241 144.071 16.2794ZM142.463 16.3296C142.463 15.6879 142.323 15.1377 142.046 14.679C141.719 14.1244 141.257 13.8471 140.652 13.8471C140.03 13.8471 139.556 14.1244 139.228 14.679C138.95 15.1377 138.812 15.6968 138.812 16.3576C138.812 16.9992 138.951 17.5494 139.228 18.0081C139.565 18.5627 140.033 18.84 140.637 18.84C141.23 18.84 141.697 18.5583 142.031 17.9934C142.317 17.5258 142.463 16.9712 142.463 16.3296Z" fill="white"/>
<path d="M152.419 19.814H150.868V15.8315C150.868 14.6043 150.4 13.9907 149.459 13.9907C148.998 13.9907 148.626 14.1589 148.339 14.4966C148.051 14.8344 147.908 15.2327 147.908 15.6884V19.8125H146.354V14.8477C146.354 14.237 146.336 13.5748 146.299 12.8579H147.662L147.734 13.945H147.777C147.96 13.6072 148.229 13.3284 148.582 13.1057C149.004 12.8461 149.474 12.7148 149.991 12.7148C150.641 12.7148 151.183 12.9243 151.614 13.3447C152.152 13.8594 152.419 14.6279 152.419 15.6486V19.814Z" fill="white"/>
<path d="M162.868 14.0184H161.158V17.3962C161.158 18.2546 161.462 18.6839 162.063 18.6839C162.342 18.6839 162.573 18.6603 162.755 18.6116L162.795 19.7842C162.488 19.8993 162.085 19.9568 161.589 19.9568C160.976 19.9568 160.499 19.7709 160.154 19.3992C159.807 19.0275 159.635 18.4021 159.635 17.5245V14.0184H158.614V12.8606H159.635V11.5862L161.156 11.1289V12.8591H162.866V14.0184H162.868Z" fill="white"/>
<path d="M171.088 19.8135H169.534V15.8605C169.534 14.6141 169.065 13.9902 168.128 13.9902C167.408 13.9902 166.916 14.3516 166.646 15.0743C166.6 15.2262 166.574 15.4121 166.574 15.6304V19.812H165.022V9.66992H166.574V13.8604H166.603C167.092 13.0978 167.793 12.7173 168.701 12.7173C169.344 12.7173 169.876 12.9267 170.298 13.3471C170.824 13.8707 171.088 14.6495 171.088 15.6791V19.8135Z" fill="white"/>
<path d="M179.566 16.0076C179.566 16.2849 179.546 16.518 179.509 16.7082H174.852C174.873 17.3956 175.095 17.9192 175.526 18.2821C175.92 18.6066 176.429 18.7688 177.051 18.7688C177.74 18.7688 178.368 18.6597 178.934 18.4399L179.177 19.5137C178.514 19.7998 177.735 19.9429 176.833 19.9429C175.751 19.9429 174.9 19.6258 174.283 18.9915C173.664 18.3573 173.357 17.5062 173.357 16.4383C173.357 15.3896 173.643 14.5164 174.22 13.8202C174.821 13.0768 175.634 12.7051 176.661 12.7051C177.666 12.7051 178.429 13.0768 178.944 13.8202C179.36 14.4102 179.566 15.1403 179.566 16.0076ZM178.085 15.6079C178.097 15.1492 177.994 14.7539 177.784 14.4205C177.514 13.9913 177.104 13.7759 176.549 13.7759C176.042 13.7759 175.629 13.9854 175.313 14.4058C175.055 14.7406 174.903 15.1403 174.852 15.6079H178.085Z" fill="white"/>
</svg>
