<svg width="200" height="59" viewBox="0 0 200 59" fill="none" xmlns="http://www.w3.org/2000/svg">
<path fill-rule="evenodd" clip-rule="evenodd" d="M192.59 59H7.41013C3.3261 59 0 55.6748 0 51.625V7.375C0 3.31047 3.3261 0 7.41013 0H192.59C196.67 0 200 3.31047 200 7.375V51.625C200 55.6748 196.67 59 192.59 59Z" fill="black"/>
<path fill-rule="evenodd" clip-rule="evenodd" d="M192.59 1.18074C196.015 1.18074 198.819 3.96521 198.819 7.375V51.625C198.819 55.0348 196.034 57.8193 192.59 57.8193H7.41013C3.98469 57.8193 1.18106 55.0348 1.18106 51.625V7.375C1.18106 3.96521 3.9663 1.18074 7.41013 1.18074H192.59ZM192.59 0H7.41013C3.3261 0 0 3.32519 0 7.375V51.625C0 55.6895 3.3261 59 7.41013 59H192.59C196.67 59 200 55.6895 200 51.625V7.375C200 3.32519 196.67 0 192.59 0Z" fill="#A6A6A6"/>
<path d="M105.361 19.5164C104.026 19.5164 102.9 19.0492 102.009 18.1296C101.126 17.2358 100.633 16.0036 100.655 14.7456C100.655 13.403 101.111 12.2664 102.009 11.3652C102.896 10.4457 104.022 9.97852 105.357 9.97852C106.678 9.97852 107.804 10.4457 108.709 11.3652C109.607 12.2958 110.063 13.4324 110.063 14.7456C110.049 16.0919 109.592 17.2285 108.709 18.126C107.823 19.0529 106.697 19.5164 105.361 19.5164ZM65.6209 19.5164C64.3147 19.5164 63.1815 19.0566 62.2543 18.148C61.3345 17.2432 60.8672 16.0992 60.8672 14.7493C60.8672 13.3993 61.3345 12.2554 62.2543 11.3505C63.1631 10.442 64.2963 9.98219 65.6209 9.98219C66.2684 9.98219 66.8976 10.1109 67.501 10.3721C68.0934 10.6259 68.5753 10.9717 68.9322 11.3947L69.0205 11.5013L68.0234 12.4798L67.9204 12.3584C67.3575 11.6889 66.6032 11.3616 65.6061 11.3616C64.7157 11.3616 63.9394 11.6779 63.2992 12.3032C62.6553 12.9322 62.3279 13.7561 62.3279 14.753C62.3279 15.7498 62.6553 16.5737 63.2992 17.2027C63.9394 17.828 64.7157 18.1444 65.6061 18.1444C66.5554 18.1444 67.3538 17.828 67.9756 17.2027C68.3435 16.8349 68.5717 16.3199 68.6526 15.6689H65.4553V14.2932H70.025L70.0434 14.4182C70.0765 14.65 70.1096 14.8891 70.1096 15.1098C70.1096 16.3788 69.727 17.405 68.969 18.1627C68.1081 19.0603 66.9822 19.5164 65.6209 19.5164ZM118.459 19.3214H117.05L112.734 12.4172L112.771 13.6605V19.3177H111.362V10.1771H112.97L113.014 10.247L117.072 16.7503L117.036 15.5107V10.1771H118.459V19.3214ZM94.772 19.3214H93.3445V11.5528H90.8683V10.1771H97.2445V11.5528H94.7684V19.3214H94.772ZM89.7056 19.3214H88.2817V10.1771H89.7056V19.3214ZM81.7031 19.3214H80.2792V11.5528H77.8031V10.1771H84.1793V11.5528H81.7031V19.3214ZM76.9016 19.3067H71.4415V10.1771H76.9016V11.5528H72.8691V14.0614H76.5079V15.4224H72.8691V17.931H76.9016V19.3067ZM103.054 17.1843C103.691 17.8207 104.463 18.1407 105.361 18.1407C106.285 18.1407 107.039 17.828 107.668 17.1843C108.294 16.559 108.61 15.7387 108.61 14.7493C108.61 13.7598 108.293 12.9359 107.672 12.3142C107.035 11.6779 106.259 11.3579 105.365 11.3579C104.441 11.3579 103.687 11.6705 103.062 12.3142C102.436 12.9396 102.12 13.7598 102.12 14.7493C102.12 15.7387 102.432 16.5627 103.054 17.1843Z" fill="white"/>
<path fill-rule="evenodd" clip-rule="evenodd" d="M100.522 32.0898C97.0452 32.0898 94.2269 34.7271 94.2269 38.3649C94.2269 41.9697 97.0636 44.6401 100.522 44.6401C103.999 44.6401 106.817 41.9844 106.817 38.3649C106.817 34.7271 103.999 32.0898 100.522 32.0898ZM100.522 42.1536C98.62 42.1536 96.9827 40.5793 96.9827 38.3502C96.9827 36.0881 98.6236 34.5469 100.522 34.5469C102.424 34.5469 104.062 36.0881 104.062 38.3502C104.065 40.594 102.424 42.1536 100.522 42.1536ZM86.7873 32.0898C83.3103 32.0898 80.492 34.7271 80.492 38.3649C80.492 41.9697 83.3287 44.6401 86.7873 44.6401C90.2642 44.6401 93.0826 41.9844 93.0826 38.3649C93.0826 34.7271 90.2606 32.0898 86.7873 32.0898ZM86.7873 42.1536C84.8851 42.1536 83.2478 40.5793 83.2478 38.3502C83.2478 36.0881 84.8888 34.5469 86.7873 34.5469C88.6895 34.5469 90.3268 36.0881 90.3268 38.3502C90.3268 40.594 88.6895 42.1536 86.7873 42.1536ZM70.4438 34.0062V36.6619H76.82C76.625 38.1516 76.132 39.2514 75.3777 40.0055C74.4432 40.9398 73.0009 41.955 70.4585 41.955C66.54 41.955 63.4752 38.7916 63.4752 34.8742C63.4752 30.9568 66.54 27.7935 70.4585 27.7935C72.5741 27.7935 74.1157 28.6285 75.26 29.6952L77.1438 27.8119C75.5544 26.2891 73.4387 25.123 70.4732 25.123C65.0978 25.123 60.5869 29.5002 60.5869 34.8595C60.5869 40.2335 65.0941 44.596 70.4732 44.596C73.3762 44.596 75.5544 43.647 77.2763 41.8593C79.0313 40.1048 79.5869 37.6293 79.5869 35.632C79.5869 35.0103 79.539 34.4512 79.4397 33.9767H70.4401C70.4438 33.973 70.4438 34.0062 70.4438 34.0062ZM137.293 36.0734C136.767 34.6646 135.178 32.075 131.918 32.075C128.687 32.075 126.001 34.6167 126.001 38.3502C126.001 41.874 128.658 44.6254 132.23 44.6254C135.1 44.6254 136.771 42.8709 137.459 41.8409L135.328 40.4138C134.622 41.4621 133.64 42.1499 132.245 42.1499C130.836 42.1499 129.85 41.5099 129.195 40.2482L137.588 36.7722C137.588 36.7759 137.293 36.0734 137.293 36.0734ZM128.735 38.17C128.669 35.746 130.619 34.5138 132.013 34.5138C133.113 34.5138 134.03 35.0545 134.342 35.8416L128.735 38.17ZM121.917 44.2502H124.673V25.8146H121.917V44.2502ZM117.392 33.4838H117.292C116.671 32.7445 115.49 32.075 113.981 32.075C110.85 32.075 107.965 34.8301 107.965 38.3686C107.965 41.8924 110.835 44.6144 113.981 44.6144C115.471 44.6144 116.671 43.9412 117.292 43.1872H117.392V44.0884C117.392 46.483 116.111 47.774 114.047 47.774C112.358 47.774 111.31 46.5602 110.883 45.545L108.488 46.5455C109.176 48.2007 111.012 50.2495 114.044 50.2495C117.274 50.2495 120.011 48.3479 120.011 43.7095V32.4502H117.407V33.4838C117.41 33.4838 117.392 33.4838 117.392 33.4838ZM114.228 42.1536C112.325 42.1536 110.736 40.5646 110.736 38.3686C110.736 36.1543 112.325 34.5505 114.228 34.5505C116.111 34.5505 117.572 36.1727 117.572 38.3686C117.59 40.5646 116.115 42.1536 114.228 42.1536ZM150.197 25.8146H143.607V44.2502H146.363V37.2688H150.2C153.25 37.2688 156.249 35.0581 156.249 31.549C156.249 28.0399 153.261 25.8146 150.197 25.8146ZM150.277 34.694H146.359V28.3673H150.277C152.342 28.3673 153.508 30.0704 153.508 31.5307C153.508 32.9762 152.327 34.694 150.277 34.694ZM167.294 32.0566C165.293 32.0566 163.229 32.9431 162.375 34.8742L164.818 35.8894C165.344 34.8742 166.308 34.5285 167.327 34.5285C168.755 34.5285 170.197 35.3818 170.23 36.9047V37.0996C169.737 36.8201 168.656 36.3934 167.361 36.3934C164.722 36.3934 162.048 37.8353 162.048 40.5388C162.048 43.0143 164.211 44.6033 166.621 44.6033C168.472 44.6033 169.491 43.7684 170.127 42.801H170.227V44.2282H172.883V37.1658C172.883 33.8774 170.44 32.0566 167.294 32.0566ZM166.948 42.1536C166.047 42.1536 164.785 41.7122 164.785 40.5793C164.785 39.1521 166.36 38.6114 167.703 38.6114C168.917 38.6114 169.491 38.8725 170.212 39.233C170.013 40.8883 168.615 42.1389 166.948 42.1536ZM182.574 32.4502L179.41 40.4469H179.311L176.033 32.4502H173.067L177.986 43.6286L175.183 49.8412H178.053L185.621 32.4502H182.574ZM157.769 44.2502H160.524V25.8146H157.769V44.2502Z" fill="white"/>
<path fill-rule="evenodd" clip-rule="evenodd" d="M15.394 11.113C14.9672 11.5728 14.7207 12.2753 14.7207 13.1949V45.8104C14.7207 46.73 14.9672 47.4326 15.4087 47.874L15.5228 47.9733L33.8016 29.6995V29.2912L15.5081 11.0137L15.394 11.113Z" fill="url(#paint0_linear_782_5328)"/>
<path fill-rule="evenodd" clip-rule="evenodd" d="M39.8837 35.808L33.7871 29.713V29.2864L39.8837 23.1914L40.0162 23.2723L47.2276 27.37C49.2917 28.5323 49.2917 30.4524 47.2276 31.6294L40.0162 35.7271L39.8837 35.808Z" fill="url(#paint1_linear_782_5328)"/>
<path fill-rule="evenodd" clip-rule="evenodd" d="M40.0165 35.7274L33.7874 29.5L15.3945 47.8878C16.0678 48.6088 17.1974 48.6897 18.4594 47.9871L40.0165 35.7274Z" fill="url(#paint2_linear_782_5328)"/>
<path fill-rule="evenodd" clip-rule="evenodd" d="M40.0165 23.2721L18.4594 11.0307C17.1974 10.3098 16.0642 10.4091 15.3945 11.13L33.7874 29.4995L40.0165 23.2721Z" fill="url(#paint3_linear_782_5328)"/>
<path opacity="0.2" fill-rule="evenodd" clip-rule="evenodd" d="M39.884 35.5957L18.474 47.7562C17.2783 48.444 16.2113 48.3962 15.5232 47.7709L15.4092 47.8849L15.5232 47.9842C16.2113 48.6058 17.2783 48.6573 18.474 47.9695L40.0311 35.7281L39.884 35.5957Z" fill="black"/>
<path opacity="0.12" fill-rule="evenodd" clip-rule="evenodd" d="M47.2275 31.4164L39.8652 35.5949L39.9977 35.7274L47.2091 31.6297C48.243 31.0412 48.7508 30.2688 48.7508 29.5C48.6882 30.2062 48.1621 30.8757 47.2275 31.4164Z" fill="black"/>
<path opacity="0.25" fill-rule="evenodd" clip-rule="evenodd" d="M18.4589 11.2446L47.2274 27.5837C48.162 28.1097 48.6881 28.7975 48.7691 29.5001C48.7691 28.7313 48.2613 27.9588 47.2274 27.3703L18.4589 11.0313C16.3948 9.85055 14.7207 10.8363 14.7207 13.1941V13.4075C14.7207 11.046 16.3948 10.0786 18.4589 11.2446Z" fill="white"/>
<defs>
<linearGradient id="paint0_linear_782_5328" x1="32.162" y1="12.843" x2="2.88358" y2="20.6464" gradientUnits="userSpaceOnUse">
<stop stop-color="#00A0FF"/>
<stop offset="0.00657" stop-color="#00A1FF"/>
<stop offset="0.2601" stop-color="#00BEFF"/>
<stop offset="0.5122" stop-color="#00D2FF"/>
<stop offset="0.7604" stop-color="#00DFFF"/>
<stop offset="1" stop-color="#00E3FF"/>
</linearGradient>
<linearGradient id="paint1_linear_782_5328" x1="49.9194" y1="29.4998" x2="14.2192" y2="29.4998" gradientUnits="userSpaceOnUse">
<stop stop-color="#FFE000"/>
<stop offset="0.4087" stop-color="#FFBD00"/>
<stop offset="0.7754" stop-color="#FFA500"/>
<stop offset="1" stop-color="#FF9C00"/>
</linearGradient>
<linearGradient id="paint2_linear_782_5328" x1="36.6293" y1="32.8886" x2="13.1334" y2="72.445" gradientUnits="userSpaceOnUse">
<stop stop-color="#FF3A44"/>
<stop offset="1" stop-color="#C31162"/>
</linearGradient>
<linearGradient id="paint3_linear_782_5328" x1="10.763" y1="0.263204" x2="21.2455" y2="17.9297" gradientUnits="userSpaceOnUse">
<stop stop-color="#32A071"/>
<stop offset="0.0685" stop-color="#2DA771"/>
<stop offset="0.4762" stop-color="#15CF74"/>
<stop offset="0.8009" stop-color="#06E775"/>
<stop offset="1" stop-color="#00F076"/>
</linearGradient>
</defs>
</svg>
