<svg width="120" height="120" viewBox="0 0 120 120" fill="none" xmlns="http://www.w3.org/2000/svg">
<circle cx="60" cy="60" r="59" stroke="#28C0E2" stroke-width="2"/>
<path d="M45.0667 54H46.5667L52.0067 39.68H50.5267L46.7267 49.62C46.5067 50.16 46.1467 51.16 45.8467 52.2C45.5267 51.2 45.2467 50.42 44.9467 49.64L41.1267 39.68H39.5867L45.0667 54ZM54.3192 41.66C54.8792 41.66 55.3592 41.2 55.3592 40.64C55.3592 40.08 54.8792 39.6 54.3192 39.6C53.7592 39.6 53.2992 40.08 53.2992 40.64C53.2992 41.2 53.7592 41.66 54.3192 41.66ZM53.6392 54H55.0192V44.32H53.6392V54ZM61.957 54.24C64.237 54.24 65.737 53.14 66.257 51.1H64.937C64.577 52.38 63.557 53.06 61.977 53.06C59.897 53.06 58.657 51.7 58.557 49.34H66.257V48.66C66.257 45.92 64.477 44.06 61.857 44.06C59.097 44.06 57.217 46.14 57.217 49.16C57.217 52.2 59.117 54.24 61.957 54.24ZM61.857 45.24C63.677 45.24 64.877 46.48 64.877 48.34H58.597C58.837 46.44 60.037 45.24 61.857 45.24ZM70.2495 54H71.6295L73.6295 47.92C73.8895 47.12 74.0495 46.54 74.1895 46.02C74.3095 46.6 74.4695 47.2 74.7095 47.92L76.7095 54H78.0495L81.3295 44.32H79.8895L77.9695 50.16C77.6295 51.2 77.5895 51.44 77.3895 52.24C77.2095 51.52 76.9695 50.68 76.7895 50.16L74.8895 44.32H73.4695L71.5495 50.16C71.4495 50.48 71.1295 51.46 70.9695 52.24C70.7695 51.46 70.5895 50.8 70.3695 50.16L68.4695 44.32H67.0495L70.2495 54ZM42.8179 82H44.1979L46.1979 75.92C46.4579 75.12 46.6179 74.54 46.7579 74.02C46.8779 74.6 47.0379 75.2 47.2779 75.92L49.2779 82H50.6179L53.8979 72.32H52.4579L50.5379 78.16C50.1979 79.2 50.1579 79.44 49.9579 80.24C49.7779 79.52 49.5379 78.68 49.3579 78.16L47.4579 72.32H46.0379L44.1179 78.16C44.0179 78.48 43.6979 79.46 43.5379 80.24C43.3379 79.46 43.1579 78.8 42.9379 78.16L41.0379 72.32H39.6179L42.8179 82ZM54.512 77.16C54.512 80.1 56.592 82.24 59.432 82.24C62.272 82.24 64.352 80.1 64.352 77.16C64.352 74.2 62.272 72.06 59.432 72.06C56.592 72.06 54.512 74.2 54.512 77.16ZM55.912 77.14C55.912 74.9 57.352 73.3 59.432 73.3C61.492 73.3 62.952 74.9 62.952 77.14C62.952 79.42 61.492 81 59.432 81C57.352 81 55.912 79.42 55.912 77.14ZM71.6191 72.2C71.2791 72.12 71.0191 72.1 70.7191 72.1C69.3591 72.1 68.3391 72.78 67.9591 73.82L67.8591 72.32H66.5591V82H67.9391V76.48C67.9391 74.64 69.0791 73.44 70.8591 73.44H71.6191V72.2ZM74.8937 82V79.1L76.7737 77.16L79.8537 82H81.4537L77.7137 76.18L81.4337 72.32H79.6937L74.8937 77.32V67.42H73.5137V82H74.8937Z" fill="#303030"/>
</svg>
