<svg width="50" height="50" viewBox="0 0 50 50" fill="none" xmlns="http://www.w3.org/2000/svg">
<path d="M19.5702 21.827H17.5548L12.385 13.6328V21.827H10.3696V10.2773H12.385L17.5708 18.5033V10.2773H19.5702V21.827Z" fill="#FDFDFD"/>
<path d="M26.0787 21.827H24.1211V10.2773H26.0787V21.827Z" fill="#28C0E2"/>
<path d="M26.0787 39.6903H24.1211V28.1406H26.0787V39.6903Z" fill="#FDFDFD"/>
<path d="M39.6353 11.8956H36.0765V21.827H34.109V11.8956H30.5815V10.2773H39.6353V11.8956Z" fill="#28C0E2"/>
<path d="M14.638 35.2402H12.3881V39.6903H10.3696V28.1406H14.4545C15.7948 28.1406 16.8293 28.4394 17.558 29.037C18.2867 29.6346 18.651 30.4992 18.651 31.6309C18.651 32.403 18.4622 33.0508 18.0846 33.5743C17.7123 34.0926 17.191 34.4919 16.5208 34.7721L19.1297 39.5871V39.6903H16.9676L14.638 35.2402ZM12.3881 33.6299H14.4625C15.1433 33.6299 15.6752 33.4606 16.0581 33.1222C16.4411 32.7785 16.6325 32.3104 16.6325 31.7182C16.6325 31.0994 16.4544 30.6208 16.098 30.2824C15.747 29.9439 15.2204 29.7694 14.5183 29.7588H12.3881V33.6299Z" fill="#FDFDFD"/>
<path d="M34.9616 32.3131L37.3877 28.1406H39.7028L36.2143 33.8678L39.7821 39.6903H37.4432L34.9616 35.4543L32.4721 39.6903H30.1411L33.7168 33.8678L30.2204 28.1406H32.5355L34.9616 32.3131Z" fill="#FDFDFD"/>
<path fill-rule="evenodd" clip-rule="evenodd" d="M0 0H20V1.98582H1.98582V20H0V0Z" fill="#FDFDFD"/>
<path fill-rule="evenodd" clip-rule="evenodd" d="M50 0H30V1.98582H48.0142V20H50V0Z" fill="#FDFDFD"/>
<path fill-rule="evenodd" clip-rule="evenodd" d="M50 50H30V48.0142H48.0142V30H50V50Z" fill="#FDFDFD"/>
<path fill-rule="evenodd" clip-rule="evenodd" d="M0 50H20V48.0142H1.98582V30H0V50Z" fill="#FDFDFD"/>
</svg>
